<svg width="48" height="48" viewBox="0 0 48 48" fill="none" xmlns="http://www.w3.org/2000/svg">
<path fill-rule="evenodd" clip-rule="evenodd" d="M28.1739 18.7827C26.4459 18.7827 25.0435 20.1851 25.0435 21.9131C25.0435 23.6411 26.4459 25.0436 28.1739 25.0436C29.9019 25.0436 31.3043 23.6411 31.3043 21.9131C31.3043 20.1851 29.9019 18.7827 28.1739 18.7827ZM28.1739 20.8697C28.7499 20.8697 29.2174 21.3371 29.2174 21.9131C29.2174 22.4891 28.7499 22.9566 28.1739 22.9566C27.5979 22.9566 27.1304 22.4891 27.1304 21.9131C27.1304 21.3371 27.5979 20.8697 28.1739 20.8697Z" fill="url(#paint0_linear_1196_51390)"/>
<path fill-rule="evenodd" clip-rule="evenodd" d="M28.1739 27.1304C26.4459 27.1304 25.0435 28.5328 25.0435 30.2608C25.0435 31.9888 26.4459 33.3912 28.1739 33.3912C29.9019 33.3912 31.3043 31.9888 31.3043 30.2608C31.3043 28.5328 29.9019 27.1304 28.1739 27.1304ZM28.1739 29.2173C28.7499 29.2173 29.2174 29.6848 29.2174 30.2608C29.2174 30.8368 28.7499 31.3043 28.1739 31.3043C27.5979 31.3043 27.1304 30.8368 27.1304 30.2608C27.1304 29.6848 27.5979 29.2173 28.1739 29.2173Z" fill="url(#paint1_linear_1196_51390)"/>
<path fill-rule="evenodd" clip-rule="evenodd" d="M36.5215 18.7827C34.7935 18.7827 33.3911 20.1851 33.3911 21.9131C33.3911 23.6411 34.7935 25.0436 36.5215 25.0436C38.2495 25.0436 39.652 23.6411 39.652 21.9131C39.652 20.1851 38.2495 18.7827 36.5215 18.7827ZM36.5215 20.8697C37.0975 20.8697 37.565 21.3371 37.565 21.9131C37.565 22.4891 37.0975 22.9566 36.5215 22.9566C35.9455 22.9566 35.4781 22.4891 35.4781 21.9131C35.4781 21.3371 35.9455 20.8697 36.5215 20.8697Z" fill="url(#paint2_linear_1196_51390)"/>
<path fill-rule="evenodd" clip-rule="evenodd" d="M36.5215 27.1304C34.7935 27.1304 33.3911 28.5328 33.3911 30.2608C33.3911 31.9888 34.7935 33.3912 36.5215 33.3912C38.2495 33.3912 39.652 31.9888 39.652 30.2608C39.652 28.5328 38.2495 27.1304 36.5215 27.1304ZM36.5215 29.2173C37.0975 29.2173 37.565 29.6848 37.565 30.2608C37.565 30.8368 37.0975 31.3043 36.5215 31.3043C35.9455 31.3043 35.4781 30.8368 35.4781 30.2608C35.4781 29.6848 35.9455 29.2173 36.5215 29.2173Z" fill="url(#paint3_linear_1196_51390)"/>
<path fill-rule="evenodd" clip-rule="evenodd" d="M29.2174 4.17391H22.9565V3.13043C22.9565 1.40139 21.5551 0 19.8261 0H15.6522C13.9231 0 12.5217 1.40139 12.5217 3.13043V4.17391H10.4348C8.77461 4.17391 7.18225 4.8334 6.00729 6.00731C4.83338 7.18226 4.17391 8.77461 4.17391 10.4348V15.6522C4.17391 16.2282 4.64139 16.6957 5.21739 16.6957C5.79339 16.6957 6.26087 16.2282 6.26087 15.6522V14.6087H45.913V42.7826C45.913 44.5117 44.5117 45.913 42.7826 45.913C41.0536 45.913 39.6522 44.5117 39.6522 42.7826C39.6522 42.7826 39.6522 41.7391 39.6522 40.6957C39.6522 39.865 39.3224 39.0689 38.735 38.4824C38.1485 37.895 37.3523 37.5652 36.5217 37.5652H18.0762C21.0271 35.4877 22.9565 32.0546 22.9565 28.1739C22.9565 21.839 17.8132 16.6957 11.4783 16.6957C5.1433 16.6957 0 21.839 0 28.1739C0 32.0546 1.92939 35.4877 4.88035 37.5652H3.13043C1.40139 37.5652 0 38.9666 0 40.6957V42.7826C0 45.6637 2.33635 48 5.21739 48H42.7826C45.6637 48 48 45.6637 48 42.7826C48 33.8254 48 10.4348 48 10.4348C48 8.77461 47.3405 7.18226 46.1666 6.00731C44.9917 4.8334 43.3993 4.17391 41.7391 4.17391H39.6522V3.13043C39.6522 1.40139 38.2508 0 36.5217 0H32.3478C30.6188 0 29.2174 1.40139 29.2174 3.13043V4.17391ZM36.5217 39.6522H3.13043C2.55443 39.6522 2.08696 40.1197 2.08696 40.6957V42.7826C2.08696 44.5117 3.48835 45.913 5.21739 45.913H38.6087C37.9534 45.0407 37.5652 43.9576 37.5652 42.7826V40.6957C37.5652 40.4191 37.4557 40.153 37.2595 39.9579C37.0643 39.7617 36.7983 39.6522 36.5217 39.6522ZM11.4783 18.7826C16.6612 18.7826 20.8696 22.991 20.8696 28.1739C20.8696 33.3569 16.6612 37.5652 11.4783 37.5652C6.2953 37.5652 2.08696 33.3569 2.08696 28.1739C2.08696 22.991 6.2953 18.7826 11.4783 18.7826ZM31.3043 6.26087V7.30435C31.3043 7.88035 31.7718 8.34783 32.3478 8.34783H34.4348C35.0108 8.34783 35.4783 8.8153 35.4783 9.3913C35.4783 9.9673 35.0108 10.4348 34.4348 10.4348H32.3478C30.6188 10.4348 29.2174 9.03339 29.2174 7.30435V6.26087H14.6087V7.30435C14.6087 7.88035 15.0762 8.34783 15.6522 8.34783H17.7391C18.3151 8.34783 18.7826 8.8153 18.7826 9.3913C18.7826 9.9673 18.3151 10.4348 17.7391 10.4348H15.6522C13.9231 10.4348 12.5217 9.03339 12.5217 7.30435V6.26087H10.4348C9.32765 6.26087 8.26643 6.70017 7.48382 7.48382C6.70017 8.26643 6.26087 9.32765 6.26087 10.4348V12.5217H45.913V10.4348C45.913 9.32765 45.4737 8.26643 44.6901 7.48382C43.9075 6.70017 42.8463 6.26087 41.7391 6.26087H31.3043ZM20.8696 4.17391V3.13043C20.8696 2.55443 20.4021 2.08696 19.8261 2.08696H15.6522C15.0762 2.08696 14.6087 2.55443 14.6087 3.13043V4.17391H20.8696ZM37.5652 4.17391V3.13043C37.5652 2.55443 37.0977 2.08696 36.5217 2.08696H32.3478C31.7718 2.08696 31.3043 2.55443 31.3043 3.13043V4.17391H37.5652Z" fill="url(#paint4_linear_1196_51390)"/>
<path fill-rule="evenodd" clip-rule="evenodd" d="M10.4347 22.9561H9.39118C7.66213 22.9561 6.26074 24.3575 6.26074 26.0865C6.26074 27.8156 7.66213 29.217 9.39118 29.217H13.5651C14.1411 29.217 14.6086 29.6844 14.6086 30.2604C14.6086 30.8364 14.1411 31.3039 13.5651 31.3039H9.39118C8.81518 31.3039 8.3477 30.8364 8.3477 30.2604C8.3477 29.6844 7.88022 29.217 7.30422 29.217C6.72822 29.217 6.26074 29.6844 6.26074 30.2604C6.26074 31.9895 7.66213 33.3909 9.39118 33.3909H10.4347V34.4344C10.4347 35.0104 10.9021 35.4778 11.4781 35.4778C12.0541 35.4778 12.5216 35.0104 12.5216 34.4344V33.3909H13.5651C15.2941 33.3909 16.6955 31.9895 16.6955 30.2604C16.6955 28.5314 15.2941 27.13 13.5651 27.13H9.39118C8.81518 27.13 8.3477 26.6625 8.3477 26.0865C8.3477 25.5105 8.81518 25.0431 9.39118 25.0431H13.5651C14.1411 25.0431 14.6086 25.5105 14.6086 26.0865C14.6086 26.6625 15.076 27.13 15.652 27.13C16.228 27.13 16.6955 26.6625 16.6955 26.0865C16.6955 24.3575 15.2941 22.9561 13.5651 22.9561H12.5216V21.9126C12.5216 21.3366 12.0541 20.8691 11.4781 20.8691C10.9021 20.8691 10.4347 21.3366 10.4347 21.9126V22.9561Z" fill="url(#paint5_linear_1196_51390)"/>
<defs>
<linearGradient id="paint0_linear_1196_51390" x1="28.1739" y1="18.7827" x2="28.1739" y2="25.0436" gradientUnits="userSpaceOnUse">
<stop stop-color="#FFDB79"/>
<stop offset="1" stop-color="#E4A600"/>
</linearGradient>
<linearGradient id="paint1_linear_1196_51390" x1="28.1739" y1="27.1304" x2="28.1739" y2="33.3912" gradientUnits="userSpaceOnUse">
<stop stop-color="#FFDB79"/>
<stop offset="1" stop-color="#E4A600"/>
</linearGradient>
<linearGradient id="paint2_linear_1196_51390" x1="36.5215" y1="18.7827" x2="36.5215" y2="25.0436" gradientUnits="userSpaceOnUse">
<stop stop-color="#FFDB79"/>
<stop offset="1" stop-color="#E4A600"/>
</linearGradient>
<linearGradient id="paint3_linear_1196_51390" x1="36.5215" y1="27.1304" x2="36.5215" y2="33.3912" gradientUnits="userSpaceOnUse">
<stop stop-color="#FFDB79"/>
<stop offset="1" stop-color="#E4A600"/>
</linearGradient>
<linearGradient id="paint4_linear_1196_51390" x1="24" y1="0" x2="24" y2="48" gradientUnits="userSpaceOnUse">
<stop stop-color="#FFDB79"/>
<stop offset="1" stop-color="#E4A600"/>
</linearGradient>
<linearGradient id="paint5_linear_1196_51390" x1="11.4781" y1="20.8691" x2="11.4781" y2="35.4778" gradientUnits="userSpaceOnUse">
<stop stop-color="#FFDB79"/>
<stop offset="1" stop-color="#E4A600"/>
</linearGradient>
</defs>
</svg>
