<svg width="48" height="48" viewBox="0 0 48 48" fill="none" xmlns="http://www.w3.org/2000/svg">
<path d="M45.6975 10.4332L11.3183 4.30085C9.81174 4.02989 8.34813 5.08395 8.08684 6.5824L5.87264 19.2846H2.70968C1.21548 19.2846 0 20.5005 0 21.9943V41.0317C0 42.5255 1.21548 43.7414 2.70968 43.7414H37.7756C39.2698 43.7414 40.4853 42.5255 40.4853 41.0317V34.3376C41.4898 34.5169 42.4595 34.7282 43.3881 34.1727C44.0849 33.7558 44.5846 33.037 44.7244 32.2361L47.9574 13.6879C48.2234 12.1624 47.2095 10.7023 45.6975 10.4332ZM9.61239 6.84834C9.72852 6.18292 10.3742 5.70485 11.0466 5.82485L45.4258 11.9572C46.1005 12.0776 46.5519 12.7345 46.4323 13.4216L45.8988 16.4836L9.07742 9.91608L9.61239 6.84834ZM38.9369 41.0317C38.9369 41.6719 38.4159 42.193 37.7756 42.193H2.70968C2.06942 42.193 1.54839 41.6719 1.54839 41.0317V21.9943C1.54839 21.354 2.06942 20.833 2.70968 20.833H37.7756C38.4159 20.833 38.9369 21.354 38.9369 21.9943V41.0317ZM43.1992 31.9701C42.9584 33.347 41.4294 32.9332 40.4853 32.7649V21.9943C40.4853 20.5005 39.2698 19.2846 37.7756 19.2846H7.44464L8.81148 11.4412L11.0543 11.8411L45.6325 18.0087L43.1992 31.9701Z" fill="url(#paint0_linear_1196_51383)"/>
<path d="M18.2395 39.0977H13.7879C13.3605 39.0977 13.0137 38.7509 13.0137 38.3235C13.0137 37.8962 13.3605 37.5493 13.7879 37.5493H18.2395C18.6668 37.5493 19.0137 37.8962 19.0137 38.3235C19.0137 38.7509 18.6672 39.0977 18.2395 39.0977Z" fill="url(#paint1_linear_1196_51383)"/>
<path d="M9.78245 39.0977H5.33083C4.90348 39.0977 4.55664 38.7509 4.55664 38.3235C4.55664 37.8962 4.90348 37.5493 5.33083 37.5493H9.78245C10.2098 37.5493 10.5566 37.8962 10.5566 38.3235C10.5566 38.7509 10.2098 39.0977 9.78245 39.0977Z" fill="url(#paint2_linear_1196_51383)"/>
<path d="M26.6965 39.0977H22.2449C21.8175 39.0977 21.4707 38.7509 21.4707 38.3235C21.4707 37.8962 21.8175 37.5493 22.2449 37.5493H26.6965C27.1239 37.5493 27.4707 37.8962 27.4707 38.3235C27.4707 38.7509 27.1243 39.0977 26.6965 39.0977Z" fill="url(#paint3_linear_1196_51383)"/>
<path d="M35.1545 39.0977H30.7029C30.2755 39.0977 29.9287 38.7509 29.9287 38.3235C29.9287 37.8962 30.2755 37.5493 30.7029 37.5493H35.1545C35.5819 37.5493 35.9287 37.8962 35.9287 38.3235C35.9287 38.7509 35.5819 39.0977 35.1545 39.0977Z" fill="url(#paint4_linear_1196_51383)"/>
<path d="M11.7822 35.0813H6.17474C5.10752 35.0813 4.23926 34.213 4.23926 33.1458V30.9223C4.23926 29.8551 5.10752 28.9868 6.17474 28.9868H11.7822C12.8495 28.9868 13.7177 29.8551 13.7177 30.9223V33.1458C13.7177 34.2126 12.8491 35.0813 11.7822 35.0813ZM6.17474 30.5348C5.96145 30.5348 5.78764 30.7082 5.78764 30.9219V33.1454C5.78764 33.3591 5.96145 33.5325 6.17474 33.5325H11.7822C11.9955 33.5325 12.1693 33.3591 12.1693 33.1454V30.9219C12.1693 30.7082 11.9955 30.5348 11.7822 30.5348H6.17474Z" fill="url(#paint5_linear_1196_51383)"/>
<defs>
<linearGradient id="paint0_linear_1196_51383" x1="23.9999" y1="4.2583" x2="23.9999" y2="43.7414" gradientUnits="userSpaceOnUse">
<stop stop-color="#FFDB79"/>
<stop offset="1" stop-color="#E4A600"/>
</linearGradient>
<linearGradient id="paint1_linear_1196_51383" x1="16.0137" y1="37.5493" x2="16.0137" y2="39.0977" gradientUnits="userSpaceOnUse">
<stop stop-color="#FFDB79"/>
<stop offset="1" stop-color="#E4A600"/>
</linearGradient>
<linearGradient id="paint2_linear_1196_51383" x1="7.55664" y1="37.5493" x2="7.55664" y2="39.0977" gradientUnits="userSpaceOnUse">
<stop stop-color="#FFDB79"/>
<stop offset="1" stop-color="#E4A600"/>
</linearGradient>
<linearGradient id="paint3_linear_1196_51383" x1="24.4707" y1="37.5493" x2="24.4707" y2="39.0977" gradientUnits="userSpaceOnUse">
<stop stop-color="#FFDB79"/>
<stop offset="1" stop-color="#E4A600"/>
</linearGradient>
<linearGradient id="paint4_linear_1196_51383" x1="32.9287" y1="37.5493" x2="32.9287" y2="39.0977" gradientUnits="userSpaceOnUse">
<stop stop-color="#FFDB79"/>
<stop offset="1" stop-color="#E4A600"/>
</linearGradient>
<linearGradient id="paint5_linear_1196_51383" x1="8.97848" y1="28.9868" x2="8.97848" y2="35.0813" gradientUnits="userSpaceOnUse">
<stop stop-color="#FFDB79"/>
<stop offset="1" stop-color="#E4A600"/>
</linearGradient>
</defs>
</svg>
