<svg width="48" height="48" viewBox="0 0 48 48" fill="none" xmlns="http://www.w3.org/2000/svg">
<path d="M43.6647 2.07219C43.4995 1.97027 43.3092 1.91602 43.1152 1.91602H11.7836C9.08994 1.91602 6.89852 4.08606 6.89852 6.7456L6.7144 33.7269H1.05214C0.470998 33.7269 0 34.1979 0 34.779V39.6398C0.00369893 43.2093 2.89627 46.1019 6.46574 46.106C6.53808 46.106 6.61082 46.0986 6.68193 46.0838H32.8231C32.9789 46.0949 33.1359 46.1023 33.2941 46.1023C36.9191 46.0957 39.8544 43.1563 39.8556 39.5313V23.7591H46.9477C47.5289 23.7591 47.9999 23.2881 47.9999 22.7069V7.08836C47.9871 4.57679 46.148 2.44825 43.6647 2.07219ZM2.10429 39.6403V35.8316H26.7326V39.5317C26.7314 41.1802 27.3516 42.7683 28.4699 43.9795H6.3219C6.27217 43.9799 6.22285 43.9836 6.17394 43.991C3.88512 43.8353 2.10716 41.9344 2.10429 39.6403ZM37.7514 7.08836V39.5313C37.7493 40.7076 37.282 41.8345 36.4514 42.6668C35.6561 43.4826 34.5756 43.959 33.4372 43.9951C33.3805 43.9853 33.3229 43.9803 33.265 43.9799H32.8951C30.6034 43.7543 28.8521 41.835 28.8369 39.5322V34.779C28.8369 34.1983 28.3659 33.7269 27.7848 33.7269H8.81868L9.0028 6.75299C9.01801 5.2315 10.2617 4.00879 11.7836 4.0203H38.7965C38.1188 4.89941 37.751 5.97827 37.7514 7.08836ZM45.8956 21.6548H39.8556V7.08836C39.8832 5.43987 41.2271 4.11853 42.8756 4.11853C44.5241 4.11853 45.8681 5.43987 45.8956 7.08836V21.6548Z" fill="url(#paint0_linear_1196_51378)"/>
<path d="M13.5082 13.3147H23.4731C24.0543 13.3147 24.5253 12.8437 24.5253 12.2626C24.5253 11.6814 24.0543 11.2104 23.4731 11.2104H13.5082C12.9271 11.2104 12.4561 11.6814 12.4561 12.2626C12.4561 12.8437 12.9271 13.3147 13.5082 13.3147Z" fill="url(#paint1_linear_1196_51378)"/>
<path d="M32.0966 18.7329H13.5082C12.9271 18.7329 12.4561 19.2039 12.4561 19.7851C12.4561 20.3658 12.9271 20.8372 13.5082 20.8372H32.0966C32.6777 20.8372 33.1487 20.3658 33.1487 19.7851C33.1487 19.2039 32.6777 18.7329 32.0966 18.7329Z" fill="url(#paint2_linear_1196_51378)"/>
<path d="M32.0966 26.2554H13.5082C12.9271 26.2554 12.4561 26.7268 12.4561 27.3075C12.4561 27.8887 12.9271 28.3597 13.5082 28.3597H32.0966C32.6777 28.3597 33.1487 27.8887 33.1487 27.3075C33.1487 26.7268 32.6777 26.2554 32.0966 26.2554Z" fill="url(#paint3_linear_1196_51378)"/>
<defs>
<linearGradient id="paint0_linear_1196_51378" x1="23.9999" y1="1.91602" x2="23.9999" y2="46.106" gradientUnits="userSpaceOnUse">
<stop stop-color="#FFDB79"/>
<stop offset="1" stop-color="#E4A600"/>
</linearGradient>
<linearGradient id="paint1_linear_1196_51378" x1="18.4907" y1="11.2104" x2="18.4907" y2="13.3147" gradientUnits="userSpaceOnUse">
<stop stop-color="#FFDB79"/>
<stop offset="1" stop-color="#E4A600"/>
</linearGradient>
<linearGradient id="paint2_linear_1196_51378" x1="22.8024" y1="18.7329" x2="22.8024" y2="20.8372" gradientUnits="userSpaceOnUse">
<stop stop-color="#FFDB79"/>
<stop offset="1" stop-color="#E4A600"/>
</linearGradient>
<linearGradient id="paint3_linear_1196_51378" x1="22.8024" y1="26.2554" x2="22.8024" y2="28.3597" gradientUnits="userSpaceOnUse">
<stop stop-color="#FFDB79"/>
<stop offset="1" stop-color="#E4A600"/>
</linearGradient>
</defs>
</svg>
