<svg width="61" height="64" viewBox="0 0 61 64" fill="none" xmlns="http://www.w3.org/2000/svg">
<path fill-rule="evenodd" clip-rule="evenodd" d="M35.5493 27.4788C33.3893 27.4788 31.6362 29.2318 31.6362 31.3918C31.6362 33.5518 33.3893 35.3048 35.5493 35.3048C37.7093 35.3048 39.4623 33.5518 39.4623 31.3918C39.4623 29.2318 37.7093 27.4788 35.5493 27.4788ZM35.5493 30.0875C36.2693 30.0875 36.8536 30.6718 36.8536 31.3918C36.8536 32.1118 36.2693 32.6962 35.5493 32.6962C34.8293 32.6962 34.2449 32.1118 34.2449 31.3918C34.2449 30.6718 34.8293 30.0875 35.5493 30.0875Z" fill="url(#paint0_linear_827_391)"/>
<path fill-rule="evenodd" clip-rule="evenodd" d="M35.5493 37.9124C33.3893 37.9124 31.6362 39.6654 31.6362 41.8254C31.6362 43.9854 33.3893 45.7384 35.5493 45.7384C37.7093 45.7384 39.4623 43.9854 39.4623 41.8254C39.4623 39.6654 37.7093 37.9124 35.5493 37.9124ZM35.5493 40.521C36.2693 40.521 36.8536 41.1054 36.8536 41.8254C36.8536 42.5454 36.2693 43.1297 35.5493 43.1297C34.8293 43.1297 34.2449 42.5454 34.2449 41.8254C34.2449 41.1054 34.8293 40.521 35.5493 40.521Z" fill="url(#paint1_linear_827_391)"/>
<path fill-rule="evenodd" clip-rule="evenodd" d="M45.9843 27.4788C43.8243 27.4788 42.0713 29.2318 42.0713 31.3918C42.0713 33.5518 43.8243 35.3048 45.9843 35.3048C48.1443 35.3048 49.8974 33.5518 49.8974 31.3918C49.8974 29.2318 48.1443 27.4788 45.9843 27.4788ZM45.9843 30.0875C46.7043 30.0875 47.2887 30.6718 47.2887 31.3918C47.2887 32.1118 46.7043 32.6962 45.9843 32.6962C45.2643 32.6962 44.68 32.1118 44.68 31.3918C44.68 30.6718 45.2643 30.0875 45.9843 30.0875Z" fill="url(#paint2_linear_827_391)"/>
<path fill-rule="evenodd" clip-rule="evenodd" d="M45.9843 37.9124C43.8243 37.9124 42.0713 39.6654 42.0713 41.8254C42.0713 43.9854 43.8243 45.7384 45.9843 45.7384C48.1443 45.7384 49.8974 43.9854 49.8974 41.8254C49.8974 39.6654 48.1443 37.9124 45.9843 37.9124ZM45.9843 40.521C46.7043 40.521 47.2887 41.1054 47.2887 41.8254C47.2887 42.5454 46.7043 43.1297 45.9843 43.1297C45.2643 43.1297 44.68 42.5454 44.68 41.8254C44.68 41.1054 45.2643 40.521 45.9843 40.521Z" fill="url(#paint3_linear_827_391)"/>
<path fill-rule="evenodd" clip-rule="evenodd" d="M36.8538 5.21739H29.0277V3.91304C29.0277 1.75174 27.2759 0 25.1146 0H19.8972C17.7359 0 15.9842 1.75174 15.9842 3.91304V5.21739H13.3755C11.3003 5.21739 9.30984 6.04174 7.84115 7.50914C6.37376 8.97783 5.54942 10.9683 5.54942 13.0435V22.5652C5.54942 23.2852 6.13377 23.8696 6.85377 23.8696C7.57377 23.8696 8.15812 23.2852 8.15812 22.5652V18.2609H57.7233V57.4783C57.7233 59.6396 55.9716 61.3913 53.8103 61.3913C51.649 61.3913 49.8972 59.6396 49.8972 57.4783C49.8972 57.4783 49.8972 56.1739 49.8972 54.8696C49.8972 53.8313 49.4851 52.8361 48.7507 52.103C48.0177 51.3687 47.0225 50.9565 45.9842 50.9565H22.9272C26.6159 48.3596 29.0277 44.0683 29.0277 39.2174C29.0277 31.2987 22.5986 24.8696 14.6799 24.8696C6.76116 24.8696 0.332031 31.2987 0.332031 39.2174C0.332031 44.0683 2.74377 48.3596 6.43247 50.9565H4.24507C2.08377 50.9565 0.332031 52.7083 0.332031 54.8696V57.4783C0.332031 61.0796 3.25247 64 6.85377 64H53.8103C57.4116 64 60.332 61.0796 60.332 57.4783C60.332 46.2817 60.332 13.0435 60.332 13.0435C60.332 10.9683 59.5077 8.97783 58.0403 7.50914C56.5716 6.04174 54.5812 5.21739 52.5059 5.21739H49.8972V3.91304C49.8972 1.75174 48.1455 0 45.9842 0H40.7668C38.6055 0 36.8538 1.75174 36.8538 3.91304V5.21739ZM45.9842 53.5652H4.24507C3.52507 53.5652 2.94073 54.1496 2.94073 54.8696V57.4783C2.94073 59.6396 4.69247 61.3913 6.85377 61.3913H48.5929C47.7738 60.3009 47.2886 58.947 47.2886 57.4783V54.8696C47.2886 54.5239 47.1516 54.1913 46.9064 53.9474C46.6625 53.7022 46.3299 53.5652 45.9842 53.5652ZM14.6799 27.4783C21.1586 27.4783 26.419 32.7387 26.419 39.2174C26.419 45.6961 21.1586 50.9565 14.6799 50.9565C8.20116 50.9565 2.94073 45.6961 2.94073 39.2174C2.94073 32.7387 8.20116 27.4783 14.6799 27.4783ZM39.4625 7.82609V9.13043C39.4625 9.85044 40.0468 10.4348 40.7668 10.4348H43.3755C44.0955 10.4348 44.6799 11.0191 44.6799 11.7391C44.6799 12.4591 44.0955 13.0435 43.3755 13.0435H40.7668C38.6055 13.0435 36.8538 11.2917 36.8538 9.13043V7.82609H18.5929V9.13043C18.5929 9.85044 19.1772 10.4348 19.8972 10.4348H22.5059C23.2259 10.4348 23.8103 11.0191 23.8103 11.7391C23.8103 12.4591 23.2259 13.0435 22.5059 13.0435H19.8972C17.7359 13.0435 15.9842 11.2917 15.9842 9.13043V7.82609H13.3755C11.9916 7.82609 10.6651 8.37521 9.68681 9.35478C8.70724 10.333 8.15812 11.6596 8.15812 13.0435V15.6522H57.7233V13.0435C57.7233 11.6596 57.1742 10.333 56.1946 9.35478C55.2164 8.37521 53.8899 7.82609 52.5059 7.82609H39.4625ZM26.419 5.21739V3.91304C26.419 3.19304 25.8346 2.6087 25.1146 2.6087H19.8972C19.1772 2.6087 18.5929 3.19304 18.5929 3.91304V5.21739H26.419ZM47.2886 5.21739V3.91304C47.2886 3.19304 46.7042 2.6087 45.9842 2.6087H40.7668C40.0468 2.6087 39.4625 3.19304 39.4625 3.91304V5.21739H47.2886Z" fill="url(#paint4_linear_827_391)"/>
<path fill-rule="evenodd" clip-rule="evenodd" d="M13.3756 32.6957H12.0712C9.90994 32.6957 8.1582 34.4475 8.1582 36.6088C8.1582 38.7701 9.90994 40.5218 12.0712 40.5218H17.2886C18.0086 40.5218 18.593 41.1062 18.593 41.8262C18.593 42.5462 18.0086 43.1305 17.2886 43.1305H12.0712C11.3512 43.1305 10.7669 42.5462 10.7669 41.8262C10.7669 41.1062 10.1826 40.5218 9.46255 40.5218C8.74255 40.5218 8.1582 41.1062 8.1582 41.8262C8.1582 43.9875 9.90994 45.7392 12.0712 45.7392H13.3756V47.0436C13.3756 47.7636 13.9599 48.3479 14.6799 48.3479C15.3999 48.3479 15.9843 47.7636 15.9843 47.0436V45.7392H17.2886C19.4499 45.7392 21.2017 43.9875 21.2017 41.8262C21.2017 39.6649 19.4499 37.9131 17.2886 37.9131H12.0712C11.3512 37.9131 10.7669 37.3288 10.7669 36.6088C10.7669 35.8888 11.3512 35.3044 12.0712 35.3044H17.2886C18.0086 35.3044 18.593 35.8888 18.593 36.6088C18.593 37.3288 19.1773 37.9131 19.8973 37.9131C20.6173 37.9131 21.2017 37.3288 21.2017 36.6088C21.2017 34.4475 19.4499 32.6957 17.2886 32.6957H15.9843V31.3914C15.9843 30.6714 15.3999 30.087 14.6799 30.087C13.9599 30.087 13.3756 30.6714 13.3756 31.3914V32.6957Z" fill="url(#paint5_linear_827_391)"/>
<defs>
<linearGradient id="paint0_linear_827_391" x1="35.5493" y1="27.4788" x2="35.5493" y2="35.3048" gradientUnits="userSpaceOnUse">
<stop stop-color="#FCCA5D"/>
<stop offset="1" stop-color="#C9A14A"/>
</linearGradient>
<linearGradient id="paint1_linear_827_391" x1="35.5493" y1="37.9124" x2="35.5493" y2="45.7384" gradientUnits="userSpaceOnUse">
<stop stop-color="#FCCA5D"/>
<stop offset="1" stop-color="#C9A14A"/>
</linearGradient>
<linearGradient id="paint2_linear_827_391" x1="45.9843" y1="27.4788" x2="45.9843" y2="35.3048" gradientUnits="userSpaceOnUse">
<stop stop-color="#FCCA5D"/>
<stop offset="1" stop-color="#C9A14A"/>
</linearGradient>
<linearGradient id="paint3_linear_827_391" x1="45.9843" y1="37.9124" x2="45.9843" y2="45.7384" gradientUnits="userSpaceOnUse">
<stop stop-color="#FCCA5D"/>
<stop offset="1" stop-color="#C9A14A"/>
</linearGradient>
<linearGradient id="paint4_linear_827_391" x1="30.332" y1="0" x2="30.332" y2="64" gradientUnits="userSpaceOnUse">
<stop stop-color="#FCCA5D"/>
<stop offset="1" stop-color="#C9A14A"/>
</linearGradient>
<linearGradient id="paint5_linear_827_391" x1="14.6799" y1="30.087" x2="14.6799" y2="48.3479" gradientUnits="userSpaceOnUse">
<stop stop-color="#FCCA5D"/>
<stop offset="1" stop-color="#C9A14A"/>
</linearGradient>
</defs>
</svg>
