<svg width="64" height="64" viewBox="0 0 64 64" fill="none" xmlns="http://www.w3.org/2000/svg">
<path d="M21.98 43.0864C21.4622 43.0864 21.0425 43.5062 21.0425 44.0239V53.0319C21.0425 53.5497 21.4622 53.9694 21.98 53.9694C22.4977 53.9694 22.9175 53.5497 22.9175 53.0319V44.0239C22.9175 43.5062 22.4977 43.0864 21.98 43.0864Z" fill="url(#paint0_linear_827_367)"/>
<path d="M42.02 43.0864C41.5023 43.0864 41.0825 43.5062 41.0825 44.0239V52.0319C41.0825 52.5497 41.5023 52.9694 42.02 52.9694C42.5378 52.9694 42.9575 52.5497 42.9575 52.0319V44.0239C42.9575 43.5062 42.5378 43.0864 42.02 43.0864Z" fill="url(#paint1_linear_827_367)"/>
<path d="M14.3829 23.1454C12.2059 22.0569 8.12428 22.0444 7.95153 22.0444C7.43391 22.0444 7.01429 22.4639 7.01416 22.9817C7.01404 23.4993 7.43353 23.9192 7.95128 23.9194C9.00603 23.9201 12.0667 24.0836 13.5444 24.8224C13.679 24.8898 13.822 24.9216 13.9629 24.9216C14.3068 24.9216 14.6379 24.7316 14.8021 24.4032C15.0338 23.9401 14.846 23.3769 14.3829 23.1454Z" fill="url(#paint2_linear_827_367)"/>
<path d="M4.94531 41.0828C4.42756 41.0828 4.00781 41.5025 4.00781 42.0203V50.0324C4.00781 50.5501 4.42756 50.9699 4.94531 50.9699C5.46306 50.9699 5.88281 50.5501 5.88281 50.0324V42.0203C5.88281 41.5026 5.46318 41.0828 4.94531 41.0828Z" fill="url(#paint3_linear_827_367)"/>
<path d="M61.8199 37.5813L58.0234 35.6833C58.0014 35.6723 57.9876 35.6501 57.9876 35.6256L57.9879 33.7174C59.5464 32.6443 60.6495 30.9478 60.9255 28.9568C61.6265 27.7454 61.9959 26.3772 61.9959 24.986C61.9959 22.3916 60.7466 20.0838 58.8185 18.6316C58.9315 18.2552 58.9899 17.867 58.9899 17.4708C58.9899 15.0201 56.7713 13.0262 54.0444 13.0262C51.3175 13.0262 49.0989 15.0201 49.0989 17.4708C49.0989 17.8675 49.1567 18.2558 49.2697 18.632C48.12 19.498 47.2135 20.669 46.6678 22.0227C46.4354 19.7391 46.1934 17.0395 45.9613 13.8947C45.655 9.74548 44.1628 6.24149 41.646 3.76174C39.1484 1.30075 35.8128 0 31.9999 0C28.1871 0 24.8515 1.30075 22.3541 3.76162C19.8373 6.24149 18.3451 9.74548 18.0388 13.8946C17.9575 14.9962 17.875 16.0403 17.7921 17.0342H8.95361C5.67411 17.0342 3.00599 19.7023 3.00599 22.9818V23.0377C3.00599 23.8015 3.18649 24.5663 3.52812 25.2495L4.00799 26.2093V27.7399C4.00799 30.1657 5.20337 32.3423 7.01399 33.6522V35.0062C7.01399 35.1798 6.89736 35.3343 6.73049 35.3821L2.86012 36.4879C1.17612 36.9689 0 38.5282 0 40.2795V59.0322C0 59.5499 0.419749 59.9697 0.937498 59.9697C1.45525 59.9697 1.875 59.5499 1.875 59.0322V40.2795C1.875 39.3608 2.492 38.5429 3.37524 38.2906L7.24574 37.1847C7.38536 37.1448 7.51799 37.0907 7.64424 37.0264L10.0201 39.4023V54.0322C10.0201 54.5499 10.4399 54.9697 10.9576 54.9697C11.4754 54.9697 11.8951 54.5499 11.8951 54.0322V39.4023L14.2876 37.0098C14.6073 37.1667 14.926 37.2579 15.1595 37.3247L16.1098 37.5962C14.822 38.5119 14.0282 40.0055 14.0282 41.6252V63.0319C14.0282 63.5497 14.448 63.9694 14.9657 63.9694C15.4835 63.9694 15.9032 63.5497 15.9032 63.0319V41.6252C15.9032 40.4099 16.6216 39.3074 17.7333 38.8164L23.0933 36.4491C24.773 39.8127 28.2052 41.9554 32.0001 41.9554C35.8091 41.9554 39.2298 39.8174 40.9084 36.4498L46.2668 38.8164C47.3785 39.3074 48.0969 40.4099 48.0969 41.6252V63.0319C48.0969 63.5497 48.5167 63.9694 49.0344 63.9694C49.5522 63.9694 49.9719 63.5497 49.9719 63.0319V41.6252C49.9719 40.4259 49.536 39.2962 48.7879 38.4179L50.2388 37.6926L51.3279 38.7275C52.0896 39.4515 53.0669 39.8133 54.0445 39.8133C55.0218 39.8133 55.9995 39.4513 56.761 38.7275L57.85 37.6927L60.9815 39.2583C61.6869 39.6109 62.125 40.3199 62.125 41.1085V59.032C62.125 59.5498 62.5448 59.9695 63.0625 59.9695C63.5803 59.9695 64 59.5498 64 59.032V41.1085C63.9999 39.6053 63.1645 38.2537 61.8199 37.5813ZM54.0443 14.9011C55.7373 14.9011 57.1148 16.0538 57.1148 17.4707C57.1148 17.5301 57.11 17.589 57.1053 17.6477C56.1625 17.253 55.1285 17.0342 54.0443 17.0342C52.9602 17.0342 51.9263 17.253 50.9838 17.6476C50.9789 17.5888 50.9738 17.5301 50.9738 17.4707C50.9738 16.0538 52.3513 14.9011 54.0443 14.9011ZM10.9577 37.6883L8.82148 35.5521C8.86561 35.3761 8.88923 35.1929 8.88923 35.0061V34.6106C9.47898 34.8042 10.101 34.9191 10.7446 34.9383C10.8167 34.9406 10.8885 34.9416 10.9604 34.9416C11.6714 34.9416 12.3655 34.8342 13.026 34.6293V35.0057C13.026 35.2091 13.0469 35.3936 13.084 35.5621L10.9577 37.6883ZM10.8009 33.0639C8.08911 32.9828 5.88299 30.5943 5.88299 27.7399V25.9879C5.88299 25.8424 5.84911 25.6988 5.78399 25.5687L5.20511 24.411C4.99312 23.9867 4.88099 23.512 4.88099 23.0377V22.9818C4.88099 20.7362 6.70799 18.9092 8.95361 18.9092H17.0343V22.8011C17.0343 23.43 16.8857 24.0598 16.6043 24.6223L16.1312 25.5686C16.0661 25.6988 16.0322 25.8423 16.0322 25.9878V27.9918C16.0322 29.3761 15.485 30.6696 14.4912 31.6338C13.498 32.5976 12.1866 33.1059 10.8009 33.0639ZM18.6362 36.3679L15.6746 35.5218C14.9008 35.3008 14.901 35.2146 14.901 35.0059L14.9012 33.7143C15.2161 33.4962 15.5163 33.2521 15.7972 32.9794C15.9862 32.7961 16.1622 32.6031 16.3272 32.4031C16.4778 32.7086 16.7087 32.9754 17.0071 33.1686C17.7586 33.6552 19.1767 34.4636 21.2622 35.2081L18.6362 36.3679ZM31.9999 40.0805C28.9497 40.0805 26.1872 38.3755 24.8096 35.6912L26.1742 35.0884C27.2392 34.6181 27.9273 33.5619 27.9273 32.3977V30.1482C29.1869 30.6543 30.5614 30.9334 31.9999 30.9334C33.4384 30.9334 34.8128 30.6543 36.0726 30.1482V32.3977C36.0726 33.5619 36.7607 34.6182 37.8257 35.0884L39.19 35.6911C37.8134 38.3784 35.0616 40.0805 31.9999 40.0805ZM40.1292 34.0561L38.5832 33.3732C38.1971 33.2027 37.9476 32.8197 37.9476 32.3976V29.1744C40.9603 27.2198 42.9577 23.8267 42.9577 19.9757V18.2178C42.9577 17.0753 42.4719 15.9976 41.6249 15.2611C39.7413 13.6228 35.4774 10.764 28.0852 10.0247C27.5713 9.97323 27.1106 10.349 27.0591 10.8644C27.0076 11.3796 27.3834 11.839 27.8987 11.8905C34.7743 12.578 38.6789 15.1838 40.3946 16.676C40.8319 17.0562 41.0827 17.6183 41.0827 18.2178V19.9757C41.0827 24.9838 37.0082 29.0583 32.0001 29.0583C26.9919 29.0583 22.9175 24.9838 22.9175 19.9757V19.1915C22.9175 18.8312 23.1172 18.5012 23.4517 18.3086C24.6238 17.6337 26.1696 16.3835 26.8774 14.2601C27.0412 13.769 26.7757 13.238 26.2845 13.0742C25.7935 12.9105 25.2623 13.176 25.0986 13.6672C24.5771 15.2317 23.4063 16.1711 22.5161 16.6837C21.6071 17.2071 21.0423 18.1681 21.0423 19.1916V19.9758C21.0423 23.827 23.0396 27.2199 26.0525 29.1746V32.3977C26.0525 32.8198 25.803 33.2027 25.4168 33.3733L23.8707 34.0562C20.8512 33.2483 18.9165 32.1712 18.0261 31.5948C18.0083 31.5833 17.9983 31.5702 18.0033 31.5406C18.3303 29.6076 19.1706 24.032 19.9088 14.0327C20.1811 10.3434 21.4817 7.25336 23.6701 5.09712C25.8094 2.98924 28.6898 1.875 31.9999 1.875C35.3101 1.875 38.1904 2.98924 40.3298 5.09712C42.5182 7.25336 43.8188 10.3432 44.0912 14.0326C44.8293 24.0315 45.6695 29.6073 45.9967 31.5404C46.0017 31.5702 45.9917 31.5833 45.9738 31.5948C45.0822 32.1719 43.1474 33.2484 40.1292 34.0561ZM50.1008 35.6254C50.1008 35.6501 50.0872 35.6722 50.0652 35.6832L47.1279 37.1518C47.093 37.1354 47.0595 37.1171 47.0243 37.1014L42.7379 35.2083C44.8224 34.4641 46.2403 33.6561 46.9928 33.1688C47.6393 32.7502 47.974 31.9884 47.8454 31.2278C47.8384 31.1862 47.8308 31.1406 47.8233 31.0956C48.3505 32.1558 49.1389 33.0552 50.1008 33.7174V35.6254ZM55.469 37.3686C54.6701 38.1281 53.4184 38.1279 52.6193 37.3686L51.7479 36.5406C51.8949 36.2651 51.9757 35.9526 51.9757 35.6254V34.6278C52.6304 34.8309 53.3249 34.9414 54.0441 34.9414C54.7633 34.9414 55.4579 34.8309 56.1125 34.6278L56.1124 35.6252C56.1124 35.9526 56.1931 36.2651 56.3403 36.5407L55.469 37.3686ZM54.0443 33.0663C51.4485 33.0663 49.2805 31.1226 49.0014 28.5449C48.9864 28.4068 48.941 28.2738 48.8683 28.1553C48.279 27.1957 47.9677 26.0997 47.9677 24.9857C47.9677 21.6352 50.6935 18.9092 54.0443 18.9092C57.3949 18.9092 60.1209 21.6352 60.1209 24.9858C60.1209 25.6317 60.0155 26.2714 59.8126 26.8822C57.1506 24.1778 52.4678 23.118 52.242 23.0682C51.9648 23.0071 51.6745 23.0751 51.453 23.253C51.2317 23.431 51.1028 23.6997 51.1028 23.9837C51.1028 23.9898 51.06 24.6402 50.3754 25.3248C50.0093 25.691 50.0093 26.2846 50.3754 26.6506C50.7415 27.0167 51.3351 27.0167 51.7011 26.6506C52.2284 26.1233 52.5382 25.5882 52.7199 25.1363C54.2974 25.6049 57.5715 26.7884 59.0409 28.8658C58.6239 31.2819 56.5309 33.0663 54.0443 33.0663Z" fill="url(#paint4_linear_827_367)"/>
<path d="M59.0547 42.3212C58.5369 42.3212 58.1172 42.7409 58.1172 43.2587V50.032C58.1172 50.5498 58.5369 50.9695 59.0547 50.9695C59.5724 50.9695 59.9922 50.5498 59.9922 50.032V43.2587C59.9922 42.7409 59.5724 42.3212 59.0547 42.3212Z" fill="url(#paint5_linear_827_367)"/>
<defs>
<linearGradient id="paint0_linear_827_367" x1="21.98" y1="43.0864" x2="21.98" y2="53.9694" gradientUnits="userSpaceOnUse">
<stop stop-color="#FCCA5D"/>
<stop offset="1" stop-color="#C9A14A"/>
</linearGradient>
<linearGradient id="paint1_linear_827_367" x1="42.02" y1="43.0864" x2="42.02" y2="52.9694" gradientUnits="userSpaceOnUse">
<stop stop-color="#FCCA5D"/>
<stop offset="1" stop-color="#C9A14A"/>
</linearGradient>
<linearGradient id="paint2_linear_827_367" x1="10.9578" y1="22.0444" x2="10.9578" y2="24.9216" gradientUnits="userSpaceOnUse">
<stop stop-color="#FCCA5D"/>
<stop offset="1" stop-color="#C9A14A"/>
</linearGradient>
<linearGradient id="paint3_linear_827_367" x1="4.94531" y1="41.0828" x2="4.94531" y2="50.9699" gradientUnits="userSpaceOnUse">
<stop stop-color="#FCCA5D"/>
<stop offset="1" stop-color="#C9A14A"/>
</linearGradient>
<linearGradient id="paint4_linear_827_367" x1="32" y1="0" x2="32" y2="63.9694" gradientUnits="userSpaceOnUse">
<stop stop-color="#FCCA5D"/>
<stop offset="1" stop-color="#C9A14A"/>
</linearGradient>
<linearGradient id="paint5_linear_827_367" x1="59.0547" y1="42.3212" x2="59.0547" y2="50.9695" gradientUnits="userSpaceOnUse">
<stop stop-color="#FCCA5D"/>
<stop offset="1" stop-color="#C9A14A"/>
</linearGradient>
</defs>
</svg>
