<svg width="51" height="64" viewBox="0 0 51 64" fill="none" xmlns="http://www.w3.org/2000/svg">
<mask id="path-1-inside-1_827_386" fill="white">
<path d="M49.5462 23.3478C50.4587 21.9244 50.7311 20.1715 50.2935 18.5383C49.8558 16.9053 48.7436 15.5232 47.2416 14.747C46.0229 14.1168 45.2766 12.8243 45.3405 11.4539C45.419 9.76496 44.7785 8.11067 43.5829 6.91501C42.3874 5.7196 40.7325 5.07971 39.0442 5.15746C37.674 5.22122 36.3811 4.47482 35.7511 3.25629C34.9747 1.75425 33.5927 0.641971 31.9596 0.204459C30.3266 -0.233302 28.5735 0.039205 27.1502 0.951729C25.9952 1.692 24.5025 1.69225 23.3478 0.951729C21.9245 0.03933 20.1713 -0.233177 18.5385 0.204459C16.9053 0.641971 15.5234 1.75425 14.7469 3.25629C14.1169 4.47495 12.8226 5.22184 11.4538 5.15746C9.76503 5.07996 8.11074 5.71948 6.91508 6.91501C5.71955 8.11054 5.07903 9.76496 5.15753 11.4539C5.22129 12.8243 4.47502 14.1168 3.25636 14.747C1.75444 15.5232 0.64204 16.9053 0.204404 18.5383C-0.233108 20.1714 0.0391497 21.9244 0.951674 23.3478C1.69219 24.5027 1.69219 25.9953 0.951674 27.1502C0.0391497 28.5736 -0.233233 30.3265 0.204404 31.9597C0.64204 33.5927 1.75432 34.9747 3.25623 35.751C4.47502 36.3812 5.22129 37.6737 5.15741 39.0441C5.07891 40.733 5.71942 42.3873 6.91495 43.583C8.08161 44.7496 9.6854 45.3853 11.3317 45.3429L5.10666 56.1249C4.8539 56.5628 4.88978 57.1098 5.19754 57.511C5.50529 57.912 6.02443 58.0878 6.51282 57.9573L13.5018 56.0847L15.3747 63.0735C15.5056 63.5619 15.9177 63.9234 16.419 63.9893C16.4737 63.9965 16.5283 64 16.5825 64C17.0247 64 17.4395 63.765 17.6646 63.375L25.2489 50.2385L32.8333 63.375C33.0585 63.765 33.4732 64 33.9154 64C33.9697 64 34.0243 63.9965 34.0789 63.9893C34.5802 63.9234 34.9923 63.5619 35.1232 63.0735L36.9959 56.0845L43.9848 57.9572C44.4731 58.0881 44.9922 57.912 45.3001 57.5108C45.6078 57.1097 45.6437 56.5627 45.391 56.1248L39.166 45.3428C40.8126 45.386 42.4161 44.7494 43.5828 43.5828C44.7783 42.3873 45.4188 40.7329 45.3403 39.044C45.2766 37.6736 46.0229 36.381 47.2415 35.7509C48.7434 34.9746 49.8558 33.5926 50.2935 31.9595C50.731 30.3265 50.4587 28.5735 49.5462 27.15C48.8057 25.9953 48.8057 24.5028 49.5462 23.3478ZM17.0085 59.5114L15.5933 54.2301C15.5074 53.9097 15.298 53.6369 15.0109 53.4711C14.7239 53.3054 14.3829 53.2603 14.0624 53.3462L8.781 54.7614L13.7891 46.0869C14.181 46.3934 14.5105 46.7843 14.7469 47.2416C15.5233 48.7436 16.9053 49.8559 18.5384 50.2934C19.0495 50.4304 19.5724 50.4978 20.0932 50.4978C20.9197 50.4978 21.7408 50.3271 22.502 49.9963L17.0085 59.5114ZM36.4356 53.3462C36.1151 53.2602 35.7741 53.3052 35.4871 53.4711C35.1999 53.6369 34.9904 53.9099 34.9047 54.2301L33.4895 59.5114L27.9964 49.9969C29.237 50.5362 30.6376 50.6477 31.9596 50.2933C33.5928 49.8558 34.9747 48.7435 35.7512 47.2414C35.9875 46.7844 36.3174 46.394 36.7096 46.0879L41.7171 54.7613L36.4356 53.3462ZM47.4415 28.4996C47.9832 29.3443 48.1383 30.3434 47.8785 31.3127C47.6188 32.2819 46.9849 33.0694 46.0935 33.5302C44.0099 34.6074 42.734 36.8173 42.843 39.1602C42.8896 40.1626 42.5246 41.1054 41.815 41.8149C41.1055 42.5246 40.1616 42.8905 39.1604 42.843C36.8179 42.7367 34.6074 44.01 33.5303 46.0934C33.0694 46.9849 32.2819 47.6188 31.3126 47.8785C30.3434 48.1381 29.3444 47.983 28.4996 47.4413C27.5439 46.8286 26.4528 46.5134 25.3574 46.4938C25.3416 46.4924 25.3258 46.4914 25.3099 46.4907C25.2903 46.4897 25.2707 46.4894 25.2509 46.4893C25.2291 46.4893 25.2072 46.4897 25.1853 46.4908C25.1707 46.4915 25.1562 46.4925 25.1417 46.4938C24.046 46.5133 22.9546 46.8284 21.9985 47.4414C21.1538 47.9828 20.1551 48.1382 19.1857 47.8785C18.2164 47.6188 17.4289 46.9849 16.968 46.0935C15.9336 44.0925 13.8545 42.8364 11.6161 42.8364C11.5236 42.8364 11.4308 42.8387 11.3378 42.843C10.3357 42.8906 9.39264 42.5244 8.68325 41.8149C7.97361 41.1053 7.6086 40.1625 7.65522 39.1602C7.76423 36.8173 6.48832 34.6074 4.40476 33.5301C3.51337 33.0693 2.87947 32.2819 2.61972 31.3127C2.35996 30.3434 2.51521 29.3443 3.05673 28.4996C4.32276 26.5249 4.32276 23.9731 3.05673 21.9984C2.51509 21.1536 2.35996 20.1546 2.61972 19.1853C2.87947 18.2161 3.51337 17.4285 4.40476 16.9678C6.48832 15.8906 7.76423 13.6807 7.65522 11.3378C7.6086 10.3354 7.97361 9.39258 8.68325 8.68306C9.39277 7.97341 10.3369 7.60803 11.3378 7.65503C13.6813 7.76278 15.8908 6.48812 16.968 4.40457C17.4289 3.51305 18.2164 2.87915 19.1857 2.61952C20.1547 2.35989 21.154 2.51502 21.9986 3.05666C23.9733 4.32257 26.525 4.32257 28.4996 3.05666C28.4996 3.05666 28.4996 3.05666 28.4998 3.05653C29.3443 2.51515 30.3433 2.35977 31.3126 2.61952C32.2819 2.87915 33.0694 3.51305 33.5303 4.40444C34.6074 6.48825 36.8181 7.76403 39.1604 7.65503C40.1628 7.60803 41.1056 7.97354 41.815 8.68306C42.5246 9.3927 42.8896 10.3355 42.843 11.3378C42.734 13.6807 44.0099 15.8906 46.0935 16.9679C46.9849 17.4287 47.6188 18.2161 47.8785 19.1853C48.1383 20.1546 47.983 21.1536 47.4415 21.9984C46.1755 23.9731 46.1755 26.5249 47.4415 28.4996Z"/>
</mask>
<path d="M49.5462 23.3478C50.4587 21.9244 50.7311 20.1715 50.2935 18.5383C49.8558 16.9053 48.7436 15.5232 47.2416 14.747C46.0229 14.1168 45.2766 12.8243 45.3405 11.4539C45.419 9.76496 44.7785 8.11067 43.5829 6.91501C42.3874 5.7196 40.7325 5.07971 39.0442 5.15746C37.674 5.22122 36.3811 4.47482 35.7511 3.25629C34.9747 1.75425 33.5927 0.641971 31.9596 0.204459C30.3266 -0.233302 28.5735 0.039205 27.1502 0.951729C25.9952 1.692 24.5025 1.69225 23.3478 0.951729C21.9245 0.03933 20.1713 -0.233177 18.5385 0.204459C16.9053 0.641971 15.5234 1.75425 14.7469 3.25629C14.1169 4.47495 12.8226 5.22184 11.4538 5.15746C9.76503 5.07996 8.11074 5.71948 6.91508 6.91501C5.71955 8.11054 5.07903 9.76496 5.15753 11.4539C5.22129 12.8243 4.47502 14.1168 3.25636 14.747C1.75444 15.5232 0.64204 16.9053 0.204404 18.5383C-0.233108 20.1714 0.0391497 21.9244 0.951674 23.3478C1.69219 24.5027 1.69219 25.9953 0.951674 27.1502C0.0391497 28.5736 -0.233233 30.3265 0.204404 31.9597C0.64204 33.5927 1.75432 34.9747 3.25623 35.751C4.47502 36.3812 5.22129 37.6737 5.15741 39.0441C5.07891 40.733 5.71942 42.3873 6.91495 43.583C8.08161 44.7496 9.6854 45.3853 11.3317 45.3429L5.10666 56.1249C4.8539 56.5628 4.88978 57.1098 5.19754 57.511C5.50529 57.912 6.02443 58.0878 6.51282 57.9573L13.5018 56.0847L15.3747 63.0735C15.5056 63.5619 15.9177 63.9234 16.419 63.9893C16.4737 63.9965 16.5283 64 16.5825 64C17.0247 64 17.4395 63.765 17.6646 63.375L25.2489 50.2385L32.8333 63.375C33.0585 63.765 33.4732 64 33.9154 64C33.9697 64 34.0243 63.9965 34.0789 63.9893C34.5802 63.9234 34.9923 63.5619 35.1232 63.0735L36.9959 56.0845L43.9848 57.9572C44.4731 58.0881 44.9922 57.912 45.3001 57.5108C45.6078 57.1097 45.6437 56.5627 45.391 56.1248L39.166 45.3428C40.8126 45.386 42.4161 44.7494 43.5828 43.5828C44.7783 42.3873 45.4188 40.7329 45.3403 39.044C45.2766 37.6736 46.0229 36.381 47.2415 35.7509C48.7434 34.9746 49.8558 33.5926 50.2935 31.9595C50.731 30.3265 50.4587 28.5735 49.5462 27.15C48.8057 25.9953 48.8057 24.5028 49.5462 23.3478ZM17.0085 59.5114L15.5933 54.2301C15.5074 53.9097 15.298 53.6369 15.0109 53.4711C14.7239 53.3054 14.3829 53.2603 14.0624 53.3462L8.781 54.7614L13.7891 46.0869C14.181 46.3934 14.5105 46.7843 14.7469 47.2416C15.5233 48.7436 16.9053 49.8559 18.5384 50.2934C19.0495 50.4304 19.5724 50.4978 20.0932 50.4978C20.9197 50.4978 21.7408 50.3271 22.502 49.9963L17.0085 59.5114ZM36.4356 53.3462C36.1151 53.2602 35.7741 53.3052 35.4871 53.4711C35.1999 53.6369 34.9904 53.9099 34.9047 54.2301L33.4895 59.5114L27.9964 49.9969C29.237 50.5362 30.6376 50.6477 31.9596 50.2933C33.5928 49.8558 34.9747 48.7435 35.7512 47.2414C35.9875 46.7844 36.3174 46.394 36.7096 46.0879L41.7171 54.7613L36.4356 53.3462ZM47.4415 28.4996C47.9832 29.3443 48.1383 30.3434 47.8785 31.3127C47.6188 32.2819 46.9849 33.0694 46.0935 33.5302C44.0099 34.6074 42.734 36.8173 42.843 39.1602C42.8896 40.1626 42.5246 41.1054 41.815 41.8149C41.1055 42.5246 40.1616 42.8905 39.1604 42.843C36.8179 42.7367 34.6074 44.01 33.5303 46.0934C33.0694 46.9849 32.2819 47.6188 31.3126 47.8785C30.3434 48.1381 29.3444 47.983 28.4996 47.4413C27.5439 46.8286 26.4528 46.5134 25.3574 46.4938C25.3416 46.4924 25.3258 46.4914 25.3099 46.4907C25.2903 46.4897 25.2707 46.4894 25.2509 46.4893C25.2291 46.4893 25.2072 46.4897 25.1853 46.4908C25.1707 46.4915 25.1562 46.4925 25.1417 46.4938C24.046 46.5133 22.9546 46.8284 21.9985 47.4414C21.1538 47.9828 20.1551 48.1382 19.1857 47.8785C18.2164 47.6188 17.4289 46.9849 16.968 46.0935C15.9336 44.0925 13.8545 42.8364 11.6161 42.8364C11.5236 42.8364 11.4308 42.8387 11.3378 42.843C10.3357 42.8906 9.39264 42.5244 8.68325 41.8149C7.97361 41.1053 7.6086 40.1625 7.65522 39.1602C7.76423 36.8173 6.48832 34.6074 4.40476 33.5301C3.51337 33.0693 2.87947 32.2819 2.61972 31.3127C2.35996 30.3434 2.51521 29.3443 3.05673 28.4996C4.32276 26.5249 4.32276 23.9731 3.05673 21.9984C2.51509 21.1536 2.35996 20.1546 2.61972 19.1853C2.87947 18.2161 3.51337 17.4285 4.40476 16.9678C6.48832 15.8906 7.76423 13.6807 7.65522 11.3378C7.6086 10.3354 7.97361 9.39258 8.68325 8.68306C9.39277 7.97341 10.3369 7.60803 11.3378 7.65503C13.6813 7.76278 15.8908 6.48812 16.968 4.40457C17.4289 3.51305 18.2164 2.87915 19.1857 2.61952C20.1547 2.35989 21.154 2.51502 21.9986 3.05666C23.9733 4.32257 26.525 4.32257 28.4996 3.05666C28.4996 3.05666 28.4996 3.05666 28.4998 3.05653C29.3443 2.51515 30.3433 2.35977 31.3126 2.61952C32.2819 2.87915 33.0694 3.51305 33.5303 4.40444C34.6074 6.48825 36.8181 7.76403 39.1604 7.65503C40.1628 7.60803 41.1056 7.97354 41.815 8.68306C42.5246 9.3927 42.8896 10.3355 42.843 11.3378C42.734 13.6807 44.0099 15.8906 46.0935 16.9679C46.9849 17.4287 47.6188 18.2161 47.8785 19.1853C48.1383 20.1546 47.983 21.1536 47.4415 21.9984C46.1755 23.9731 46.1755 26.5249 47.4415 28.4996Z" fill="url(#paint0_linear_827_386)" stroke="white" stroke-width="0.6" mask="url(#path-1-inside-1_827_386)"/>
<path d="M25.2407 17.0591C26.0349 15.726 27.6696 15.1432 29.1274 15.6733C30.7711 16.2708 31.65 18.1049 31.0854 19.7603L30.4507 21.6206L30.3833 21.8188H32.2017C34.3578 21.819 36.1117 23.5738 36.1118 25.73V31.1089C36.1118 33.2649 34.3578 35.0198 32.2017 35.02H25.7915C24.5006 35.02 23.237 34.7507 22.0698 34.2358L21.9692 34.1909L21.897 34.2739C21.4973 34.7304 20.9126 35.02 20.2612 35.02H16.561C15.4367 35.0198 14.5085 34.1614 14.397 33.0659L14.3862 32.8442V22.605C14.3862 21.4055 15.3625 20.4292 16.562 20.4292H20.2612C20.7171 20.4292 21.1406 20.5703 21.4907 20.811L21.5737 20.8687L21.6577 20.813C23.1118 19.8505 24.3482 18.5572 25.2407 17.0591ZM16.5854 32.8198H20.2368V22.6294H16.5854V32.8198ZM28.3755 17.7407C27.9084 17.5715 27.3847 17.758 27.1304 18.1851C26.0262 20.0383 24.4796 21.6294 22.6587 22.7866L22.5063 22.8843L22.437 22.9282V31.9673L22.5171 32.0093C23.5244 32.5402 24.6438 32.8198 25.7915 32.8198H32.2017C33.1448 32.8196 33.9115 32.0522 33.9116 31.1089V25.73C33.9116 24.7868 33.145 24.0192 32.2017 24.019H28.1743C27.567 24.0189 27.0748 23.5267 27.0747 22.9194C27.0747 22.3819 27.4609 21.9349 27.9712 21.8394L28.0571 21.8228L28.0854 21.7397L29.0034 19.0503C29.1845 18.5192 28.9028 17.9324 28.3755 17.7407Z" fill="url(#paint1_linear_827_386)" stroke="white" stroke-width="0.3"/>
<path d="M25.2485 6.89917C35.3667 6.89917 43.5989 15.1307 43.5991 25.2488C43.5991 35.3671 35.3668 43.5994 25.2485 43.5994C15.1305 43.5991 6.89893 35.3669 6.89893 25.2488C6.899 22.4001 7.53406 19.6699 8.78662 17.1335C9.05562 16.5894 9.7144 16.3662 10.2593 16.6345C10.8041 16.9036 11.0281 17.5634 10.7593 18.1082C9.65759 20.3392 9.09814 22.7426 9.09814 25.2498C9.09834 34.1549 16.3433 41.3999 25.2485 41.4001C34.154 41.4001 41.3997 34.155 41.3999 25.2498C41.3999 16.3443 34.1541 9.09937 25.2485 9.09937C22.7414 9.09944 20.3386 9.65803 18.1079 10.7595C17.563 11.0287 16.9032 10.8041 16.6343 10.2595C16.3657 9.71487 16.589 9.05589 17.1333 8.78687C19.6695 7.53418 22.3999 6.89924 25.2485 6.89917Z" fill="url(#paint2_linear_827_386)" stroke="white" stroke-width="0.3"/>
<path d="M13.0513 11.9515C13.3401 11.9515 13.6242 12.0695 13.8286 12.2738C14.033 12.4782 14.1509 12.7622 14.1509 13.0511C14.1509 13.3401 14.033 13.6241 13.8286 13.8285C13.6242 14.0329 13.3402 14.1508 13.0513 14.1508C12.7624 14.1508 12.4783 14.0329 12.2739 13.8285C12.0695 13.6241 11.9517 13.3401 11.9517 13.0511C11.9517 12.7622 12.0695 12.4782 12.2739 12.2738C12.4783 12.0694 12.7624 11.9515 13.0513 11.9515Z" fill="url(#paint3_linear_827_386)" stroke="white" stroke-width="0.3"/>
<defs>
<linearGradient id="paint0_linear_827_386" x1="25.2489" y1="0" x2="25.2489" y2="64" gradientUnits="userSpaceOnUse">
<stop stop-color="#FCCA5D"/>
<stop offset="1" stop-color="#C9A14A"/>
</linearGradient>
<linearGradient id="paint1_linear_827_386" x1="25.249" y1="15.3286" x2="25.249" y2="35.1695" gradientUnits="userSpaceOnUse">
<stop stop-color="#FCCA5D"/>
<stop offset="1" stop-color="#C9A14A"/>
</linearGradient>
<linearGradient id="paint2_linear_827_386" x1="25.249" y1="6.74878" x2="25.249" y2="43.7497" gradientUnits="userSpaceOnUse">
<stop stop-color="#FCCA5D"/>
<stop offset="1" stop-color="#C9A14A"/>
</linearGradient>
<linearGradient id="paint3_linear_827_386" x1="13.0513" y1="11.8011" x2="13.0513" y2="14.3011" gradientUnits="userSpaceOnUse">
<stop stop-color="#FCCA5D"/>
<stop offset="1" stop-color="#C9A14A"/>
</linearGradient>
</defs>
</svg>
