<svg width="66" height="64" viewBox="0 0 66 64" fill="none" xmlns="http://www.w3.org/2000/svg">
<path d="M42.6788 30.665C42.0103 30.665 41.3418 30.4532 40.7587 30.0296C39.5933 29.1826 39.1274 27.7492 39.5729 26.3782L40.3536 23.9736C40.5021 23.5167 40.341 23.0199 39.9519 22.7377L37.9069 21.2515C36.7405 20.4046 36.2747 18.9716 36.7204 17.6006C37.166 16.2294 38.3854 15.3434 39.827 15.3434H42.3547C42.835 15.3434 43.2577 15.0362 43.4064 14.5791L44.1879 12.175C44.6326 10.804 45.8522 9.91821 47.2938 9.91821C48.7352 9.91821 49.9548 10.804 50.3995 12.175L51.1812 14.5795C51.3295 15.0365 51.7517 15.3434 52.2327 15.3434H54.7604C56.2019 15.3434 57.4215 16.2291 57.867 17.6001C58.3118 18.9711 57.846 20.4047 56.6796 21.2515L55.7386 21.9359C55.2559 22.2867 54.579 22.1803 54.2296 21.6979C53.8785 21.2152 53.9849 20.5396 54.4676 20.189L55.4096 19.504C56.0129 19.0656 55.8703 18.4469 55.8122 18.2676C55.754 18.0882 55.5058 17.5038 54.7605 17.5038H52.2328C50.8124 17.5038 49.5642 16.5966 49.1262 15.2466L48.3454 12.8426C48.1151 12.1341 47.4821 12.0788 47.2939 12.0788C47.1057 12.0788 46.4726 12.1341 46.2422 12.8426L45.4606 15.2472C45.0218 16.597 43.7735 17.5039 42.3548 17.5039H39.8271C39.081 17.5039 38.8339 18.0888 38.7756 18.2682C38.7174 18.4475 38.5739 19.0657 39.1765 19.5038L41.2223 20.99C42.3709 21.8247 42.847 23.2923 42.4082 24.6418L41.6276 27.046C41.3981 27.7548 41.8775 28.1714 42.0293 28.2819C42.1811 28.3925 42.7265 28.7187 43.329 28.2819L45.3748 26.7957C45.8558 26.4447 46.5327 26.5523 46.8838 27.0345C47.2339 27.5172 47.1269 28.1928 46.6441 28.5436L44.5983 30.0297C44.0147 30.4532 43.3464 30.665 42.6788 30.665Z" fill="url(#paint0_linear_827_405)"/>
<path d="M52.8064 40.6859C52.2308 40.6859 51.6552 40.5037 51.153 40.1392C50.1495 39.4094 49.7479 38.1756 50.1318 36.9953L50.7513 35.09C50.8382 34.8215 50.7427 34.5287 50.5141 34.362L48.8938 33.1847C47.8893 32.4551 47.4886 31.2211 47.8717 30.0408C48.2556 28.8605 49.3057 28.098 50.5463 28.098H52.55C52.8326 28.098 53.0817 27.917 53.1695 27.6473L53.7881 25.7428C54.1713 24.5625 55.2212 23.7996 56.4618 23.7996C57.7033 23.7996 58.7532 24.5625 59.1364 25.7428L59.7549 27.6477C59.8427 27.9169 60.0916 28.098 60.3753 28.098H62.3781C63.6196 28.098 64.6686 28.8605 65.0527 30.0408C65.4359 31.2207 65.035 32.4551 64.0307 33.1847L62.4103 34.362C62.1815 34.5283 62.0871 34.8211 62.174 35.09L62.7926 36.9953C63.1767 38.1756 62.7757 39.4098 61.7714 40.1392C60.7669 40.8683 59.4707 40.8683 58.4664 40.1392L56.8461 38.9617C56.6164 38.7956 56.3093 38.7956 56.0796 38.9617L54.4593 40.1392C53.9566 40.5037 53.382 40.6859 52.8064 40.6859ZM50.5461 30.2588C50.1192 30.2588 49.9707 30.5735 49.9266 30.7091C49.8827 30.8442 49.8178 31.1859 50.1631 31.437L51.7834 32.6144C52.7716 33.3322 53.1826 34.5957 52.8064 35.7573L52.186 37.6633C52.0545 38.0688 52.3077 38.3073 52.4232 38.3908C52.5388 38.4752 52.8426 38.6427 53.1895 38.3912L54.8099 37.2139C55.7966 36.496 57.1249 36.4957 58.1149 37.2135L59.7352 38.3912C60.0821 38.6414 60.3859 38.4739 60.5006 38.3912C60.6164 38.3076 60.8695 38.0691 60.7378 37.6629L60.1192 35.758C59.741 34.5962 60.1513 33.3329 61.1404 32.6143L62.7609 31.4369C63.106 31.1858 63.0411 30.844 62.9972 30.7085C62.9533 30.5731 62.8048 30.2587 62.3777 30.2587H60.3749C59.1528 30.2587 58.0784 29.4779 57.7003 28.3159L57.0816 26.4106C56.9491 26.0042 56.604 25.9603 56.4614 25.9603C56.3196 25.9603 55.9743 26.0042 55.8419 26.4106L55.2234 28.3154C54.8453 29.4779 53.7709 30.2587 52.5497 30.2587H50.5461V30.2588Z" fill="url(#paint1_linear_827_405)"/>
<path d="M22.5168 30.6651C21.8484 30.6651 21.1809 30.4532 20.5976 30.0296L18.5518 28.5434C18.0699 28.1927 17.9627 27.5171 18.3138 27.0344C18.6641 26.5525 19.3383 26.4453 19.8228 26.7956L21.8678 28.2818C22.4695 28.7195 23.0139 28.3923 23.1675 28.2818C23.3195 28.1708 23.7987 27.7543 23.5691 27.0458L22.7876 24.6413C22.3488 23.2917 22.8256 21.8241 23.9742 20.9899L26.0183 19.5037C26.6215 19.0656 26.479 18.447 26.4209 18.2678C26.3626 18.0884 26.1145 17.504 25.3692 17.504H22.8406C21.422 17.504 20.1736 16.597 19.7349 15.2476L18.9541 12.8426C18.7238 12.1342 18.0908 12.0788 17.9017 12.0788C17.7137 12.0788 17.0805 12.1342 16.8502 12.8431L16.0694 15.247C15.6306 16.5969 14.3823 17.5038 12.9637 17.5038H10.4354C9.69012 17.5038 9.44194 18.0883 9.3837 18.2676C9.3256 18.447 9.1829 19.0656 9.78545 19.5036L10.7282 20.1884C11.2109 20.5392 11.318 21.2147 10.9678 21.6975C10.6168 22.1798 9.94235 22.2879 9.45889 21.9364L8.51616 21.2514C7.34974 20.4044 6.88396 18.971 7.32874 17.6C7.77438 16.229 8.99383 15.3432 10.4354 15.3432H12.964C13.4441 15.3432 13.867 15.0361 14.0156 14.579L14.7962 12.1749C15.2419 10.8039 16.4613 9.91809 17.902 9.91809C19.3435 9.91809 20.5631 10.8039 21.0088 12.1746L21.7894 14.5794C21.9379 15.0361 22.3608 15.3432 22.8411 15.3432H25.3696C26.8112 15.3432 28.0308 16.229 28.4763 17.6C28.9209 18.971 28.4551 20.4046 27.2887 21.2514L25.2446 22.7376C24.8555 23.0199 24.6934 23.5166 24.842 23.9732L25.6236 26.3781C26.0693 27.7491 25.6033 29.1821 24.4371 30.0295C23.8545 30.4532 23.1853 30.6651 22.5168 30.6651Z" fill="url(#paint2_linear_827_405)"/>
<path d="M5.07794 40.6859C4.50234 40.6859 3.92673 40.5037 3.42458 40.1391C2.42115 39.4094 2.0194 38.1756 2.40333 36.9953L3.02283 35.09C3.1099 34.8212 3.01443 34.5283 2.78566 34.3625L1.16519 33.1848C0.160892 32.4552 -0.239988 31.2213 0.143217 30.0409C0.527291 28.8606 1.57708 28.0981 2.81768 28.0981H4.82136C5.10402 28.0981 5.35292 27.9171 5.44086 27.6474L6.05935 25.7429C6.44342 24.5623 7.49336 23.7997 8.73396 23.7997C9.97543 23.8001 11.0245 24.5631 11.4076 25.7429L12.0262 27.6478C12.114 27.917 12.363 28.0981 12.6466 28.0981H14.6494C15.8908 28.0981 16.9399 28.8606 17.324 30.0409C17.707 31.2208 17.3062 32.4552 16.3019 33.1848L14.6815 34.3621C14.4528 34.5284 14.3583 34.8212 14.4452 35.0901L15.0637 36.9954C15.4478 38.1757 15.0469 39.41 14.0426 40.1393C13.0382 40.8685 11.7418 40.8685 10.7376 40.1393L9.11717 38.9618C8.88768 38.7957 8.58039 38.7957 8.3509 38.9618L6.73043 40.1393C6.22828 40.5037 5.65354 40.6859 5.07794 40.6859ZM2.43462 31.4368L4.05509 32.6143C5.04331 33.3313 5.45434 34.5946 5.07794 35.7571L4.45771 37.6632C4.32602 38.0687 4.57927 38.3071 4.69488 38.3906C4.81049 38.4751 5.1143 38.6425 5.46114 38.391L7.08162 37.2137C8.06911 36.4956 9.3991 36.4956 10.3866 37.2137L12.0071 38.391C12.3539 38.6412 12.6577 38.4738 12.7726 38.391C12.8884 38.3074 13.1415 38.069 13.0098 37.6627L12.3911 35.7579C12.013 34.5961 12.4232 33.3327 13.4124 32.6141L15.0327 31.4367C15.378 31.1856 15.3129 30.8438 15.2692 30.7084C15.2253 30.5729 15.0768 30.2585 14.6497 30.2585H12.6469C11.4248 30.2585 10.3504 29.4778 9.97239 28.3157L9.35375 26.4104C9.22119 26.004 8.87696 25.9601 8.73425 25.9601C8.59155 25.9601 8.24644 26.004 8.11388 26.4108L7.49525 28.3151C7.11711 29.4776 6.04283 30.2584 4.82165 30.2584H2.81797C2.39087 30.2584 2.24237 30.5731 2.19847 30.7087C2.15443 30.844 2.08952 31.1859 2.43462 31.4368Z" fill="url(#paint3_linear_827_405)"/>
<path d="M28.0773 26.8141C27.743 26.8141 27.4139 26.6596 27.2021 26.3688C26.8519 25.8861 26.959 25.2105 27.4417 24.8598L30.2193 22.8423C31.6075 21.8321 33.5843 21.8301 34.9776 22.842L37.7542 24.8599C38.2369 25.2107 38.3441 25.8862 37.9938 26.369C37.6428 26.8517 36.9676 26.9585 36.4849 26.6077L33.7083 24.5903C33.0575 24.1189 32.1368 24.1194 31.4895 24.5899L28.7111 26.6077C28.5194 26.747 28.2975 26.8141 28.0773 26.8141Z" fill="url(#paint4_linear_827_405)"/>
<path d="M42.7361 9.52695H39.3037C37.5448 9.52695 35.9978 8.40284 35.4544 6.72963L34.3934 3.46478C34.0812 2.50307 33.2608 2.16044 32.5982 2.16044C31.935 2.16044 31.1154 2.50307 30.8023 3.46522L29.7414 6.72963C29.1988 8.40284 27.6518 9.52695 25.8921 9.52695H22.4596C21.8629 9.52695 21.3794 9.04335 21.3794 8.44673C21.3794 7.85012 21.863 7.36652 22.4596 7.36652H25.8921C26.7124 7.36652 27.434 6.84249 27.6863 6.06261L28.7479 2.79732C29.3008 1.09804 30.8115 0 32.5981 0C34.3847 0 35.8964 1.09804 36.4475 2.79732L37.5083 6.06232C37.7625 6.84249 38.4831 7.36652 39.3035 7.36652H42.736C43.3328 7.36652 43.8164 7.85027 43.8164 8.44673C43.8165 9.04335 43.3329 9.52695 42.7361 9.52695Z" fill="url(#paint5_linear_827_405)"/>
<path d="M24.6971 62.3332C24.1003 62.3332 23.6167 61.8494 23.6167 61.253V55.4227C23.6167 54.826 24.1003 54.3425 24.6971 54.3425C25.2937 54.3425 25.7773 54.8261 25.7773 55.4227V61.253C25.7774 61.8494 25.2937 62.3332 24.6971 62.3332Z" fill="url(#paint6_linear_827_405)"/>
<path d="M40.4997 62.3332C39.9029 62.3332 39.4194 61.8494 39.4194 61.253V55.4227C39.4194 54.826 39.903 54.3425 40.4997 54.3425C41.0963 54.3425 41.5799 54.8261 41.5799 55.4227V61.253C41.58 61.8494 41.0964 62.3332 40.4997 62.3332Z" fill="url(#paint7_linear_827_405)"/>
<path d="M32.5985 44.0459C28.5533 44.0459 25.2627 40.7553 25.2627 36.7101C25.2627 32.6654 28.5533 29.3748 32.5985 29.3748C36.6437 29.3748 39.9343 32.6654 39.9343 36.7101C39.9343 40.7553 36.6437 44.0459 32.5985 44.0459ZM32.5985 31.5353C29.745 31.5353 27.4233 33.8566 27.4233 36.7101C27.4233 39.5637 29.745 41.8853 32.5985 41.8853C35.452 41.8853 37.7737 39.5635 37.7737 36.7101C37.7737 33.8566 35.4519 31.5353 32.5985 31.5353Z" fill="url(#paint8_linear_827_405)"/>
<path d="M32.5984 64C27.2586 64 22.1517 62.01 18.2196 58.397C17.9967 58.1923 17.8701 57.9041 17.8701 57.6014V54.4586C17.8701 49.7833 21.6739 45.98 26.3487 45.98H38.8471C43.5218 45.98 47.3258 49.7833 47.3258 54.4586V57.6014C47.3258 57.9041 47.1991 58.1923 46.9763 58.397C43.0443 62.0098 37.9373 64 32.5984 64ZM20.0307 57.119C23.5137 60.1667 27.9582 61.8393 32.5982 61.8393C37.2383 61.8393 41.682 60.1665 45.165 57.119V54.4584C45.165 50.9745 42.3309 48.1404 38.847 48.1404H26.3486C22.8647 48.1404 20.0306 50.9745 20.0306 54.4584V57.119H20.0307Z" fill="url(#paint9_linear_827_405)"/>
<path d="M32.598 63.9999C21.796 63.9999 12.7209 55.9118 11.4895 45.1865C11.422 44.5937 11.8472 44.0581 12.4397 43.9903C13.0295 43.9185 13.568 44.3468 13.6364 44.9401C14.7421 54.5744 22.8941 61.8394 32.598 61.8394C42.302 61.8394 50.4541 54.5744 51.5588 44.9401C51.6262 44.3472 52.1613 43.9201 52.7555 43.9903C53.348 44.0582 53.7734 44.5937 53.7058 45.1865C52.4753 55.9116 43.4009 63.9999 32.598 63.9999Z" fill="url(#paint10_linear_827_405)"/>
<defs>
<linearGradient id="paint0_linear_827_405" x1="47.2934" y1="9.91821" x2="47.2934" y2="30.665" gradientUnits="userSpaceOnUse">
<stop stop-color="#FCCA5D"/>
<stop offset="1" stop-color="#C9A14A"/>
</linearGradient>
<linearGradient id="paint1_linear_827_405" x1="56.4622" y1="23.7996" x2="56.4622" y2="40.686" gradientUnits="userSpaceOnUse">
<stop stop-color="#FCCA5D"/>
<stop offset="1" stop-color="#C9A14A"/>
</linearGradient>
<linearGradient id="paint2_linear_827_405" x1="17.9025" y1="9.91809" x2="17.9025" y2="30.6651" gradientUnits="userSpaceOnUse">
<stop stop-color="#FCCA5D"/>
<stop offset="1" stop-color="#C9A14A"/>
</linearGradient>
<linearGradient id="paint3_linear_827_405" x1="8.73356" y1="23.7997" x2="8.73356" y2="40.6862" gradientUnits="userSpaceOnUse">
<stop stop-color="#FCCA5D"/>
<stop offset="1" stop-color="#C9A14A"/>
</linearGradient>
<linearGradient id="paint4_linear_827_405" x1="32.598" y1="22.0839" x2="32.598" y2="26.8143" gradientUnits="userSpaceOnUse">
<stop stop-color="#FCCA5D"/>
<stop offset="1" stop-color="#C9A14A"/>
</linearGradient>
<linearGradient id="paint5_linear_827_405" x1="32.5979" y1="0" x2="32.5979" y2="9.52695" gradientUnits="userSpaceOnUse">
<stop stop-color="#FCCA5D"/>
<stop offset="1" stop-color="#C9A14A"/>
</linearGradient>
<linearGradient id="paint6_linear_827_405" x1="24.697" y1="54.3425" x2="24.697" y2="62.3332" gradientUnits="userSpaceOnUse">
<stop stop-color="#FCCA5D"/>
<stop offset="1" stop-color="#C9A14A"/>
</linearGradient>
<linearGradient id="paint7_linear_827_405" x1="40.4997" y1="54.3425" x2="40.4997" y2="62.3332" gradientUnits="userSpaceOnUse">
<stop stop-color="#FCCA5D"/>
<stop offset="1" stop-color="#C9A14A"/>
</linearGradient>
<linearGradient id="paint8_linear_827_405" x1="32.5985" y1="29.3748" x2="32.5985" y2="44.0459" gradientUnits="userSpaceOnUse">
<stop stop-color="#FCCA5D"/>
<stop offset="1" stop-color="#C9A14A"/>
</linearGradient>
<linearGradient id="paint9_linear_827_405" x1="32.5979" y1="45.98" x2="32.5979" y2="64" gradientUnits="userSpaceOnUse">
<stop stop-color="#FCCA5D"/>
<stop offset="1" stop-color="#C9A14A"/>
</linearGradient>
<linearGradient id="paint10_linear_827_405" x1="32.5976" y1="43.9824" x2="32.5976" y2="63.9999" gradientUnits="userSpaceOnUse">
<stop stop-color="#FCCA5D"/>
<stop offset="1" stop-color="#C9A14A"/>
</linearGradient>
</defs>
</svg>
