<svg width="12" height="12" viewBox="0 0 12 12" fill="none" xmlns="http://www.w3.org/2000/svg">
<path d="M11.6508 5.21503L6.77343 0.329388C6.55396 0.109546 6.26671 -0.000234398 5.97914 3.75759e-07C5.71171 0.00092069 5.42578 0.11072 5.20546 0.330092L0.328819 5.21503C0.109584 5.43572 -4.68735e-06 5.72215 1.50369e-10 5.98979C4.68765e-06 6.27762 0.109594 6.56545 0.328828 6.78497L5.20618 11.6706C5.42578 11.9108 5.71171 12 6 12C6.28734 12 6.57468 11.8902 6.79382 11.6706L11.6712 6.78497C11.8904 6.56538 12 6.27762 12 5.98979C11.9789 5.72215 11.8898 5.43572 11.6508 5.21503ZM9.62109 5.91701L7.37109 7.88911C7.1182 8.1132 6.74929 7.91217 6.74929 7.60668V6.38656H5.2289L5.2289 7.51347C5.2289 7.92667 4.91249 8.26475 4.4789 8.26475C4.04531 8.26475 3.7289 7.92667 3.7289 7.51347V5.63528C3.7289 5.22208 4.0664 4.884 4.4789 4.884H6.70781V3.66318C6.70781 3.33802 7.09195 3.17039 7.32961 3.38074L9.57961 5.35285C9.70312 5.42398 9.7289 5.52728 9.7289 5.63528C9.7289 5.74327 9.70312 5.84658 9.62109 5.91701Z" fill="url(#paint0_linear_1196_85670)"/>
<defs>
<linearGradient id="paint0_linear_1196_85670" x1="6" y1="0" x2="6" y2="12" gradientUnits="userSpaceOnUse">
<stop stop-color="#FFDB79"/>
<stop offset="1" stop-color="#E4A600"/>
</linearGradient>
</defs>
</svg>
