<svg width="10" height="10" viewBox="0 0 10 10" fill="none" xmlns="http://www.w3.org/2000/svg">
<path d="M1.33333 0H7.33333C8.0625 0 8.66667 0.566406 8.66667 1.25V8.75C8.66667 9.45312 8.0625 10 7.33333 10H1.33333C0.583333 10 0 9.45312 0 8.75V1.25C0 0.566406 0.583333 0 1.33333 0ZM3.66667 5.625C2.72917 5.625 2.11186 6.32812 2.11186 7.1875C2.11186 7.36328 2.25769 7.5 2.44519 7.5H6.26622C6.43289 7.5 6.59955 7.36328 6.59955 7.1875C6.59955 6.32812 5.91667 5.625 5 5.625H3.66667ZM5.58166 3.75C5.58166 3.06641 5.0625 2.5 4.33333 2.5C3.58333 2.5 3.10962 3.06641 3.10962 3.75C3.10962 4.45312 3.58333 5 4.33333 5C5.0625 5 5.58166 4.45312 5.58166 3.75ZM10 1.5625V2.8125C10 2.98828 9.83333 3.125 9.66667 3.125C9.47917 3.125 9.33333 2.98828 9.33333 2.8125V2.1875V1.5625C9.33333 1.40625 9.47917 1.25 9.66667 1.25C9.83333 1.25 10 1.40625 10 1.5625ZM9.66667 3.75C9.83333 3.75 10 3.90625 10 4.0625V5.3125C10 5.48828 9.83333 5.625 9.66667 5.625C9.47917 5.625 9.33333 5.48828 9.33333 5.3125V4.0625C9.33333 3.90625 9.47917 3.75 9.66667 3.75ZM10 6.5625V7.8125C10 7.98828 9.83333 8.125 9.66667 8.125C9.47917 8.125 9.33333 7.98828 9.33333 7.8125V6.5625C9.33333 6.40625 9.47917 6.25 9.66667 6.25C9.83333 6.25 10 6.40625 10 6.5625Z" fill="url(#paint0_linear_1196_55039)"/>
<defs>
<linearGradient id="paint0_linear_1196_55039" x1="5" y1="0" x2="5" y2="10" gradientUnits="userSpaceOnUse">
<stop stop-color="#FFDB79"/>
<stop offset="1" stop-color="#E4A600"/>
</linearGradient>
</defs>
</svg>
