<svg width="13" height="12" viewBox="0 0 13 12" fill="none" xmlns="http://www.w3.org/2000/svg">
<path d="M6.28125 0C8.41406 0 10.3828 1.14844 11.4609 3C12.5391 4.875 12.5391 7.14844 11.4609 9C10.3828 10.875 8.41406 12 6.28125 12C4.125 12 2.15625 10.875 1.07812 9C0 7.14844 0 4.875 1.07812 3C2.15625 1.14844 4.125 0 6.28125 0ZM5.71875 2.8125V6C5.71875 6.1875 5.8125 6.375 5.95312 6.46875L8.20312 7.96875C8.46094 8.15625 8.8125 8.08594 9 7.82812C9.16406 7.57031 9.09375 7.21875 8.83594 7.03125L6.84375 5.71875V2.8125C6.84375 2.50781 6.58594 2.25 6.28125 2.25C5.95312 2.25 5.71875 2.50781 5.71875 2.8125Z" fill="url(#paint0_linear_1196_85673)"/>
<defs>
<linearGradient id="paint0_linear_1196_85673" x1="6.28125" y1="-3.5" x2="6.28125" y2="14.5" gradientUnits="userSpaceOnUse">
<stop stop-color="#FFDB79"/>
<stop offset="1" stop-color="#E4A600"/>
</linearGradient>
</defs>
</svg>
