<svg width="14" height="9" viewBox="0 0 14 9" fill="none" xmlns="http://www.w3.org/2000/svg">
<path d="M1.3125 0H12.6875C13.3984 0 14 0.515625 14 1.125C14 1.5 13.7812 1.82812 13.4531 2.03906L7.51953 5.85938C7.19141 6.07031 6.78125 6.07031 6.45312 5.85938L0.519531 2.03906C0.191406 1.82812 0 1.5 0 1.125C0 0.515625 0.574219 0 1.3125 0ZM0 2.625L5.93359 6.46875C6.5625 6.86719 7.41016 6.86719 8.03906 6.46875L14 2.625V7.5C14 8.34375 13.207 9 12.25 9H1.75C0.765625 9 0 8.34375 0 7.5V2.625Z" fill="url(#paint0_linear_1196_85672)"/>
<defs>
<linearGradient id="paint0_linear_1196_85672" x1="7" y1="0" x2="7" y2="9" gradientUnits="userSpaceOnUse">
<stop stop-color="#FFDB79"/>
<stop offset="1" stop-color="#E4A600"/>
</linearGradient>
</defs>
</svg>
