<svg width="16" height="19" viewBox="0 0 16 19" fill="none" xmlns="http://www.w3.org/2000/svg">
<path d="M5.20312 10.375C5.41406 10.375 5.625 10.1992 5.625 9.95312V8.54688C5.625 8.33594 5.41406 8.125 5.20312 8.125H3.79688C3.55078 8.125 3.375 8.33594 3.375 8.54688V9.95312C3.375 10.1992 3.55078 10.375 3.79688 10.375H5.20312ZM9 9.95312V8.54688C9 8.33594 8.78906 8.125 8.57812 8.125H7.17188C6.92578 8.125 6.75 8.33594 6.75 8.54688V9.95312C6.75 10.1992 6.92578 10.375 7.17188 10.375H8.57812C8.78906 10.375 9 10.1992 9 9.95312ZM12.375 9.95312V8.54688C12.375 8.33594 12.1641 8.125 11.9531 8.125H10.5469C10.3008 8.125 10.125 8.33594 10.125 8.54688V9.95312C10.125 10.1992 10.3008 10.375 10.5469 10.375H11.9531C12.1641 10.375 12.375 10.1992 12.375 9.95312ZM9 13.3281V11.9219C9 11.7109 8.78906 11.5 8.57812 11.5H7.17188C6.92578 11.5 6.75 11.7109 6.75 11.9219V13.3281C6.75 13.5742 6.92578 13.75 7.17188 13.75H8.57812C8.78906 13.75 9 13.5742 9 13.3281ZM5.625 13.3281V11.9219C5.625 11.7109 5.41406 11.5 5.20312 11.5H3.79688C3.55078 11.5 3.375 11.7109 3.375 11.9219V13.3281C3.375 13.5742 3.55078 13.75 3.79688 13.75H5.20312C5.41406 13.75 5.625 13.5742 5.625 13.3281ZM12.375 13.3281V11.9219C12.375 11.7109 12.1641 11.5 11.9531 11.5H10.5469C10.3008 11.5 10.125 11.7109 10.125 11.9219V13.3281C10.125 13.5742 10.3008 13.75 10.5469 13.75H11.9531C12.1641 13.75 12.375 13.5742 12.375 13.3281ZM15.75 4.1875C15.75 3.27344 14.9766 2.5 14.0625 2.5H12.375V0.671875C12.375 0.460938 12.1641 0.25 11.9531 0.25H10.5469C10.3008 0.25 10.125 0.460938 10.125 0.671875V2.5H5.625V0.671875C5.625 0.460938 5.41406 0.25 5.20312 0.25H3.79688C3.55078 0.25 3.375 0.460938 3.375 0.671875V2.5H1.6875C0.738281 2.5 0 3.27344 0 4.1875V16.5625C0 17.5117 0.738281 18.25 1.6875 18.25H14.0625C14.9766 18.25 15.75 17.5117 15.75 16.5625V4.1875ZM14.0625 16.3516C14.0625 16.4922 13.957 16.5625 13.8516 16.5625H1.89844C1.75781 16.5625 1.6875 16.4922 1.6875 16.3516V5.875H14.0625V16.3516Z" fill="#00274C"/>
<!-- Code injected by live-server -->
<script>
	// <![CDATA[  <-- For SVG support
	if ('WebSocket' in window) {
		(function () {
			function refreshCSS() {
				var sheets = [].slice.call(document.getElementsByTagName("link"));
				var head = document.getElementsByTagName("head")[0];
				for (var i = 0; i < sheets.length; ++i) {
					var elem = sheets[i];
					var parent = elem.parentElement || head;
					parent.removeChild(elem);
					var rel = elem.rel;
					if (elem.href && typeof rel != "string" || rel.length == 0 || rel.toLowerCase() == "stylesheet") {
						var url = elem.href.replace(/(&|\?)_cacheOverride=\d+/, '');
						elem.href = url + (url.indexOf('?') >= 0 ? '&' : '?') + '_cacheOverride=' + (new Date().valueOf());
					}
					parent.appendChild(elem);
				}
			}
			var protocol = window.location.protocol === 'http:' ? 'ws://' : 'wss://';
			var address = protocol + window.location.host + window.location.pathname + '/ws';
			var socket = new WebSocket(address);
			socket.onmessage = function (msg) {
				if (msg.data == 'reload') window.location.reload();
				else if (msg.data == 'refreshcss') refreshCSS();
			};
			if (sessionStorage && !sessionStorage.getItem('IsThisFirstTime_Log_From_LiveServer')) {
				console.log('Live reload enabled.');
				sessionStorage.setItem('IsThisFirstTime_Log_From_LiveServer', true);
			}
		})();
	}
	else {
		console.error('Upgrade your browser. This Browser is NOT supported WebSocket for Live-Reloading.');
	}
	// ]]>
</script>
<!-- Code injected by live-server -->
<script>
	// <![CDATA[  <-- For SVG support
	if ('WebSocket' in window) {
		(function () {
			function refreshCSS() {
				var sheets = [].slice.call(document.getElementsByTagName("link"));
				var head = document.getElementsByTagName("head")[0];
				for (var i = 0; i < sheets.length; ++i) {
					var elem = sheets[i];
					var parent = elem.parentElement || head;
					parent.removeChild(elem);
					var rel = elem.rel;
					if (elem.href && typeof rel != "string" || rel.length == 0 || rel.toLowerCase() == "stylesheet") {
						var url = elem.href.replace(/(&|\?)_cacheOverride=\d+/, '');
						elem.href = url + (url.indexOf('?') >= 0 ? '&' : '?') + '_cacheOverride=' + (new Date().valueOf());
					}
					parent.appendChild(elem);
				}
			}
			var protocol = window.location.protocol === 'http:' ? 'ws://' : 'wss://';
			var address = protocol + window.location.host + window.location.pathname + '/ws';
			var socket = new WebSocket(address);
			socket.onmessage = function (msg) {
				if (msg.data == 'reload') window.location.reload();
				else if (msg.data == 'refreshcss') refreshCSS();
			};
			if (sessionStorage && !sessionStorage.getItem('IsThisFirstTime_Log_From_LiveServer')) {
				console.log('Live reload enabled.');
				sessionStorage.setItem('IsThisFirstTime_Log_From_LiveServer', true);
			}
		})();
	}
	else {
		console.error('Upgrade your browser. This Browser is NOT supported WebSocket for Live-Reloading.');
	}
	// ]]>
</script>
<!-- Code injected by live-server -->
<script>
	// <![CDATA[  <-- For SVG support
	if ('WebSocket' in window) {
		(function () {
			function refreshCSS() {
				var sheets = [].slice.call(document.getElementsByTagName("link"));
				var head = document.getElementsByTagName("head")[0];
				for (var i = 0; i < sheets.length; ++i) {
					var elem = sheets[i];
					var parent = elem.parentElement || head;
					parent.removeChild(elem);
					var rel = elem.rel;
					if (elem.href && typeof rel != "string" || rel.length == 0 || rel.toLowerCase() == "stylesheet") {
						var url = elem.href.replace(/(&|\?)_cacheOverride=\d+/, '');
						elem.href = url + (url.indexOf('?') >= 0 ? '&' : '?') + '_cacheOverride=' + (new Date().valueOf());
					}
					parent.appendChild(elem);
				}
			}
			var protocol = window.location.protocol === 'http:' ? 'ws://' : 'wss://';
			var address = protocol + window.location.host + window.location.pathname + '/ws';
			var socket = new WebSocket(address);
			socket.onmessage = function (msg) {
				if (msg.data == 'reload') window.location.reload();
				else if (msg.data == 'refreshcss') refreshCSS();
			};
			if (sessionStorage && !sessionStorage.getItem('IsThisFirstTime_Log_From_LiveServer')) {
				console.log('Live reload enabled.');
				sessionStorage.setItem('IsThisFirstTime_Log_From_LiveServer', true);
			}
		})();
	}
	else {
		console.error('Upgrade your browser. This Browser is NOT supported WebSocket for Live-Reloading.');
	}
	// ]]>
</script>
</svg>
