<svg width="12" height="12" viewBox="0 0 12 12" fill="none" xmlns="http://www.w3.org/2000/svg">
<path d="M0.444938 0.5808L2.88038 0.0180463C3.13798 -0.0522978 3.41899 0.0883905 3.53608 0.346319L4.66013 2.9725C4.75381 3.20698 4.68355 3.46491 4.49621 3.62905L3.06773 4.80145C3.91077 6.5835 5.38609 8.08418 7.21267 8.95175L8.38356 7.52142C8.54748 7.33384 8.80508 7.26349 9.03926 7.35729L11.662 8.48279C11.9196 8.60003 12.0367 8.88141 11.9899 9.13934L11.4279 11.5779C11.3576 11.8359 11.1469 12 10.8658 12C4.87089 12 0 7.14625 0 1.1201C0 0.862176 0.187342 0.651144 0.444938 0.5808Z" fill="url(#paint0_linear_1196_85671)"/>
<defs>
<linearGradient id="paint0_linear_1196_85671" x1="6" y1="0" x2="6" y2="12" gradientUnits="userSpaceOnUse">
<stop stop-color="#FFDB79"/>
<stop offset="1" stop-color="#E4A600"/>
</linearGradient>
</defs>
</svg>
