<svg width="12" height="16" viewBox="0 0 12 16" fill="none" xmlns="http://www.w3.org/2000/svg">
<path d="M5.25938 15.6405C3.62813 13.629 0 8.7539 0 6.01557C0 2.69322 2.68625 0 6 0C9.3125 0 12 2.69322 12 6.01557C12 8.7539 8.34375 13.629 6.74062 15.6405C6.35625 16.1198 5.64375 16.1198 5.25938 15.6405ZM6 8.02076C7.10313 8.02076 8 7.12155 8 6.01557C8 4.90958 7.10313 4.01038 6 4.01038C4.89687 4.01038 4 4.90958 4 6.01557C4 7.12155 4.89687 8.02076 6 8.02076Z" fill="url(#paint0_linear_1196_85674)"/>
<defs>
<linearGradient id="paint0_linear_1196_85674" x1="6" y1="0" x2="6" y2="16" gradientUnits="userSpaceOnUse">
<stop stop-color="#FFDB79"/>
<stop offset="1" stop-color="#E4A600"/>
</linearGradient>
</defs>
</svg>
