<svg width="48" height="48" viewBox="0 0 48 48" fill="none" xmlns="http://www.w3.org/2000/svg">
<g clip-path="url(#clip0_1196_44402)">
<path d="M39.8696 19.5974C39.8771 19.5599 39.8696 19.5299 39.8696 19.4924C39.8696 19.4399 39.8621 19.3949 39.8471 19.3424C39.8396 19.3124 39.8321 19.2824 39.8246 19.2524C39.8171 19.2449 39.8171 19.2299 39.8171 19.2224C39.7871 19.1549 39.7496 19.0949 39.6971 19.0424L33.9821 12.6824C33.8471 12.5324 33.6446 12.4424 33.4421 12.4424H14.5646C14.3546 12.4424 14.1596 12.5324 14.0246 12.6824L8.31707 19.0349C8.26457 19.0949 8.21957 19.1549 8.18207 19.2299C8.17457 19.2449 8.17457 19.2599 8.16707 19.2749C8.15957 19.2899 8.15957 19.3049 8.15207 19.3199C8.12957 19.3874 8.12207 19.4624 8.12207 19.5299V19.5899C8.12957 19.6724 8.14457 19.7549 8.18207 19.8374C8.18207 19.8449 8.18957 19.8449 8.18957 19.8524C8.21957 19.9124 8.24957 19.9649 8.29457 20.0174L23.4446 36.8999C23.4596 36.9224 23.4896 36.9299 23.5046 36.9449C23.5421 36.9824 23.5871 37.0124 23.6321 37.0349C23.6696 37.0574 23.6996 37.0724 23.7371 37.0874C23.7971 37.1099 23.8571 37.1249 23.9246 37.1249C23.9471 37.1249 23.9696 37.1399 23.9921 37.1399C24.0071 37.1399 24.0296 37.1324 24.0446 37.1324C24.1196 37.1249 24.1871 37.1099 24.2546 37.0874C24.2846 37.0724 24.3146 37.0574 24.3371 37.0424C24.3896 37.0124 24.4421 36.9749 24.4871 36.9299C24.5021 36.9149 24.5171 36.9149 24.5321 36.8999L39.6296 20.0774C39.6296 20.0774 39.6296 20.0774 39.6296 20.0699L39.6746 20.0174C39.7046 19.9874 39.7196 19.9499 39.7421 19.9124C39.7721 19.8674 39.7946 19.8149 39.8171 19.7624C39.8471 19.6949 39.8621 19.6499 39.8696 19.5974ZM37.5221 18.7874H30.2471L28.0421 13.8899H33.1196L37.5221 18.7874ZM19.2296 20.2424H28.7546L23.9996 34.1474L19.2296 20.2424ZM19.3421 18.7874L21.5471 13.8899H26.4446L28.6496 18.7874H19.3421ZM14.8871 13.8824H19.9571L17.7521 18.7799H10.4846L14.8871 13.8824ZM17.6921 20.2424L22.1546 33.2549L10.4771 20.2424H17.6921ZM25.8446 33.2474L30.2996 20.2349H37.5221L25.8446 33.2474Z" fill="url(#paint0_linear_1196_44402)"/>
<path d="M24 4.245C24.405 4.245 24.7275 3.9225 24.7275 3.5175V0.7275C24.7275 0.3225 24.3975 0 24 0C23.595 0 23.2725 0.3225 23.2725 0.7275V3.5175C23.2725 3.915 23.595 4.245 24 4.245Z" fill="url(#paint1_linear_1196_44402)"/>
<path d="M13.1251 6.62251C13.2601 6.85501 13.5076 6.98252 13.7551 6.98252C13.8751 6.98252 14.0026 6.95252 14.1151 6.88502C14.4601 6.68252 14.5801 6.24002 14.3851 5.89502L12.9901 3.48001C12.7876 3.13501 12.3451 3.01501 12.0001 3.21751C11.6551 3.42001 11.5351 3.86251 11.7301 4.20751L13.1251 6.62251Z" fill="url(#paint2_linear_1196_44402)"/>
<path d="M3.47961 12.9975L5.89461 14.3925C6.00711 14.46 6.13461 14.49 6.25461 14.49C6.50961 14.49 6.74961 14.3625 6.88461 14.13C7.08711 13.785 6.96711 13.335 6.61461 13.14L4.19961 11.745C3.85461 11.535 3.41211 11.655 3.20961 12C3.01461 12.3525 3.13461 12.795 3.47961 12.9975Z" fill="url(#paint3_linear_1196_44402)"/>
<path d="M4.245 24C4.245 23.595 3.9225 23.2725 3.5175 23.2725H0.7275C0.3225 23.2725 0 23.6025 0 24C0 24.3975 0.3225 24.7275 0.7275 24.7275H3.5175C3.915 24.7275 4.245 24.405 4.245 24Z" fill="url(#paint4_linear_1196_44402)"/>
<path d="M5.89526 33.615L3.48026 35.01C3.13526 35.2125 3.01526 35.655 3.21776 36C3.35276 36.2325 3.60026 36.36 3.84776 36.36C3.96776 36.36 4.09526 36.33 4.20776 36.2625L6.62276 34.8675C6.96776 34.665 7.08776 34.2225 6.89276 33.8775C6.69026 33.5325 6.24776 33.4125 5.89526 33.615Z" fill="url(#paint5_linear_1196_44402)"/>
<path d="M14.122 41.115C13.7695 40.9125 13.327 41.0325 13.132 41.385L11.737 43.8C11.5345 44.145 11.6545 44.595 12.007 44.79C12.1195 44.8575 12.247 44.8874 12.367 44.8874C12.622 44.8874 12.862 44.76 12.997 44.5275L14.392 42.1125C14.587 41.76 14.4745 41.31 14.122 41.115Z" fill="url(#paint6_linear_1196_44402)"/>
<path d="M24 43.7549C23.595 43.7549 23.2725 44.0774 23.2725 44.4824V47.2724C23.2725 47.6774 23.595 47.9999 24 47.9999C24.405 47.9999 24.7275 47.6774 24.7275 47.2724V44.4824C24.7275 44.0849 24.405 43.7549 24 43.7549Z" fill="url(#paint7_linear_1196_44402)"/>
<path d="M34.8749 41.3776C34.6724 41.0326 34.2299 40.9126 33.8849 41.1076C33.5399 41.3101 33.4199 41.7526 33.6149 42.0976L35.0099 44.5126C35.1449 44.7451 35.3924 44.8726 35.6399 44.8726C35.7599 44.8726 35.8874 44.8426 35.9999 44.7751C36.3449 44.5726 36.4649 44.1301 36.2699 43.7851L34.8749 41.3776Z" fill="url(#paint8_linear_1196_44402)"/>
<path d="M44.52 35.0024L42.105 33.6074C41.7525 33.4049 41.31 33.5249 41.115 33.8774C40.9125 34.2224 41.0325 34.6724 41.385 34.8674L43.8 36.2624C43.9125 36.3299 44.04 36.3599 44.16 36.3599C44.415 36.3599 44.655 36.2324 44.79 35.9999C44.985 35.6474 44.865 35.2049 44.52 35.0024Z" fill="url(#paint9_linear_1196_44402)"/>
<path d="M47.2724 23.2725H44.4824C44.0774 23.2725 43.7549 23.595 43.7549 24C43.7549 24.405 44.0774 24.7275 44.4824 24.7275H47.2724C47.6774 24.7275 47.9999 24.405 47.9999 24C47.9999 23.595 47.6774 23.2725 47.2724 23.2725Z" fill="url(#paint10_linear_1196_44402)"/>
<path d="M41.7371 14.4826C41.8571 14.4826 41.9846 14.4526 42.0971 14.3851L44.5121 12.9901C44.8571 12.7876 44.9771 12.3451 44.7821 12.0001C44.5796 11.6551 44.1371 11.5351 43.7921 11.7301L41.3771 13.1251C41.0321 13.3276 40.9121 13.7701 41.1071 14.1151C41.2421 14.3476 41.4896 14.4826 41.7371 14.4826Z" fill="url(#paint11_linear_1196_44402)"/>
<path d="M33.8777 6.88499C33.9902 6.95249 34.1177 6.98249 34.2377 6.98249C34.4927 6.98249 34.7327 6.85499 34.8677 6.62249L36.2627 4.20749C36.4652 3.86249 36.3452 3.41249 35.9927 3.21749C35.6402 3.01499 35.1977 3.13499 35.0027 3.48749L33.6077 5.90249C33.4127 6.23999 33.5252 6.68999 33.8777 6.88499Z" fill="url(#paint12_linear_1196_44402)"/>
</g>
<defs>
<linearGradient id="paint0_linear_1196_44402" x1="23.9975" y1="12.4424" x2="23.9975" y2="37.1399" gradientUnits="userSpaceOnUse">
<stop stop-color="#FFDB79"/>
<stop offset="1" stop-color="#E4A600"/>
</linearGradient>
<linearGradient id="paint1_linear_1196_44402" x1="24" y1="0" x2="24" y2="4.245" gradientUnits="userSpaceOnUse">
<stop stop-color="#FFDB79"/>
<stop offset="1" stop-color="#E4A600"/>
</linearGradient>
<linearGradient id="paint2_linear_1196_44402" x1="13.0576" y1="3.1189" x2="13.0576" y2="6.98252" gradientUnits="userSpaceOnUse">
<stop stop-color="#FFDB79"/>
<stop offset="1" stop-color="#E4A600"/>
</linearGradient>
<linearGradient id="paint3_linear_1196_44402" x1="5.04959" y1="11.6411" x2="5.04959" y2="14.49" gradientUnits="userSpaceOnUse">
<stop stop-color="#FFDB79"/>
<stop offset="1" stop-color="#E4A600"/>
</linearGradient>
<linearGradient id="paint4_linear_1196_44402" x1="2.1225" y1="23.2725" x2="2.1225" y2="24.7275" gradientUnits="userSpaceOnUse">
<stop stop-color="#FFDB79"/>
<stop offset="1" stop-color="#E4A600"/>
</linearGradient>
<linearGradient id="paint5_linear_1196_44402" x1="5.05265" y1="33.5164" x2="5.05265" y2="36.36" gradientUnits="userSpaceOnUse">
<stop stop-color="#FFDB79"/>
<stop offset="1" stop-color="#E4A600"/>
</linearGradient>
<linearGradient id="paint6_linear_1196_44402" x1="13.0629" y1="41.0166" x2="13.0629" y2="44.8874" gradientUnits="userSpaceOnUse">
<stop stop-color="#FFDB79"/>
<stop offset="1" stop-color="#E4A600"/>
</linearGradient>
<linearGradient id="paint7_linear_1196_44402" x1="24" y1="43.7549" x2="24" y2="47.9999" gradientUnits="userSpaceOnUse">
<stop stop-color="#FFDB79"/>
<stop offset="1" stop-color="#E4A600"/>
</linearGradient>
<linearGradient id="paint8_linear_1196_44402" x1="34.9424" y1="41.0142" x2="34.9424" y2="44.8726" gradientUnits="userSpaceOnUse">
<stop stop-color="#FFDB79"/>
<stop offset="1" stop-color="#E4A600"/>
</linearGradient>
<linearGradient id="paint9_linear_1196_44402" x1="42.95" y1="33.509" x2="42.95" y2="36.3599" gradientUnits="userSpaceOnUse">
<stop stop-color="#FFDB79"/>
<stop offset="1" stop-color="#E4A600"/>
</linearGradient>
<linearGradient id="paint10_linear_1196_44402" x1="45.8774" y1="23.2725" x2="45.8774" y2="24.7275" gradientUnits="userSpaceOnUse">
<stop stop-color="#FFDB79"/>
<stop offset="1" stop-color="#E4A600"/>
</linearGradient>
<linearGradient id="paint11_linear_1196_44402" x1="42.9446" y1="11.6367" x2="42.9446" y2="14.4826" gradientUnits="userSpaceOnUse">
<stop stop-color="#FFDB79"/>
<stop offset="1" stop-color="#E4A600"/>
</linearGradient>
<linearGradient id="paint12_linear_1196_44402" x1="34.9369" y1="3.11914" x2="34.9369" y2="6.98249" gradientUnits="userSpaceOnUse">
<stop stop-color="#FFDB79"/>
<stop offset="1" stop-color="#E4A600"/>
</linearGradient>
<clipPath id="clip0_1196_44402">
<rect width="48" height="48" fill="white"/>
</clipPath>
</defs>
</svg>
