<svg width="49" height="48" viewBox="0 0 49 48" fill="none" xmlns="http://www.w3.org/2000/svg">
<path d="M23.5098 32.2842C23.7908 31.7512 24.6614 31.7512 24.9424 32.2842L27.2002 36.5977L32.0029 37.415C32.3001 37.4651 32.5421 37.6767 32.6357 37.9609C32.7294 38.2451 32.6552 38.5596 32.4453 38.7744L29.0391 42.2568L29.748 47.0742C29.79 47.3714 29.666 47.6687 29.4238 47.8447C29.1817 48.0239 28.8589 48.0479 28.5908 47.9141L24.2246 45.752L19.8613 47.9141C19.7484 47.9705 19.6256 48 19.5029 48C19.335 48 19.1679 47.9484 19.0273 47.8467C18.7852 47.6706 18.6595 47.3729 18.7031 47.0742L19.4102 42.2568L16.0059 38.7744C15.7962 38.5597 15.7219 38.2466 15.8154 37.9609C15.9091 37.6752 16.1512 37.4636 16.4482 37.415L21.252 36.5977L23.5098 32.2842ZM22.4971 37.6992C22.3792 37.9221 22.1641 38.0791 21.917 38.1211L18.2383 38.7471L20.8447 41.4141C21.0206 41.5949 21.1029 41.8471 21.0674 42.0957L20.5254 45.7822L23.8662 44.127C24.0907 44.0139 24.3592 44.0139 24.582 44.127L27.9219 45.7822L27.3789 42.0957C27.3434 41.8472 27.4242 41.5933 27.6016 41.4141L30.21 38.7471L26.5332 38.1211C26.2861 38.0791 26.071 37.9221 25.9531 37.6992L24.2246 34.3965L22.4971 37.6992ZM8.06055 29.7051C8.36239 29.7052 8.63495 29.873 8.77539 30.1377L10.6553 33.7295L14.6543 34.4111C14.9514 34.4612 15.1934 34.6728 15.2871 34.957C15.3807 35.2412 15.3066 35.5557 15.0967 35.7705L11.9814 38.9551C11.6731 39.2748 11.1613 39.2818 10.8398 38.9688C10.5217 38.6571 10.5155 38.1469 10.8271 37.8271L12.8652 35.7412L9.99219 35.252C9.74358 35.21 9.53004 35.0538 9.41211 34.8311L8.06152 32.25L6.70996 34.8311C6.59204 35.0538 6.37691 35.21 6.12988 35.252L3.25586 35.7412L5.29492 37.8271C5.47078 38.0079 5.55392 38.2593 5.51855 38.5078L5.09375 41.3896L7.70508 40.0957C7.92941 39.9844 8.19719 39.9845 8.41992 40.0957L12.4131 42.0742C12.8133 42.273 12.9763 42.7559 12.7793 43.1562C12.634 43.4404 12.3482 43.6054 12.0527 43.6055C11.9318 43.6055 11.8105 43.5779 11.6943 43.5215L8.06055 41.7207L4.4248 43.5225C4.1585 43.6548 3.83722 43.6295 3.5918 43.4521C3.34961 43.2762 3.2231 42.9787 3.2666 42.6816L3.85742 38.6699L1.02051 35.7705C0.81058 35.5557 0.73646 35.2429 0.830078 34.957C0.92375 34.6712 1.16573 34.4596 1.46289 34.4111L5.46289 33.7295L7.34473 30.1377C7.48523 29.8712 7.76177 29.7051 8.06055 29.7051ZM40.5254 29.7031C40.8274 29.7031 41.1007 29.8709 41.2412 30.1357L43.1211 33.7275L47.1211 34.4092C47.4182 34.4592 47.6602 34.671 47.7539 34.9551C47.8476 35.2393 47.7734 35.5547 47.5635 35.7695L44.7266 38.668L45.3174 42.6797C45.3594 42.9769 45.2344 43.2742 44.9922 43.4502C44.75 43.6277 44.4272 43.6551 44.1592 43.5195L40.5254 41.7188L36.8896 43.5195C36.7718 43.5792 36.6494 43.6055 36.5283 43.6055C36.2312 43.6055 35.9468 43.4405 35.8047 43.1562C35.6078 42.7559 35.7706 42.273 36.1709 42.0742L40.165 40.0957C40.3895 39.9843 40.658 39.9843 40.8809 40.0957L43.4902 41.3896L43.0654 38.5088C43.0299 38.2601 43.1114 38.0064 43.2891 37.8271L45.3281 35.7422L42.4541 35.252C42.207 35.21 41.9919 35.0539 41.874 34.8311L40.5234 32.25L39.1719 34.8311C39.054 35.0538 38.8388 35.21 38.5918 35.252L35.7188 35.7422L37.7568 37.8271C38.0685 38.1469 38.0623 38.6571 37.7441 38.9688C37.4244 39.2818 36.9126 39.2756 36.6025 38.9561L33.4873 35.7695C33.2774 35.5547 33.2032 35.2409 33.2969 34.9551C33.3906 34.6693 33.6326 34.4592 33.9297 34.4092L37.9287 33.7275L39.8096 30.1357C39.9501 29.8693 40.2267 29.7032 40.5254 29.7031ZM9.68945 4.03711C12.3607 4.03711 14.5352 6.21157 14.5352 8.88281V11.3047L14.5303 11.5186C14.53 11.5244 14.5286 11.5303 14.5283 11.5361C14.5264 11.5776 14.5225 11.6189 14.5195 11.6602C14.5171 11.6931 14.5148 11.726 14.5117 11.7588C14.5083 11.795 14.5052 11.8312 14.501 11.8672C14.4957 11.9116 14.4898 11.9559 14.4834 12C14.4775 12.0405 14.4717 12.0809 14.4648 12.1211C14.4604 12.1469 14.4551 12.1725 14.4502 12.1982C14.3909 12.5137 14.2997 12.8198 14.1797 13.1143C14.1704 13.1371 14.161 13.1599 14.1514 13.1826C14.1337 13.2241 14.1165 13.2657 14.0977 13.3066C13.8189 13.9167 13.4165 14.4623 12.9199 14.9092V16.875L15.457 17.9648C15.8672 18.1409 16.0559 18.6162 15.8799 19.0264C15.749 19.3331 15.4503 19.5156 15.1387 19.5156C15.0321 19.5156 14.9236 19.4944 14.8203 19.4492L12.0098 18.2422C11.6125 18.1918 11.3049 17.8532 11.3047 17.4424V15.8721C11.0979 15.9454 10.8845 16.0067 10.665 16.0518C10.6102 16.063 10.5568 16.0693 10.502 16.0693C10.1273 16.0693 9.79104 15.8059 9.71191 15.4248C9.62317 14.9873 9.90433 14.5606 10.3418 14.4717C10.7823 14.3806 11.1859 14.1982 11.5381 13.9502C11.5649 13.9232 11.5932 13.8972 11.624 13.874C12.2247 13.4194 12.6366 12.798 12.8164 12.1035C12.8564 11.9479 12.885 11.7887 12.9014 11.626C12.9039 11.601 12.9063 11.5759 12.9082 11.5508L12.9199 11.3047V10.3477C12.8871 10.3485 12.8543 10.3516 12.8213 10.3516C11.2127 10.3516 9.6751 9.79815 8.375 8.75C8.02946 8.47065 7.97434 7.96343 8.25195 7.61621C8.53458 7.26898 9.04369 7.21572 9.3877 7.49512C10.4244 8.32995 11.6549 8.78077 12.916 8.7373C12.9159 8.73373 12.9162 8.73013 12.916 8.72656C12.8956 8.30477 12.7932 7.90444 12.626 7.54004C12.3254 6.88499 11.813 6.34721 11.1758 6.01562C11.0026 5.92545 10.8205 5.84989 10.6309 5.79199C10.6137 5.78677 10.5964 5.78229 10.5791 5.77734C10.4472 5.73949 10.312 5.70934 10.1738 5.68848C10.0966 5.67682 10.0184 5.66817 9.93945 5.66211C9.90993 5.65984 9.88032 5.65772 9.85059 5.65625L9.68945 5.65234C9.63378 5.65235 9.57842 5.65345 9.52344 5.65625C7.81904 5.74303 6.45996 7.1572 6.45996 8.88281V11.3047C6.45996 12.314 6.93133 13.2506 7.75488 13.874C7.9567 14.0258 8.07414 14.2651 8.07422 14.5186V17.4434C8.07422 17.8706 7.7423 18.2197 7.32227 18.248L4.05371 19.668C2.57111 20.3027 1.61426 21.7541 1.61426 23.3691V25.6074C1.61426 25.9223 1.80042 26.2129 2.08789 26.3438L5.17871 27.749C5.58408 27.9331 5.76322 28.413 5.5791 28.8184C5.4434 29.1153 5.14983 29.291 4.84473 29.291C4.73342 29.291 4.61884 29.2687 4.51074 29.2188L1.41895 27.8135C0.556642 27.4194 0 26.5537 0 25.6074V23.3691C0 21.1049 1.34036 19.0696 3.41406 18.1846L6.45996 16.8623V14.8984C5.42796 13.9763 4.84473 12.6871 4.84473 11.3047V8.88281C4.84473 6.21165 7.0183 4.03724 9.68945 4.03711ZM38.7598 4.03906C41.431 4.03906 43.6054 6.21264 43.6055 8.88379V11.3047L43.6006 11.5186C43.6003 11.5244 43.5999 11.5303 43.5996 11.5361C43.5982 11.5662 43.5957 11.5961 43.5938 11.626C43.5903 11.6776 43.5861 11.729 43.5811 11.7803C43.5777 11.8142 43.5734 11.848 43.5693 11.8818C43.565 11.9177 43.5608 11.9536 43.5557 11.9893C43.4653 12.6251 43.2493 13.2288 42.9219 13.7734C42.67 14.1965 42.3562 14.5799 41.9902 14.9092V16.8633L45.0391 18.1865C47.1095 19.0699 48.4502 21.1049 48.4502 23.3691V25.6074C48.4502 26.5537 47.8934 27.4193 47.0312 27.8135L43.9395 29.2188C43.8313 29.2671 43.7168 29.291 43.6055 29.291C43.3002 29.291 43.0058 29.1155 42.8701 28.8184C42.686 28.413 42.8661 27.9331 43.2715 27.749L46.3623 26.3438C46.6497 26.2129 46.835 25.9239 46.835 25.6074V23.3691C46.835 21.7541 45.8791 20.3024 44.4014 19.6709L41.1221 18.2461C40.7048 18.215 40.3752 17.8675 40.375 17.4424V15.873C40.1684 15.9463 39.9547 16.0067 39.7354 16.0518C39.6806 16.063 39.627 16.0693 39.5723 16.0693C39.1977 16.0692 38.8623 15.8058 38.7832 15.4248C38.6944 14.9871 38.9754 14.5605 39.4131 14.4717C39.8537 14.3805 40.2572 14.1983 40.6094 13.9502C40.6361 13.9233 40.6645 13.8972 40.6953 13.874C41.2958 13.4194 41.7069 12.7979 41.8867 12.1035C41.9279 11.9436 41.9575 11.7797 41.9736 11.6123C41.9834 11.5107 41.9902 11.4081 41.9902 11.3047V8.88281C41.9902 7.10144 40.5411 5.65234 38.7598 5.65234C36.9786 5.6526 35.5303 7.1016 35.5303 8.88281V11.3047C35.5303 12.3139 36.0017 13.2506 36.8252 13.874C37.027 14.0258 37.1454 14.2651 37.1455 14.5186V17.4434C37.1455 17.8566 36.8341 18.1966 36.4336 18.2441L33.8672 19.3477C33.7639 19.3928 33.6569 19.414 33.5488 19.4141C33.2372 19.4141 32.9385 19.2315 32.8076 18.9248C32.6316 18.5162 32.8203 18.0393 33.2305 17.8633L35.5303 16.875V14.9004C34.4983 13.9782 33.9151 12.6891 33.915 11.3066V8.88379C33.9151 6.2128 36.0888 4.03932 38.7598 4.03906ZM24.2246 0C27.7874 0 30.6855 2.89723 30.6855 6.45996V8.88281C30.6855 12.4219 29.6122 14.6482 28.2627 15.9873V17.8154C28.2629 18.1544 28.4808 18.4583 28.8037 18.5713L35.541 20.9629C38.4319 21.9787 40.375 24.7327 40.375 27.8125V28.2646C40.3748 28.7102 40.013 29.0703 39.5674 29.0703C39.1218 29.0701 38.7598 28.7083 38.7598 28.2627V27.8125C38.7598 25.4175 37.2504 23.2751 35.0039 22.4854L28.3613 20.1289C27.8109 21.0813 26.5632 22.6103 24.2139 22.6104C22.0585 22.6104 20.7334 21.2572 20.1074 20.1523L13.4629 22.4844C11.6169 23.1417 10.2179 24.7386 9.8125 26.6523C9.73016 27.0398 9.68948 27.4355 9.68945 27.8262V28.2627C9.68941 28.71 9.32756 29.0703 8.88184 29.0703C8.43627 29.0701 8.07426 28.7083 8.07422 28.2627V27.8262C8.07425 27.3225 8.12847 26.8172 8.2334 26.3184C8.75343 23.8587 10.552 21.8072 12.9229 20.9609L19.6445 18.6035C19.9692 18.4905 20.1875 18.1849 20.1875 17.8457V15.9922C19.024 14.833 17.7647 12.6987 17.7646 8.88281V6.45996C17.7646 2.89734 20.662 0.000194473 24.2246 0ZM24.2246 1.61523C21.5535 1.61543 19.3799 3.78884 19.3799 6.45996V8.88281C19.38 11.6669 20.1246 13.7969 21.5312 15.042C21.7369 15.2238 21.8262 15.4868 21.7969 15.7402C21.7999 15.7688 21.8027 15.7978 21.8027 15.8271V17.8457C21.8027 18.3209 21.6605 18.772 21.4131 19.1543C21.6815 19.7128 22.4825 20.9932 24.2139 20.9932C25.9116 20.9931 26.7494 19.7443 27.0537 19.1523C26.7956 18.7646 26.6475 18.3026 26.6475 17.8154V17.1523C25.7722 17.5913 24.9061 17.7646 24.2246 17.7646C23.779 17.7645 23.417 17.4027 23.417 16.957C23.4172 16.5116 23.7792 16.1506 24.2246 16.1504C25.901 16.1504 29.0702 14.6319 29.0703 8.88281V7.48535C28.2325 7.79647 27.2953 7.93944 26.3408 7.93945C24.0442 7.93945 21.6538 7.12976 20.3359 5.94434C20.0035 5.6456 19.9759 5.13571 20.2744 4.80469C20.5732 4.47361 21.0888 4.44634 21.415 4.74512C22.9579 6.13115 26.5862 6.87625 28.7979 5.85547L29.0166 5.74609C28.6703 3.412 26.6534 1.61523 24.2246 1.61523Z" fill="url(#paint0_linear_1196_44331)"/>
<defs>
<linearGradient id="paint0_linear_1196_44331" x1="24.2251" y1="0" x2="24.2251" y2="48" gradientUnits="userSpaceOnUse">
<stop stop-color="#FFDB79"/>
<stop offset="1" stop-color="#E4A600"/>
</linearGradient>
</defs>
</svg>
