<svg width="49" height="48" viewBox="0 0 49 48" fill="none" xmlns="http://www.w3.org/2000/svg">
<path fill-rule="evenodd" clip-rule="evenodd" d="M23.2324 0.203161C23.7625 -0.0695439 24.3967 -0.0675028 24.9277 0.208044L45.7988 11.0752H46.6914C47.5009 11.0754 48.1592 11.7335 48.1592 12.543V15.9082C48.1592 16.7178 47.5009 17.3769 46.6914 17.377H45.2861V19.2276C45.2861 20.0371 44.6279 20.6953 43.8184 20.6953H43.3916V38.5537H43.5811C44.3907 38.5537 45.0498 39.2129 45.0498 40.0225V41.6973H46.6914C47.5009 41.6974 48.1592 42.3565 48.1592 43.1661V46.5313C48.1591 47.3408 47.5009 47.9989 46.6914 47.9991H36.9346C36.5422 47.999 36.2247 47.6815 36.2246 47.2891C36.2246 46.8967 36.5422 46.5782 36.9346 46.5782H46.6914C46.7169 46.578 46.7382 46.5569 46.7383 46.5313V43.1661C46.7383 43.1408 46.7166 43.1183 46.6914 43.1182H1.46777C1.44267 43.1185 1.4209 43.1409 1.4209 43.1661V46.5313C1.42093 46.5568 1.44232 46.5779 1.46777 46.5782H33.6191C34.0116 46.5782 34.3301 46.8967 34.3301 47.2891C34.33 47.6815 34.0116 47.9991 33.6191 47.9991H1.46777C0.658392 47.9988 3.14517e-05 47.3407 0 46.5313V43.1661C0 42.3566 0.658373 41.6975 1.46777 41.6973H2.87305V39.8477C2.87305 39.0382 3.53138 38.3801 4.34082 38.3799H4.76758V20.6953H4.34082C3.53139 20.6952 2.87306 20.037 2.87305 19.2276V17.377H1.46777C0.658373 17.3767 0 16.7177 0 15.9082V12.543C0 11.7336 0.658373 11.0755 1.46777 11.0752H2.03125L23.2324 0.203161ZM4.34082 39.7998C4.31484 39.8 4.29395 39.8218 4.29395 39.8477V41.6973H11.8721V39.8477C11.8721 39.8216 11.8504 39.7998 11.8242 39.7998H4.34082ZM13.293 17.377V19.2276C13.293 20.0372 12.6338 20.6953 11.8242 20.6953H11.3984V38.3789H11.8242C12.6338 38.3789 13.293 39.0381 13.293 39.8477V41.6973H16.1963V28.3584C16.1964 24.0116 19.733 20.4746 24.0801 20.4746C26.1849 20.4747 28.1645 21.2955 29.6543 22.7842C31.1434 24.2745 31.9638 26.2538 31.9639 28.3584V41.6973H35.1035V40.0225C35.1035 39.2635 35.6825 38.6369 36.4219 38.5616L36.5723 38.5537H36.7617V20.6953H36.335C35.5254 20.6953 34.8672 20.0371 34.8672 19.2276V17.377H13.293ZM24.0801 21.8955C20.5165 21.8955 17.6164 24.7949 17.6162 28.3584V41.6973H30.543V28.3584C30.5429 26.6331 29.8701 25.0096 28.6494 23.7881C27.4283 22.5681 25.8053 21.8956 24.0801 21.8955ZM36.5723 39.9746C36.5462 39.9746 36.5244 39.9965 36.5244 40.0225V41.6973H43.6289V40.0225C43.6289 39.9964 43.6071 39.9746 43.5811 39.9746H36.5723ZM38.1826 20.6953V38.5537H41.9707V20.6953H38.1826ZM6.18848 20.6953V38.3799H9.97754V20.6953H6.18848ZM4.29395 17.377V19.2276C4.29396 19.2536 4.31486 19.2743 4.34082 19.2745H11.8242C11.8504 19.2745 11.8721 19.2536 11.8721 19.2276V17.377H4.29395ZM36.2881 17.377V19.2276C36.2881 19.2536 36.309 19.2744 36.335 19.2745H43.8184C43.8443 19.2744 43.8652 19.2536 43.8652 19.2276V17.377H36.2881ZM24.2725 1.46879C24.1501 1.40523 24.0039 1.40395 23.8818 1.46683L5.14551 11.0752H9.93164C10.324 11.0752 10.6426 11.3928 10.6426 11.7852C10.6426 12.1776 10.324 12.4952 9.93164 12.4952H1.46777C1.44229 12.4954 1.4209 12.5175 1.4209 12.543V15.9082C1.4209 15.9339 1.4423 15.9558 1.46777 15.9561H46.6914C46.717 15.956 46.7383 15.9338 46.7383 15.9082V12.543C46.7383 12.5174 46.717 12.4953 46.6914 12.4952H13.2471C12.8547 12.4951 12.5371 12.1776 12.5371 11.7852C12.5371 11.3928 12.8547 11.0752 13.2471 11.0752H42.7217L24.2725 1.46879ZM24.0801 3.43265C25.6189 3.43286 26.871 4.68481 26.8711 6.22367C26.8711 7.76259 25.619 9.01448 24.0801 9.01468C22.541 9.01468 21.2881 7.76272 21.2881 6.22367C21.2882 4.68468 22.541 3.43265 24.0801 3.43265ZM24.0801 4.85355C23.3245 4.85355 22.709 5.46813 22.709 6.22367C22.709 6.97927 23.3245 7.59379 24.0801 7.59379C24.8355 7.59358 25.4502 6.97914 25.4502 6.22367C25.4501 5.46825 24.8355 4.85376 24.0801 4.85355Z" fill="url(#paint0_linear_1196_44397)"/>
<defs>
<linearGradient id="paint0_linear_1196_44397" x1="24.0796" y1="0" x2="24.0796" y2="47.9991" gradientUnits="userSpaceOnUse">
<stop stop-color="#FFDB79"/>
<stop offset="1" stop-color="#E4A600"/>
</linearGradient>
</defs>
</svg>
