<svg width="48" height="48" viewBox="0 0 48 48" fill="none" xmlns="http://www.w3.org/2000/svg">
<path fill-rule="evenodd" clip-rule="evenodd" d="M15.418 27.6074C16.2688 27.6074 17.134 27.7965 17.9121 28.1455L22.8945 30.4004C23.1125 30.5021 23.3452 30.5527 23.585 30.5527H29.4619C31.0472 30.5529 32.334 31.8404 32.334 33.4258C32.3339 33.5347 32.3202 33.6366 32.3057 33.7383L40.4648 30.291C41.6794 29.7747 43.0105 29.7893 44.2178 30.3057C45.4249 30.8365 46.3415 31.8107 46.7852 33.0469L46.9961 33.6436L27.833 43.7959C26.7857 44.3559 25.6069 44.6396 24.4287 44.6396C23.6797 44.6396 22.9377 44.5306 22.2178 44.2979L13.5273 41.5049H11.3525V40.0508L13.8613 40.0869L22.6621 42.916C24.1456 43.3886 25.7818 43.2438 27.1562 42.5166L45.1416 32.9746C44.7925 32.3783 44.2688 31.9204 43.6289 31.6367C42.7925 31.2731 41.869 31.2657 41.0254 31.6221L30.8359 35.9346V35.9268C30.4287 36.1522 29.9636 36.291 29.4619 36.291H21.8545V34.8359H29.4688C30.2469 34.8359 30.8867 34.1961 30.8867 33.418C30.8867 32.6398 30.2542 32 29.4688 32H23.5928C23.1419 32 22.7051 31.9055 22.2979 31.7236L17.3164 29.4688C16.72 29.1997 16.0652 29.0615 15.418 29.0615H11.3594V27.6074H15.418ZM8.32715 25.7529C9.12704 25.753 9.78114 26.4072 9.78125 27.207V42.6475C9.78112 43.4473 9.12703 44.1021 8.32715 44.1094H1.00391V42.6543H8.32715V27.207H1.00391V25.7529H8.32715ZM5.39648 39.3604C5.95648 39.3604 6.41504 39.8185 6.41504 40.3857C6.41487 40.9456 5.95638 41.4033 5.39648 41.4033C4.82934 41.4033 4.37126 40.9456 4.37109 40.3857C4.37109 39.8185 4.82924 39.3604 5.39648 39.3604ZM13.7021 8.80762L15.5488 13.1709L16.9521 13.3379L16.7705 14.7852L15.0176 14.5674H14.6104L14.3857 14.1387L12.9893 10.8438L11.4395 14.1748L11.1348 14.4805L10.7998 14.4873L7.33789 14.793L10.167 17.4258V17.8545L9.35254 21.3896L12.3711 19.7168L12.5166 19.5713L13.1348 19.5859L13.2871 19.7314L16.2402 21.5127L15.5566 17.8984V17.6074L15.7676 17.3604L17.1709 16.1455L18.123 17.2441L17.0693 18.1523L18.0576 23.2363L17.251 23.8252L16.7998 23.542L12.7998 21.1416L8.26855 23.6514L7.44727 23.0479L7.59277 22.5234L8.64746 17.9932L5.24316 14.8291L4.84375 14.5674L5.14941 13.5059L5.72363 13.4766L10.3486 13.0762L12.3125 8.85059L12.4512 8.42188L13.4541 8.3418L13.7021 8.80762ZM36.749 8.40039L36.9668 8.7998L38.8291 13.1777L43.9346 13.8037L44.1016 14.3203C44.1814 14.6111 44.0798 14.9311 43.8398 15.1201L40.3418 18.1523L41.3311 23.2295L40.5381 23.8252L40.0869 23.5488L36.0801 21.1416L31.5195 23.665L30.7266 23.0107L30.8721 22.5234L31.9199 17.9922L30.5889 16.749L31.585 15.6875L33.4473 17.4258L33.4541 17.8545L32.6328 21.3887L35.6357 19.7236L35.7666 19.585L36.4072 19.5781L36.5596 19.7305L39.5195 21.5059L38.8291 17.8984V17.585L39.0693 17.3311L41.7666 14.9893L38.2979 14.5596H37.6143L37.5996 13.9707L36.2686 10.8359L34.7197 14.167L34.4141 14.4727L34.0869 14.4873L32.6836 14.6182L32.5527 13.1709L33.6221 13.0762L35.6582 8.72754L35.8838 8.37109L36.749 8.40039ZM25.1494 3.375L25.3525 3.81055L27.5781 9.07617L33.7021 9.83301L34.0068 10.7344L33.6582 11.0693L29.3311 14.8223L30.5088 20.8877L29.7236 21.4541L29.3018 21.207L24.4072 18.2617L18.9961 21.2578L18.2109 20.6768L19.6143 14.6328L15.0986 10.4219L15.3887 9.5127L15.876 9.4541L21.5781 8.97461L24.1895 3.36719H24.6836L25.1494 3.375ZM22.5459 10.3271L22.1162 10.3779L17.5928 10.7705L21.251 14.167L21.127 14.6182L20.1162 18.9814L24.4287 16.5889L24.7998 16.7852L28.6982 19.1348L27.7529 14.2617L28.0947 13.9707L31.498 11.0186L26.582 10.415L26.4004 10.0146L24.6328 5.84766L22.5459 10.3271Z" fill="url(#paint0_linear_1196_44389)"/>
<defs>
<linearGradient id="paint0_linear_1196_44389" x1="24" y1="3.36719" x2="24" y2="44.6396" gradientUnits="userSpaceOnUse">
<stop stop-color="#FFDB79"/>
<stop offset="1" stop-color="#E4A600"/>
</linearGradient>
</defs>
</svg>
