<svg width="64" height="64" viewBox="0 0 64 64" fill="none" xmlns="http://www.w3.org/2000/svg">
<path d="M37.5654 25.1431C39.8142 25.1431 41.6396 26.9686 41.6396 29.2173C41.6396 31.4661 39.8142 33.2915 37.5654 33.2915C35.3167 33.2915 33.4912 31.466 33.4912 29.2173C33.4913 26.9686 35.3167 25.1431 37.5654 25.1431ZM37.5654 27.7261C36.7423 27.7261 36.0743 28.3941 36.0742 29.2173C36.0742 30.0405 36.7422 30.7085 37.5654 30.7085C38.3887 30.7085 39.0566 30.0405 39.0566 29.2173C39.0566 28.3941 38.3886 27.7261 37.5654 27.7261Z" fill="url(#paint0_linear_1196_44576)" stroke="#F0EFEF" stroke-width="0.2"/>
<path d="M37.5654 36.2732C39.8142 36.2732 41.6396 38.0987 41.6396 40.3474C41.6396 42.5962 39.8142 44.4216 37.5654 44.4216C35.3167 44.4216 33.4912 42.5962 33.4912 40.3474C33.4913 38.0987 35.3167 36.2732 37.5654 36.2732ZM37.5654 38.8562C36.7423 38.8562 36.0743 39.5243 36.0742 40.3474C36.0742 41.1706 36.7422 41.8386 37.5654 41.8386C38.3887 41.8386 39.0566 41.1706 39.0566 40.3474C39.0566 39.5242 38.3886 38.8562 37.5654 38.8562Z" fill="url(#paint1_linear_1196_44576)" stroke="#F0EFEF" stroke-width="0.2"/>
<path d="M48.6953 25.1431C50.9441 25.1431 52.7695 26.9686 52.7695 29.2173C52.7695 31.4661 50.9441 33.2915 48.6953 33.2915C46.4466 33.2915 44.6211 31.466 44.6211 29.2173C44.6211 26.9686 46.4466 25.1431 48.6953 25.1431ZM48.6953 27.7261C47.8722 27.7261 47.2041 28.3941 47.2041 29.2173C47.2041 30.0405 47.8721 30.7085 48.6953 30.7085C49.5185 30.7085 50.1865 30.0405 50.1865 29.2173C50.1865 28.3941 49.5185 27.7261 48.6953 27.7261Z" fill="url(#paint2_linear_1196_44576)" stroke="#F0EFEF" stroke-width="0.2"/>
<path d="M48.6953 36.2732C50.9441 36.2732 52.7695 38.0987 52.7695 40.3474C52.7695 42.5962 50.9441 44.4216 48.6953 44.4216C46.4466 44.4216 44.6211 42.5962 44.6211 40.3474C44.6211 38.0987 46.4466 36.2732 48.6953 36.2732ZM48.6953 38.8562C47.8722 38.8562 47.2041 39.5243 47.2041 40.3474C47.2041 41.1706 47.8721 41.8386 48.6953 41.8386C49.5185 41.8386 50.1865 41.1706 50.1865 40.3474C50.1865 39.5242 49.5185 38.8562 48.6953 38.8562Z" fill="url(#paint3_linear_1196_44576)" stroke="#F0EFEF" stroke-width="0.2"/>
<path d="M20.8691 0.0996094H26.4346C28.6847 0.0996094 30.5087 1.9237 30.5088 4.17383V5.66504H39.0566V4.17383C39.0567 1.9237 40.8807 0.0996094 43.1309 0.0996094H48.6953C50.9454 0.0996094 52.7695 1.9237 52.7695 4.17383V5.66504H55.6523C57.8391 5.66508 59.9366 6.53389 61.4844 8.08008C63.0309 9.62795 63.9004 11.726 63.9004 13.9131V57.0439C63.9001 60.8297 60.8297 63.9001 57.0439 63.9004H6.95605C3.17026 63.9001 0.0998609 60.8297 0.0996094 57.0439V54.2607C0.0996794 52.0107 1.92375 50.1866 4.17383 50.1865H6.82324L6.56445 50.0049C2.6555 47.2527 0.0996789 42.7055 0.0996094 37.5654C0.0996094 29.174 6.91331 22.3613 15.3047 22.3613C23.6959 22.3615 30.5088 29.1742 30.5088 37.5654C30.5087 42.7056 27.953 47.2527 24.0439 50.0049L23.7861 50.1865H48.6953C49.7763 50.1865 50.813 50.6164 51.5762 51.3809C52.3405 52.1439 52.7695 53.1799 52.7695 54.2607V57.0439C52.7698 59.4043 54.6835 61.3174 57.0439 61.3174C59.4042 61.3171 61.3171 59.4042 61.3174 57.0439V19.3779H8.24805V20.8691C8.24805 21.5819 7.66883 22.1611 6.95605 22.1611C6.2435 22.1609 5.66504 21.5818 5.66504 20.8691V13.9131C5.66504 11.7261 6.53359 9.62795 8.08008 8.08008C9.62795 6.53361 11.7261 5.66504 13.9131 5.66504H16.7959V4.17383C16.7959 1.92385 18.6192 0.0998392 20.8691 0.0996094ZM4.17383 52.7695C3.35068 52.7696 2.68269 53.4376 2.68262 54.2607V57.0439C2.68287 59.4042 4.5958 61.3171 6.95605 61.3174H51.6787L51.5586 61.1572C50.6975 60.0109 50.1866 58.588 50.1865 57.0439V54.2607C50.1865 53.8657 50.0296 53.4851 49.749 53.2061C49.47 52.926 49.0899 52.7695 48.6953 52.7695H4.17383ZM15.3047 24.9434C8.33885 24.9434 2.68262 30.5996 2.68262 37.5654C2.68273 44.5312 8.33892 50.1865 15.3047 50.1865C22.2703 50.1863 27.9257 44.5311 27.9258 37.5654C27.9258 30.5997 22.2704 24.9435 15.3047 24.9434ZM13.9131 8.24805C12.4107 8.24805 10.9704 8.84388 9.9082 9.90723C8.84452 10.9695 8.24805 12.4104 8.24805 13.9131V16.7959H61.3174V13.9131C61.3174 12.4104 60.7209 10.9695 59.6572 9.90723H59.6562C58.5941 8.84416 57.1545 8.24809 55.6523 8.24805H41.6387V9.73926C41.6387 10.5624 42.3077 11.2305 43.1309 11.2305H45.9131C46.6258 11.2305 47.204 11.8088 47.2041 12.5215C47.2041 13.2342 46.6258 13.8135 45.9131 13.8135H43.1309C40.8807 13.8135 39.0567 11.9894 39.0566 9.73926V8.24805H19.3779V9.73926C19.378 10.5623 20.0461 11.2302 20.8691 11.2305H23.6523C24.365 11.2306 24.9432 11.8089 24.9434 12.5215C24.9434 13.2342 24.365 13.8134 23.6523 13.8135H20.8691C18.6192 13.8132 16.796 11.9892 16.7959 9.73926V8.24805H13.9131ZM20.8691 2.68262C20.0461 2.68285 19.378 3.35078 19.3779 4.17383V5.66504H27.9258V4.17383C27.9257 3.35064 27.2578 2.68262 26.4346 2.68262H20.8691ZM43.1309 2.68262C42.3077 2.68262 41.6387 3.35064 41.6387 4.17383V5.66504H50.1865V4.17383C50.1865 3.35064 49.5185 2.68262 48.6953 2.68262H43.1309Z" fill="url(#paint4_linear_1196_44576)" stroke="#F0EFEF" stroke-width="0.2"/>
<path d="M15.3037 27.9253C16.0165 27.9253 16.5957 28.5045 16.5957 29.2173V30.7085H18.0869C20.3369 30.7086 22.1609 32.5318 22.1611 34.7817C22.1611 35.4945 21.5819 36.0737 20.8691 36.0737C20.1565 36.0736 19.5781 35.4944 19.5781 34.7817C19.5779 33.9588 18.9099 33.2906 18.0869 33.2905H12.5215C11.6985 33.2906 11.0305 33.9588 11.0303 34.7817C11.0303 35.6049 11.6983 36.2739 12.5215 36.2739H18.0869C20.3369 36.274 22.161 38.0972 22.1611 40.3472C22.1611 42.5973 20.337 44.4213 18.0869 44.4214H16.5957V45.9126C16.5957 46.6254 16.0165 47.2036 15.3037 47.2036C14.5912 47.2034 14.0127 46.6252 14.0127 45.9126V44.4214H12.5215C10.2714 44.4213 8.44727 42.5973 8.44727 40.3472C8.4474 39.6345 9.02657 39.0562 9.73926 39.0562C10.4518 39.0563 11.0301 39.6346 11.0303 40.3472C11.0303 41.1704 11.6983 41.8383 12.5215 41.8384H18.0869C18.9101 41.8383 19.5781 41.1704 19.5781 40.3472C19.578 39.5241 18.91 38.856 18.0869 38.856H12.5215C10.2714 38.8559 8.44727 37.0319 8.44727 34.7817C8.44752 32.5318 10.2715 30.7085 12.5215 30.7085H14.0127V29.2173C14.0127 28.5047 14.5912 27.9255 15.3037 27.9253Z" fill="url(#paint5_linear_1196_44576)" stroke="#F0EFEF" stroke-width="0.2"/>
<defs>
<linearGradient id="paint0_linear_1196_44576" x1="37.5655" y1="25.0435" x2="37.5655" y2="33.3913" gradientUnits="userSpaceOnUse">
<stop stop-color="#FFDB79"/>
<stop offset="1" stop-color="#E4A600"/>
</linearGradient>
<linearGradient id="paint1_linear_1196_44576" x1="37.5655" y1="36.1736" x2="37.5655" y2="44.5214" gradientUnits="userSpaceOnUse">
<stop stop-color="#FFDB79"/>
<stop offset="1" stop-color="#E4A600"/>
</linearGradient>
<linearGradient id="paint2_linear_1196_44576" x1="48.6954" y1="25.0435" x2="48.6954" y2="33.3913" gradientUnits="userSpaceOnUse">
<stop stop-color="#FFDB79"/>
<stop offset="1" stop-color="#E4A600"/>
</linearGradient>
<linearGradient id="paint3_linear_1196_44576" x1="48.6954" y1="36.1736" x2="48.6954" y2="44.5214" gradientUnits="userSpaceOnUse">
<stop stop-color="#FFDB79"/>
<stop offset="1" stop-color="#E4A600"/>
</linearGradient>
<linearGradient id="paint4_linear_1196_44576" x1="32" y1="0" x2="32" y2="64" gradientUnits="userSpaceOnUse">
<stop stop-color="#FFDB79"/>
<stop offset="1" stop-color="#E4A600"/>
</linearGradient>
<linearGradient id="paint5_linear_1196_44576" x1="15.3042" y1="27.8257" x2="15.3042" y2="47.3039" gradientUnits="userSpaceOnUse">
<stop stop-color="#FFDB79"/>
<stop offset="1" stop-color="#E4A600"/>
</linearGradient>
</defs>
</svg>
