<svg width="75" height="64" viewBox="0 0 75 64" fill="none" xmlns="http://www.w3.org/2000/svg">
<path d="M23.8223 40.1074C23.9728 39.4514 24.62 39.0814 25.2041 39.1963C25.8459 39.3144 26.2668 39.9111 26.1777 40.5117C26.0219 43.7155 27.3415 46.1232 27.3447 46.1377C27.6178 46.6736 27.4048 47.3291 26.8691 47.6025C26.3332 47.8759 25.6767 47.6637 25.4033 47.1279C25.3958 47.1126 25.2054 46.7554 24.9971 46.2412C24.0235 48.6238 22.3432 50.509 19.9277 51.5869C22.2962 52.6439 24.0018 54.4968 24.9971 56.9336C26.0462 54.3287 27.8427 52.5662 30.0654 51.5898C29.8385 51.4892 29.6116 51.3785 29.3857 51.2568C28.8562 50.9711 28.658 50.31 28.9434 49.7803C29.229 49.251 29.8891 49.0534 30.4189 49.3389C33.0716 50.7685 35.8558 50.2889 36.4492 50.4121C37.7933 50.6966 37.6749 52.6293 36.3496 52.7783C35.7704 52.8435 32.4418 52.3997 29.7559 54.2402C25.6805 57.0308 26.2815 62.7074 26.1387 63.1572C25.715 64.4679 23.7949 64.1656 23.7949 62.8223C23.7677 62.5614 24.221 56.8375 20.0938 54.1484C17.3135 52.339 14.0963 52.8887 13.5156 52.7578C12.2739 52.475 12.2729 50.699 13.5156 50.416C14.1036 50.2827 17.2596 50.8337 20.0391 49.0605C24.3082 46.3308 23.7444 40.4474 23.8223 40.1074ZM46.7432 3.01953C47.3766 2.93863 48.0392 3.35795 48.1992 4.05859C48.377 4.83803 47.5409 11.0499 50.8027 17.9023C57.0074 30.9296 71.204 28.9361 73.1963 29.1572C74.648 29.3202 74.8098 31.4685 73.3174 31.8076C72.327 32.0304 64.9072 30.8874 58.2373 34.8018C48.3527 40.6088 48.0722 52.8465 48.2217 56.459C48.3042 58.4627 45.6602 58.3811 45.5449 56.7607C45.5003 56.1262 46.0443 49.5476 42.9668 43.082C42.448 41.9935 41.8464 40.9609 41.1777 40.0137C40.831 39.5221 40.9478 38.8431 41.4395 38.4961C41.9311 38.1493 42.611 38.2662 42.958 38.7578C44.8548 41.4453 46.1166 44.523 46.873 47.7383C48.9048 38.9658 54.3792 32.6912 63.1826 30.4883C54.2905 28.2834 48.9355 21.9477 46.8857 13.2051C44.8188 22.0015 39.4186 28.2811 30.6211 30.4971C33.9626 31.3371 36.8828 32.7833 39.3193 34.8066C39.7821 35.1911 39.8459 35.8778 39.4619 36.3408C39.0775 36.8033 38.3908 36.8674 37.9277 36.4834C30.8267 30.5862 21.6822 32.067 20.4668 31.8105C19.0476 31.4952 19.0582 29.4931 20.4521 29.1768C21.3221 28.9868 25.9774 29.7133 31.3398 28.0312C40.6269 25.1193 45.0498 16.8463 45.542 7.12793V4.30078C45.5422 3.69882 46.0212 3.10145 46.7432 3.01953ZM11.2373 0.93457C11.3876 0.274447 12.0376 -0.0943783 12.6182 0.0205078C13.2684 0.139192 13.6802 0.742641 13.5928 1.33594C13.576 1.6797 13.4919 4.41275 14.7129 6.87109C17.311 12.1126 23.1266 11.0834 23.8643 11.2363C25.198 11.5186 25.097 13.4505 23.7646 13.6035C23.1841 13.6681 20.375 13.2897 17.8037 14.6807C17.2742 14.9668 16.6124 14.7695 16.3262 14.2402C16.0401 13.7109 16.2373 13.0499 16.7666 12.7637C17.0024 12.6363 17.24 12.5209 17.4775 12.416C15.0518 11.3431 13.3851 9.46579 12.4121 7.06543C11.4386 9.44841 9.75828 11.3337 7.34277 12.4121C9.71329 13.4704 11.4193 15.3243 12.4141 17.7627C12.5321 17.4699 12.6602 17.1859 12.7979 16.9121C13.0684 16.3748 13.7232 16.158 14.2607 16.4287C14.7981 16.6993 15.0145 17.3541 14.7441 17.8916C13.3643 20.6333 13.6554 23.4665 13.5889 23.8389C13.4927 24.3819 13.0065 24.8245 12.4072 24.8242C11.8854 24.824 11.4255 24.4861 11.2627 23.9824C11.1743 23.7079 11.224 23.5766 11.21 22.4502C11.1075 20.4791 10.4881 16.9145 7.50879 14.9736C4.71345 13.1539 1.56463 13.7245 0.930664 13.582C-0.381147 13.2833 -0.274391 11.3719 1.05078 11.2207C1.64073 11.1549 4.77117 11.5964 7.45312 9.88574C11.7207 7.15706 11.1602 1.27687 11.2373 0.93457Z" fill="url(#paint0_linear_827_95)"/>
<defs>
<linearGradient id="paint0_linear_827_95" x1="37.1817" y1="0" x2="37.1817" y2="63.9995" gradientUnits="userSpaceOnUse">
<stop stop-color="#FCCA5D"/>
<stop offset="1" stop-color="#C9A14A"/>
</linearGradient>
</defs>
</svg>
