<svg width="47" height="64" viewBox="0 0 47 64" fill="none" xmlns="http://www.w3.org/2000/svg">
<path d="M20.4941 0.606445C22.3651 -0.201712 24.5129 -0.201712 26.3838 0.606445L26.9902 0.869141L27.9854 0.772461C30.1837 0.559141 32.3512 1.32916 33.9307 2.88379L34.0654 3.01758C36.6412 4.14948 38.3925 6.6788 38.5459 9.51465L38.667 11.7461L38.6631 11.957C39.8302 12.0298 40.7598 13.0065 40.7598 14.2012V15.3037C40.7598 16.3553 40.0394 17.2374 39.0703 17.4834V21.7715C39.3207 22.3198 39.4619 22.9298 39.4619 23.5723C39.4619 25.8662 37.6789 27.7491 35.4355 27.8896V28.3662C35.4355 32.4622 33.5383 36.2449 30.4629 38.6982V42.627L31.209 43.8398V42.9404L37.6045 45.5693C39.1029 46.1855 40.4866 47.0365 41.7197 48.1006V48.0996C42.1119 48.4383 42.1582 49.0315 41.8223 49.4268C41.638 49.6437 41.3762 49.7558 41.1123 49.7559C40.8968 49.7559 40.6795 49.6821 40.5039 49.5303C39.4228 48.598 38.21 47.8521 36.8984 47.3125L31.627 45.1465L24.3799 63.4121C24.2379 63.7697 23.8931 64.0039 23.5107 64.0039C23.1286 64.0037 22.7845 63.7696 22.6426 63.4121L15.3926 45.1396L10.1035 47.3125C8.79062 47.8521 7.57703 48.5979 6.49707 49.5303C6.32031 49.682 6.10497 49.7558 5.88965 49.7559C5.62682 49.7559 5.36404 49.6439 5.17969 49.4268C4.84473 49.0315 4.88906 48.4372 5.28125 48.0996C6.51442 47.0355 7.89897 46.1845 9.39746 45.5684L16.5566 42.626V38.8486C13.3965 36.3978 11.4414 32.5573 11.4414 28.4023V27.8877C9.19806 27.7471 7.41508 25.8665 7.41504 23.5713C7.41504 22.9049 7.56617 22.2734 7.83398 21.71V17.3193C7.09535 16.9517 6.58401 16.1874 6.58398 15.3027V14.1992C6.58415 13.1766 7.26592 12.3123 8.19629 12.04L8.20898 11.7979L8.33203 9.51465C8.48538 6.6788 10.2368 4.14948 12.8125 3.01758L12.9473 2.88379C14.5267 1.3279 16.6942 0.559141 18.8926 0.772461L19.8877 0.869141L20.4941 0.606445ZM2.47363 51.3145C2.75637 50.879 3.33536 50.7592 3.76758 51.0439H3.7666C4.19753 51.3288 4.31887 51.9122 4.03613 52.3477C2.6187 54.5261 1.86823 57.053 1.86816 59.6543V63.0381C1.86805 63.5574 1.45003 63.9793 0.93457 63.9795C0.418951 63.9795 0.000113754 63.5575 0 63.0381V59.6543C6.97092e-05 56.6853 0.855629 53.8016 2.47363 51.3145ZM43.2305 51.0439C43.6627 50.7591 44.2426 50.879 44.5254 51.3145C46.1433 53.8015 46.999 56.6854 46.999 59.6543V63.0381C46.9989 63.5575 46.5801 63.9795 46.0645 63.9795C45.5489 63.9795 45.13 63.5575 45.1299 63.0381V59.6543C45.1298 57.0531 44.3815 54.5273 42.9629 52.3477H42.9619C42.6792 51.9123 42.7985 51.3289 43.2305 51.0439ZM14.9824 55.8145C15.8568 55.8145 16.5683 56.5312 16.5684 57.4121V60.3037C16.5682 61.1845 15.8568 61.9014 14.9824 61.9014H7.28418C6.40995 61.9012 5.69936 61.1844 5.69922 60.3037V57.4121C5.69924 56.5313 6.40988 55.8146 7.28418 55.8145H14.9824ZM26.0391 47.7314C25.3067 48.3651 24.402 48.6816 23.4766 48.6816C22.5511 48.6816 21.6255 48.3581 20.8906 47.7119L17.1445 44.418L17.1211 44.4277L23.5088 60.5254H23.5098L29.8975 44.4277L29.8691 44.416L26.0391 47.7314ZM7.56836 60.0176H14.6982V57.6973H7.56836V60.0176ZM28.5947 39.9443C28.0031 40.2681 27.3811 40.5472 26.7334 40.7793L26.6416 40.8125C25.5916 41.1877 24.488 41.375 23.3857 41.375C22.27 41.3749 21.1538 41.1837 20.0928 40.7998C19.5138 40.5903 18.9587 40.3401 18.4258 40.0566V43.0439L22.1211 46.2939C22.8872 46.9677 24.0481 46.9725 24.8203 46.3037L28.5947 43.0361V39.9443ZM13.3086 28.4043C13.3088 33.1514 16.2881 37.4201 20.7236 39.0264C22.4288 39.6437 24.307 39.6479 26.0146 39.0381L26.1074 39.0049L26.1055 39.0068C30.5673 37.4119 33.5645 33.1358 33.5645 28.3672V20.1143C32.208 21.4719 30.341 22.3115 28.2822 22.3115C25.1283 22.3115 22.4238 20.3383 21.3164 17.5537H13.3086V28.4043ZM35.4355 26.001C36.6463 25.8654 37.5918 24.8284 37.5918 23.5723C37.5917 22.3162 36.6462 21.2801 35.4355 21.1445V26.001ZM11.4395 21.1426C10.2289 21.2783 9.2832 22.3152 9.2832 23.5713C9.28324 24.8273 10.2289 25.8633 11.4395 25.999V21.1426ZM28.2832 9.07715C25.1766 9.07715 22.6495 11.6232 22.6494 14.7529C22.6494 17.8827 25.1766 20.4287 28.2832 20.4287C31.3898 20.4287 33.917 17.8827 33.917 14.7529C33.9169 11.6232 31.3898 9.07715 28.2832 9.07715ZM35.4355 19.2539C36.0708 19.2941 36.6703 19.4728 37.2021 19.7627V17.5537H35.4355V19.2539ZM9.70117 19.749C10.2267 19.468 10.8143 19.2929 11.4395 19.2539V17.5537H9.70117V19.749ZM28.2832 10.959C30.3584 10.959 32.0479 12.6613 32.0479 14.752C32.0477 16.8425 30.3584 18.5439 28.2832 18.5439C26.2081 18.5439 24.5187 16.8425 24.5186 14.752C24.5186 12.6613 26.208 10.959 28.2832 10.959ZM28.2832 12.8418C27.2381 12.8418 26.3877 13.6991 26.3877 14.752C26.3878 15.8047 27.2382 16.6621 28.2832 16.6621C29.3282 16.6621 30.1786 15.8047 30.1787 14.752C30.1787 13.6991 29.3283 12.8418 28.2832 12.8418ZM35.7285 13.834C35.7646 14.1351 35.7852 14.4417 35.7852 14.7529C35.7852 15.0641 35.7646 15.3707 35.7285 15.6719H38.5244C38.7262 15.6719 38.8896 15.5057 38.8896 15.3037V14.2021C38.8896 13.9989 38.725 13.834 38.5244 13.834H35.7285ZM25.6445 2.34082C24.2408 1.73486 22.6303 1.73475 21.2266 2.34082L20.4014 2.69727C20.2581 2.75876 20.0991 2.78361 19.9434 2.76855L18.7119 2.64941C17.0615 2.48879 15.4375 3.06642 14.2529 4.2334L13.9912 4.49023C13.9053 4.57557 13.8016 4.644 13.6895 4.69043C11.6853 5.50991 10.3146 7.44322 10.1963 9.61914L10.0732 11.8965L10.0713 11.9512H12.2051C12.7204 11.9514 13.1385 12.3724 13.1387 12.8916C13.1387 13.411 12.7206 13.8328 12.2051 13.833H8.81641C8.61468 13.8331 8.45117 13.9992 8.45117 14.2012V15.3037L8.4502 15.3027C8.45024 15.506 8.61491 15.6699 8.81543 15.6699H20.8369C20.8008 15.3689 20.7793 15.063 20.7793 14.752C20.7793 14.4407 20.8008 14.1342 20.8369 13.833H16.1855C15.6699 13.8329 15.251 13.4111 15.251 12.8916C15.2512 12.3723 15.67 11.9512 16.1855 11.9512H21.3154C22.4227 9.16667 25.1265 7.19354 28.2803 7.19336C31.4342 7.19336 34.1387 9.16654 35.2461 11.9512H36.7959C36.7984 11.9211 36.7979 11.8965 36.7979 11.8965L36.6748 9.61914C36.5564 7.4446 35.1866 5.50998 33.1826 4.69043C33.0705 4.644 32.9681 4.57557 32.8809 4.49023L32.6191 4.2334C31.4346 3.06766 29.8093 2.49013 28.1602 2.64941L26.9277 2.76855C26.7721 2.78357 26.6151 2.75998 26.4707 2.69727L25.6445 2.34082Z" fill="url(#paint0_linear_827_127)"/>
<defs>
<linearGradient id="paint0_linear_827_127" x1="23.4995" y1="0" x2="23.4995" y2="64.0046" gradientUnits="userSpaceOnUse">
<stop stop-color="#FCCA5D"/>
<stop offset="1" stop-color="#C9A14A"/>
</linearGradient>
</defs>
</svg>
