<svg width="74" height="64" viewBox="0 0 74 64" fill="none" xmlns="http://www.w3.org/2000/svg">
<path fill-rule="evenodd" clip-rule="evenodd" d="M26.0067 48.7756C26.0067 49.3951 25.5052 49.8982 24.8858 49.8982H8.3498C7.73122 49.8982 7.22786 49.3951 7.22786 48.7756C7.22786 48.1545 7.73122 47.6527 8.3498 47.6527H24.8858C25.5052 47.6527 26.0067 48.1546 26.0067 48.7756ZM7.22803 40.3549C7.22803 39.7353 7.73139 39.2324 8.34996 39.2324H18.3259C18.9453 39.2324 19.4468 39.7353 19.4468 40.3549C19.4468 40.9748 18.9453 41.4775 18.3259 41.4775H8.3498C7.73122 41.4775 7.22803 40.9748 7.22803 40.3549ZM7.22803 31.9343C7.22803 31.3145 7.73139 30.8117 8.34996 30.8117H17.1491C17.7686 30.8117 18.2701 31.3146 18.2701 31.9343C18.2701 32.5553 17.7686 33.0568 17.1491 33.0568H8.3498C7.73122 33.0567 7.22803 32.5553 7.22803 31.9343ZM7.22803 23.5153C7.22803 22.8941 7.73139 22.3927 8.34996 22.3927H18.3809C19.0022 22.3927 19.5028 22.8941 19.5028 23.5153C19.5028 24.1351 19.0022 24.6378 18.3809 24.6378H8.3498C7.73122 24.6377 7.22803 24.1349 7.22803 23.5153ZM50.437 43.612C56.492 37.55 56.492 27.6881 50.437 21.6262C44.3837 15.5648 34.5289 15.5665 28.4764 21.6262C22.4233 27.6881 22.4233 37.55 28.4764 43.612C34.5313 49.6736 44.3839 49.6736 50.437 43.612ZM56.336 48.5405L55.3601 49.5181L51.5254 45.6773L52.4997 44.7016L56.336 48.5405ZM59.815 48.2592C59.8402 48.2592 59.8519 48.2712 59.8564 48.2758L68.5421 56.9714C68.5646 56.9925 68.5646 57.0344 68.5421 57.0571L63.8657 61.7388C63.8451 61.7599 63.8017 61.7613 63.7811 61.7388L55.0944 53.0426V52.9574L59.7727 48.2758C59.7754 48.2712 59.7879 48.2592 59.815 48.2592ZM36.7677 57.051C37.6186 57.051 38.3361 56.1259 38.3361 55.032V50.3666C34.1667 50.1047 30.0718 48.3835 26.8918 45.1998C19.9627 38.2624 19.9627 26.9758 26.8918 20.0398C30.0718 16.8561 34.1667 15.1349 38.3361 14.873V12.7388H29.4172C28.7977 12.7388 28.2962 12.2374 28.2962 11.6163V2.24513H3.81113C2.9621 2.24513 2.24269 3.17019 2.24269 4.26412V55.0318C2.24269 56.1258 2.9621 57.0508 3.81113 57.0508L36.7677 57.051ZM30.5381 3.91704L36.8308 10.4937H30.5383V3.91704H30.5381ZM68.769 33.8172C70.4166 33.8172 71.7582 35.1612 71.7582 36.8136C71.7582 38.4644 70.4166 39.8083 68.769 39.8083C67.1178 39.8083 65.7752 38.4644 65.7752 36.8136C65.7754 35.1612 67.1178 33.8172 68.769 33.8172ZM68.769 5.34621C70.4166 5.34621 71.7582 6.69017 71.7582 8.34259C71.7582 9.99366 70.4166 11.3376 68.769 11.3376C67.1178 11.3376 65.7752 9.99366 65.7752 8.34259C65.7754 6.69034 67.1178 5.34621 68.769 5.34621ZM68.769 19.5818C70.4166 19.5818 71.7582 20.9259 71.7582 22.5784C71.7582 24.2294 70.4166 25.5734 68.769 25.5734C67.1178 25.5734 65.7752 24.2294 65.7752 22.5784C65.7754 20.9258 67.1178 19.5818 68.769 19.5818ZM68.769 27.8184C71.6592 27.8184 74 25.467 74 22.5784C74 19.6882 71.6592 17.3367 68.769 17.3367C66.2786 17.3367 64.1907 19.0863 63.6622 21.4212L53.2081 21.3494C51.7366 19.5542 49.9516 18.0806 47.9537 16.9923L55.3699 9.46516H63.6551C64.1691 11.8165 66.2652 13.5828 68.769 13.5828C71.6592 13.5828 74 11.2312 74 8.34259C74 5.45241 71.6592 3.10107 68.769 3.10107C66.2651 3.10107 64.1691 4.86733 63.6551 7.2202H54.9009C54.6002 7.2202 54.3129 7.33996 54.1023 7.5539L45.7875 15.9954C44.1074 15.3577 42.35 14.9838 40.579 14.8729V11.6161C40.579 11.3271 40.4665 11.0488 40.2675 10.8408L30.2276 0.345731C30.0151 0.124334 29.7226 0 29.4173 0H3.81113C1.71057 0 0 1.91278 0 4.26412V55.0318C0 57.3828 1.71073 59.2959 3.81113 59.2959H36.7677C38.8701 59.2959 40.579 57.383 40.579 55.0318V50.3664C43.823 50.163 47.0201 49.075 49.777 47.1037L53.7745 51.1043L53.5089 51.3706C52.6103 52.2705 52.6105 53.7299 53.5089 54.6304L62.1946 63.3265C63.0938 64.2251 64.5542 64.2239 65.4521 63.3265L70.1285 58.6429C71.0288 57.745 71.0288 56.2828 70.1285 55.3831L61.4426 46.6874C60.5446 45.7886 59.0842 45.7889 58.1861 46.6874L57.9214 46.9521L53.9238 42.9514C55.033 41.396 55.8631 39.7004 56.4115 37.936H63.6549C64.1689 40.2874 66.2651 42.0531 68.7688 42.0531C71.659 42.0531 73.9998 39.7021 73.9998 36.8133C73.9998 33.9233 71.659 31.5718 68.7688 31.5718C66.2649 31.5718 64.1689 33.3377 63.6549 35.6907H56.9527C57.6667 31.5911 56.941 27.2893 54.7792 23.6045L63.6478 23.6659C64.1484 26.0357 66.2536 27.8184 68.769 27.8184ZM47.3595 28.5859L37.8265 39.3848C37.3712 39.9003 36.5714 39.8879 36.1312 39.3686L31.4413 33.8335C31.0406 33.3605 31.0991 32.6528 31.5709 32.2519C32.0426 31.8504 32.7512 31.9089 33.1518 32.3818L37.0027 36.9276L45.6794 27.0984C46.089 26.6343 46.7976 26.5898 47.2614 27.0012C47.726 27.4113 47.7691 28.1206 47.3595 28.5859ZM7.22803 15.0944C7.22803 14.4746 7.73139 13.9719 8.34996 13.9719H24.8859C25.5054 13.9719 26.0069 14.4746 26.0069 15.0944C26.0069 15.7142 25.5054 16.217 24.8859 16.217H8.3498C7.73122 16.217 7.22803 15.7142 7.22803 15.0944ZM47.662 40.8338C43.1293 45.3727 35.7862 45.3727 31.2531 40.8338C26.7199 36.2949 26.7199 28.9447 31.2531 24.4058C35.7882 19.865 43.1274 19.8654 47.662 24.4058C52.1951 28.9443 52.1953 36.2953 47.662 40.8338ZM39.4571 18.7572C47.1094 18.7572 53.3027 24.958 53.3027 32.6198C53.3027 40.2809 47.1079 46.481 39.4571 46.481C31.8059 46.481 25.6123 40.2802 25.6123 32.6198C25.6123 24.9587 31.8043 18.7572 39.4571 18.7572Z" fill="url(#paint0_linear_1196_44575)"/>
<defs>
<linearGradient id="paint0_linear_1196_44575" x1="37" y1="0" x2="37" y2="64" gradientUnits="userSpaceOnUse">
<stop stop-color="#FFDB79"/>
<stop offset="1" stop-color="#E4A600"/>
</linearGradient>
</defs>
</svg>
