<svg width="65" height="64" viewBox="0 0 65 64" fill="none" xmlns="http://www.w3.org/2000/svg">
<path d="M31.3467 43.0449C31.7214 42.3346 32.8819 42.3349 33.2568 43.0449L36.2676 48.7969L42.6719 49.8867C43.0679 49.9535 43.3907 50.2354 43.5156 50.6143C43.6405 50.9932 43.5417 51.4138 43.2617 51.7002L38.7207 56.3428L39.666 62.7656C39.722 63.1618 39.5554 63.5583 39.2324 63.793C38.9096 64.0318 38.4794 64.0642 38.1221 63.8857L32.3008 61.002L26.4824 63.8857C26.3318 63.961 26.1684 64 26.0049 64C25.7809 64 25.5584 63.9306 25.3711 63.7949C25.0483 63.5602 24.8804 63.1638 24.9385 62.7656L25.8818 56.3428L21.3428 51.7002C21.0628 51.4138 20.964 50.9954 21.0889 50.6143C21.2138 50.2333 21.5365 49.9513 21.9326 49.8867L28.3369 48.7969L31.3467 43.0449ZM29.9971 50.2656C29.8399 50.5628 29.5531 50.7712 29.2236 50.8271L24.3184 51.6631L27.7939 55.2188C28.0285 55.4599 28.1382 55.7954 28.0908 56.127L27.3682 61.043L31.8232 58.8359C32.1225 58.6853 32.4802 58.6852 32.7773 58.8359L37.2305 61.043L36.5068 56.127C36.4595 55.7955 36.567 55.4577 36.8037 55.2188L40.2812 51.6631L35.3779 50.8271C35.0487 50.7711 34.7626 50.5626 34.6055 50.2656L32.3008 45.8623L29.9971 50.2656ZM10.748 39.6064C11.1507 39.6065 11.5148 39.8305 11.7021 40.1836L14.208 44.9727L19.54 45.8809C19.9363 45.9476 20.2599 46.2304 20.3848 46.6094C20.5094 46.9882 20.4097 47.4081 20.1299 47.6943L15.9766 51.9404C15.5653 52.3668 14.8826 52.3756 14.4541 51.958C14.0299 51.5424 14.021 50.8619 14.4365 50.4355L17.1543 47.6553L13.3232 47.0029C12.9919 46.9469 12.708 46.7383 12.5508 46.4414L10.75 43L8.94727 46.4414C8.79004 46.7383 8.50403 46.9469 8.1748 47.0029L4.3418 47.6553L7.06152 50.4355C7.29619 50.6767 7.40577 51.0131 7.3584 51.3447L6.79199 55.1855L10.2744 53.4609C10.5737 53.3125 10.9314 53.3124 11.2285 53.4609L16.5518 56.0986C17.0856 56.3636 17.3027 57.008 17.04 57.542C16.8462 57.9207 16.4652 58.1405 16.0713 58.1406C15.9098 58.1406 15.7478 58.1037 15.5928 58.0283L10.748 55.627L5.90039 58.0303C5.54521 58.2067 5.11727 58.1722 4.79004 57.9355C4.46703 57.7008 4.2983 57.3044 4.35645 56.9082L5.14453 51.5596L1.36133 47.6943C1.08147 47.408 0.982668 46.9904 1.10742 46.6094C1.2323 46.2283 1.55504 45.9455 1.95117 45.8809L7.28516 44.9727L9.79395 40.1836C9.98129 39.8283 10.3497 39.6064 10.748 39.6064ZM54.0352 39.6045C54.4378 39.6045 54.8019 39.8285 54.9893 40.1816L57.4951 44.9707L62.8291 45.8789C63.2253 45.9457 63.5489 46.2284 63.6738 46.6074C63.7985 46.9862 63.6996 47.4061 63.4199 47.6924L59.6357 51.5576L60.4238 56.9062C60.4798 57.3025 60.3142 57.6989 59.9912 57.9336C59.6682 58.1705 59.2373 58.2072 58.8799 58.0264L54.0352 55.625L49.1875 58.0264C49.0304 58.1059 48.8665 58.1406 48.7051 58.1406C48.3091 58.1405 47.9307 57.9207 47.7412 57.542C47.4785 57.008 47.6955 56.3635 48.2295 56.0986L53.5547 53.4609C53.854 53.3124 54.2116 53.3124 54.5088 53.4609L57.9883 55.1855L57.4219 51.3447C57.3745 51.0131 57.4829 50.6746 57.7197 50.4355L60.4395 47.6553L56.6064 47.0029C56.277 46.9469 55.9902 46.7385 55.833 46.4414L54.0332 43L52.2305 46.4414C52.0733 46.7385 51.7864 46.947 51.457 47.0029L47.627 47.6553L50.3438 50.4355C50.7593 50.8619 50.7512 51.5424 50.3271 51.958C49.9008 52.3758 49.2181 52.3668 48.8047 51.9404L44.6504 47.6924C44.3706 47.4061 44.2718 46.9884 44.3965 46.6074C44.5213 46.2264 44.8442 45.9458 45.2402 45.8789L50.5723 44.9707L53.0811 40.1816C53.2684 39.8263 53.6368 39.6045 54.0352 39.6045ZM12.9209 5.38281C16.4824 5.38292 19.3806 8.28136 19.3809 11.8428V15.0732L19.375 15.3242C19.3721 15.3991 19.3668 15.4735 19.3613 15.5479C19.358 15.5929 19.3549 15.6378 19.3506 15.6826C19.3447 15.7447 19.3367 15.8065 19.3291 15.8682C19.3249 15.9021 19.3212 15.936 19.3164 15.9697C19.2558 16.4031 19.1505 16.8248 19.0049 17.2314C18.9985 17.2493 18.9929 17.2674 18.9863 17.2852C18.9597 17.3574 18.9315 17.4288 18.9023 17.5C18.8957 17.5163 18.8886 17.5325 18.8818 17.5488C18.8527 17.6182 18.8236 17.6875 18.792 17.7559C18.7766 17.7893 18.7601 17.8223 18.7441 17.8555C18.7183 17.9089 18.6934 17.9629 18.666 18.0156C18.3038 18.7192 17.8147 19.3506 17.2275 19.8789V22.5L20.6104 23.9541C21.1571 24.1888 21.4093 24.8213 21.1748 25.3682C21.0004 25.7772 20.602 26.0204 20.1865 26.0205C20.0444 26.0205 19.8995 25.9929 19.7617 25.9326L16.0146 24.3223C15.4846 24.2552 15.0742 23.804 15.0742 23.2559V21.1631C14.7986 21.2609 14.5143 21.3422 14.2217 21.4023C14.1485 21.4174 14.0771 21.4258 14.0039 21.4258C13.5043 21.4258 13.0567 21.0746 12.9512 20.5664C12.8327 19.9828 13.2075 19.4143 13.791 19.2959C14.3737 19.1754 14.9091 18.937 15.376 18.6104C15.4144 18.5707 15.4552 18.5328 15.5 18.499C16.5982 17.6678 17.2275 16.4191 17.2275 15.0732V13.7979C17.1838 13.799 17.1397 13.8027 17.0957 13.8027C14.9512 13.8026 12.9013 13.0643 11.168 11.667C10.7073 11.2946 10.6338 10.6182 11.0039 10.1553C11.3806 9.69243 12.0589 9.621 12.5176 9.99316C13.8999 11.1063 15.541 11.7074 17.2227 11.6494C17.2203 11.5974 17.2161 11.5457 17.2119 11.4941C17.1929 11.2581 17.1553 11.0275 17.0996 10.8037C17.0365 10.5502 16.9506 10.3058 16.8447 10.0723C16.7529 9.86946 16.6463 9.67489 16.5254 9.49023C16.426 9.33846 16.3174 9.19335 16.2002 9.05566C16.1414 8.98665 16.0805 8.91966 16.0176 8.85449C15.8438 8.67439 15.6548 8.5091 15.4521 8.36133C15.0463 8.06551 14.5871 7.83933 14.0918 7.69922C13.9871 7.66959 13.8811 7.64282 13.7734 7.62109C13.6228 7.59073 13.4693 7.56883 13.3135 7.55469C13.2546 7.54933 13.1953 7.54494 13.1357 7.54199L12.9209 7.53613C10.5459 7.53613 8.61447 9.4678 8.61426 11.8428V15.0732C8.61427 16.419 9.24272 17.6678 10.3408 18.499C10.61 18.7014 10.7676 19.0203 10.7676 19.3584V23.2578C10.7676 23.8269 10.3249 24.2915 9.76562 24.3301L5.40527 26.2236C3.42862 27.07 2.1543 29.0059 2.1543 31.1592V34.1436C2.15437 34.5634 2.40191 34.9506 2.78516 35.125L6.90625 36.999C7.44659 37.2445 7.68563 37.8834 7.44043 38.4238C7.2596 38.8199 6.8678 39.0555 6.46094 39.0557C6.31235 39.0557 6.15892 39.0248 6.01465 38.958L1.89355 37.085C0.743708 36.5596 7.10117e-05 35.4054 0 34.1436V31.1592C0 28.1402 1.7878 25.4261 4.55273 24.2461L8.61426 22.4834V19.8643C7.23826 18.6347 6.46095 16.9165 6.46094 15.0732V11.8428C6.46115 8.28129 9.35935 5.38281 12.9209 5.38281ZM51.6816 5.38477C55.2432 5.38488 58.1416 8.28412 58.1416 11.8457V15.0732L58.1357 15.3242C58.1329 15.3991 58.1275 15.4735 58.1221 15.5479C58.1189 15.5913 58.1154 15.6345 58.1113 15.6777C58.1054 15.7414 58.0986 15.8049 58.0908 15.8682C58.0871 15.8982 58.0823 15.9281 58.0781 15.958C57.9713 16.7337 57.7251 17.4738 57.3525 18.1514C57.3299 18.1928 57.3077 18.2344 57.2842 18.2754C57.2763 18.289 57.2687 18.3028 57.2607 18.3164C57.2103 18.4029 57.1568 18.4873 57.1025 18.5713C57.1008 18.5739 57.1004 18.5774 57.0986 18.5801C56.7874 19.0596 56.4136 19.4962 55.9883 19.8789V22.4844L60.0537 24.249C62.8143 25.4269 64.6016 28.1402 64.6016 31.1592V34.1436C64.6015 35.4053 63.8588 36.5596 62.709 37.085L58.5869 38.958C58.4427 39.0225 58.2901 39.0557 58.1416 39.0557C57.7346 39.0557 57.343 38.82 57.1621 38.4238C56.9169 37.8835 57.1552 37.2446 57.6953 36.999L61.8174 35.125C62.2005 34.9506 62.4482 34.5655 62.4482 34.1436V31.1592C62.4482 29.0058 61.1735 27.0695 59.2031 26.2275L54.8301 24.3281C54.2738 24.2864 53.835 23.8228 53.835 23.2559V21.1631C53.5593 21.2609 53.275 21.3422 52.9824 21.4023C52.9092 21.4174 52.8378 21.4258 52.7646 21.4258C52.2651 21.4258 51.8174 21.0746 51.7119 20.5664C51.5935 19.9828 51.9682 19.4143 52.5518 19.2959C53.1344 19.1754 53.6698 18.937 54.1367 18.6104C54.1751 18.5707 54.2159 18.5328 54.2607 18.499C55.359 17.6678 55.9883 16.4191 55.9883 15.0732V11.8428C55.9881 9.46787 54.0566 7.53625 51.6816 7.53613C49.3066 7.53613 47.3752 9.4678 47.375 11.8428V15.0732C47.375 16.419 48.0035 17.6678 49.1016 18.499C49.3707 18.7014 49.5283 19.0203 49.5283 19.3584V23.2578C49.5283 23.8085 49.1137 24.2614 48.5801 24.3252L45.1562 25.7969C45.0185 25.8571 44.8766 25.8848 44.7324 25.8848C44.3168 25.8847 43.9186 25.6415 43.7441 25.2324C43.5096 24.6877 43.7617 24.053 44.3086 23.8184L47.375 22.5V19.8662C45.999 18.6366 45.2217 16.9185 45.2217 15.0752V11.8457C45.2217 8.28404 48.12 5.38477 51.6816 5.38477ZM32.3008 0C37.0511 0 40.915 3.86297 40.915 8.61328V11.8428C40.915 16.5624 39.4843 19.5319 37.6846 21.3174V23.7529C37.6846 24.2051 37.9756 24.61 38.4062 24.7607L47.3896 27.9502C51.2442 29.3047 53.835 32.9765 53.835 37.083V37.6855C53.835 38.2799 53.3521 38.7598 52.7578 38.7598C52.1637 38.7596 51.6817 38.2778 51.6816 37.6836V37.083C51.6816 33.8896 49.6682 31.0335 46.6729 29.9805L37.8154 26.8379C37.0816 28.1077 35.4188 30.1464 32.2861 30.1465C29.4126 30.1465 27.6463 28.3432 26.8115 26.8701L17.9512 29.9785C15.49 30.8549 13.6246 32.9846 13.084 35.5361C12.9742 36.0529 12.9209 36.5814 12.9209 37.1025V37.6836C12.9208 38.28 12.438 38.7598 11.8438 38.7598C11.2496 38.7596 10.7676 38.2778 10.7676 37.6836V37.1025C10.7676 36.4307 10.8385 35.7562 10.9785 35.0908C11.6719 31.8114 14.0705 29.0767 17.2314 27.9482L26.1943 24.8047C26.6271 24.6539 26.918 24.2461 26.918 23.7939V21.3232C25.3665 19.7777 23.6875 16.9313 23.6875 11.8428V8.61328C23.6875 3.86306 27.5506 0.000152144 32.3008 0ZM32.3008 2.15332C28.7392 2.15347 25.8408 5.05172 25.8408 8.61328V11.8428C25.8408 15.5549 26.8336 18.3954 28.709 20.0557C28.9843 20.2991 29.105 20.6521 29.0645 20.9912C29.0682 21.0278 29.0713 21.0649 29.0713 21.1025V23.7939C29.0713 24.4288 28.8809 25.0316 28.5498 25.542C28.9085 26.2874 29.9793 27.9912 32.2861 27.9912C34.5504 27.9911 35.6676 26.3252 36.0732 25.5361C35.729 25.019 35.5312 24.4027 35.5312 23.7529V22.8691C34.3641 23.4545 33.2095 23.6865 32.3008 23.6865C31.7067 23.6864 31.2248 23.2044 31.2246 22.6104C31.2246 22.0161 31.7066 21.5334 32.3008 21.5332C34.536 21.5332 38.7607 19.5087 38.7607 11.8428V9.98145C37.6439 10.396 36.3943 10.5859 35.1221 10.5859C32.06 10.5859 28.8734 9.50632 27.1162 7.92578C26.6726 7.52742 26.6358 6.84769 27.0342 6.40625C27.4325 5.96491 28.1187 5.9281 28.5537 6.32617C30.6768 8.23396 35.7632 9.23099 38.6768 7.66797C38.6809 7.66576 38.6853 7.66328 38.6895 7.66113C38.2276 4.5492 35.539 2.15332 32.3008 2.15332Z" fill="url(#paint0_linear_1196_44512)"/>
<defs>
<linearGradient id="paint0_linear_1196_44512" x1="32.3008" y1="0" x2="32.3008" y2="64" gradientUnits="userSpaceOnUse">
<stop stop-color="#FFDB79"/>
<stop offset="1" stop-color="#E4A600"/>
</linearGradient>
</defs>
</svg>
