<svg width="64" height="64" viewBox="0 0 64 64" fill="none" xmlns="http://www.w3.org/2000/svg">
<g clip-path="url(#clip0_1196_44489)">
<path d="M53.1601 26.13C53.1701 26.08 53.1601 26.04 53.1601 25.99C53.1601 25.92 53.1501 25.86 53.1301 25.79C53.1201 25.75 53.1101 25.71 53.1001 25.67C53.0901 25.66 53.0901 25.64 53.0901 25.63C53.0501 25.54 53.0001 25.46 52.9301 25.39L45.3101 16.91C45.1301 16.71 44.8601 16.59 44.5901 16.59H19.4201C19.1401 16.59 18.8801 16.71 18.7001 16.91L11.0901 25.38C11.0201 25.46 10.9601 25.54 10.9101 25.64C10.9001 25.66 10.9001 25.68 10.8901 25.7C10.8801 25.72 10.8801 25.74 10.8701 25.76C10.8401 25.85 10.8301 25.95 10.8301 26.04V26.12C10.8401 26.23 10.8601 26.34 10.9101 26.45C10.9101 26.46 10.9201 26.46 10.9201 26.47C10.9601 26.55 11.0001 26.62 11.0601 26.69L31.2601 49.2C31.2801 49.23 31.3201 49.24 31.3401 49.26C31.3901 49.31 31.4501 49.35 31.5101 49.38C31.5601 49.41 31.6001 49.43 31.6501 49.45C31.7301 49.48 31.8101 49.5 31.9001 49.5C31.9301 49.5 31.9601 49.52 31.9901 49.52C32.0101 49.52 32.0401 49.51 32.0601 49.51C32.1601 49.5 32.2501 49.48 32.3401 49.45C32.3801 49.43 32.4201 49.41 32.4501 49.39C32.5201 49.35 32.5901 49.3 32.6501 49.24C32.6701 49.22 32.6901 49.22 32.7101 49.2L52.8401 26.77C52.8401 26.77 52.8401 26.77 52.8401 26.76L52.9001 26.69C52.9401 26.65 52.9601 26.6 52.9901 26.55C53.0301 26.49 53.0601 26.42 53.0901 26.35C53.1301 26.26 53.1501 26.2 53.1601 26.13ZM50.0301 25.05H40.3301L37.3901 18.52H44.1601L50.0301 25.05ZM25.6401 26.99H38.3401L32.0001 45.53L25.6401 26.99ZM25.7901 25.05L28.7301 18.52H35.2601L38.2001 25.05H25.7901ZM19.8501 18.51H26.6101L23.6701 25.04H13.9801L19.8501 18.51ZM23.5901 26.99L29.5401 44.34L13.9701 26.99H23.5901ZM34.4601 44.33L40.4001 26.98H50.0301L34.4601 44.33Z" fill="url(#paint0_linear_1196_44489)"/>
<path d="M31.9998 5.66C32.5398 5.66 32.9698 5.23 32.9698 4.69V0.97C32.9698 0.43 32.5298 0 31.9998 0C31.4598 0 31.0298 0.43 31.0298 0.97V4.69C31.0298 5.22 31.4598 5.66 31.9998 5.66Z" fill="url(#paint1_linear_1196_44489)"/>
<path d="M17.5002 8.83006C17.6802 9.14006 18.0102 9.31006 18.3402 9.31006C18.5002 9.31006 18.6702 9.27006 18.8202 9.18006C19.2802 8.91006 19.4402 8.32006 19.1802 7.86006L17.3202 4.64006C17.0502 4.18006 16.4602 4.02006 16.0002 4.29006C15.5402 4.56006 15.3802 5.15006 15.6402 5.61006L17.5002 8.83006Z" fill="url(#paint2_linear_1196_44489)"/>
<path d="M4.63981 17.33L7.85981 19.19C8.00981 19.28 8.17981 19.32 8.33981 19.32C8.67981 19.32 8.99981 19.15 9.17981 18.84C9.44981 18.38 9.2898 17.78 8.81981 17.52L5.59981 15.66C5.13981 15.38 4.54981 15.54 4.27981 16C4.01981 16.47 4.17981 17.06 4.63981 17.33Z" fill="url(#paint3_linear_1196_44489)"/>
<path d="M5.66 32C5.66 31.46 5.23 31.03 4.69 31.03H0.97C0.43 31.03 0 31.47 0 32C0 32.53 0.43 32.97 0.97 32.97H4.69C5.22 32.97 5.66 32.54 5.66 32Z" fill="url(#paint4_linear_1196_44489)"/>
<path d="M7.86018 44.82L4.64018 46.68C4.18018 46.95 4.02018 47.54 4.29018 48C4.47018 48.31 4.80018 48.48 5.13018 48.48C5.29018 48.48 5.46018 48.44 5.61018 48.35L8.83018 46.49C9.29018 46.22 9.45018 45.63 9.19018 45.17C8.92018 44.71 8.33018 44.55 7.86018 44.82Z" fill="url(#paint5_linear_1196_44489)"/>
<path d="M18.8302 54.82C18.3602 54.55 17.7702 54.71 17.5102 55.18L15.6502 58.4C15.3802 58.86 15.5402 59.46 16.0102 59.72C16.1602 59.81 16.3302 59.85 16.4902 59.85C16.8302 59.85 17.1502 59.68 17.3302 59.37L19.1902 56.15C19.4502 55.68 19.3002 55.08 18.8302 54.82Z" fill="url(#paint6_linear_1196_44489)"/>
<path d="M31.9998 58.34C31.4598 58.34 31.0298 58.77 31.0298 59.31V63.03C31.0298 63.57 31.4598 64 31.9998 64C32.5398 64 32.9698 63.57 32.9698 63.03V59.31C32.9698 58.78 32.5398 58.34 31.9998 58.34Z" fill="url(#paint7_linear_1196_44489)"/>
<path d="M46.4998 55.17C46.2298 54.71 45.6398 54.55 45.1798 54.81C44.7198 55.08 44.5598 55.67 44.8198 56.13L46.6798 59.35C46.8598 59.66 47.1898 59.83 47.5198 59.83C47.6798 59.83 47.8498 59.79 47.9998 59.7C48.4598 59.43 48.6198 58.84 48.3598 58.38L46.4998 55.17Z" fill="url(#paint8_linear_1196_44489)"/>
<path d="M59.3601 46.67L56.1401 44.81C55.6701 44.54 55.0801 44.7 54.8201 45.17C54.5501 45.63 54.7101 46.23 55.1801 46.49L58.4001 48.35C58.5501 48.44 58.7201 48.48 58.8801 48.48C59.2201 48.48 59.5401 48.31 59.7201 48C59.9801 47.53 59.8201 46.94 59.3601 46.67Z" fill="url(#paint9_linear_1196_44489)"/>
<path d="M63.0298 31.03H59.3098C58.7698 31.03 58.3398 31.46 58.3398 32C58.3398 32.54 58.7698 32.97 59.3098 32.97H63.0298C63.5698 32.97 63.9998 32.54 63.9998 32C63.9998 31.46 63.5698 31.03 63.0298 31.03Z" fill="url(#paint10_linear_1196_44489)"/>
<path d="M55.6501 19.31C55.8101 19.31 55.9801 19.27 56.1301 19.18L59.3501 17.32C59.8101 17.05 59.9701 16.46 59.7101 16C59.4401 15.54 58.8501 15.38 58.3901 15.64L55.1701 17.5C54.7101 17.77 54.5501 18.36 54.8101 18.82C54.9901 19.13 55.3201 19.31 55.6501 19.31Z" fill="url(#paint11_linear_1196_44489)"/>
<path d="M45.1698 9.17995C45.3198 9.26995 45.4898 9.30995 45.6498 9.30995C45.9898 9.30995 46.3098 9.13995 46.4898 8.82995L48.3498 5.60995C48.6198 5.14995 48.4598 4.54995 47.9898 4.28995C47.5198 4.01995 46.9298 4.17995 46.6698 4.64995L44.8098 7.86995C44.5498 8.31995 44.6998 8.91995 45.1698 9.17995Z" fill="url(#paint12_linear_1196_44489)"/>
</g>
<defs>
<linearGradient id="paint0_linear_1196_44489" x1="31.9973" y1="16.59" x2="31.9973" y2="49.52" gradientUnits="userSpaceOnUse">
<stop stop-color="#FFDB79"/>
<stop offset="1" stop-color="#E4A600"/>
</linearGradient>
<linearGradient id="paint1_linear_1196_44489" x1="31.9998" y1="0" x2="31.9998" y2="5.66" gradientUnits="userSpaceOnUse">
<stop stop-color="#FFDB79"/>
<stop offset="1" stop-color="#E4A600"/>
</linearGradient>
<linearGradient id="paint2_linear_1196_44489" x1="17.4102" y1="4.15857" x2="17.4102" y2="9.31006" gradientUnits="userSpaceOnUse">
<stop stop-color="#FFDB79"/>
<stop offset="1" stop-color="#E4A600"/>
</linearGradient>
<linearGradient id="paint3_linear_1196_44489" x1="6.73311" y1="15.5215" x2="6.73311" y2="19.32" gradientUnits="userSpaceOnUse">
<stop stop-color="#FFDB79"/>
<stop offset="1" stop-color="#E4A600"/>
</linearGradient>
<linearGradient id="paint4_linear_1196_44489" x1="2.83" y1="31.03" x2="2.83" y2="32.97" gradientUnits="userSpaceOnUse">
<stop stop-color="#FFDB79"/>
<stop offset="1" stop-color="#E4A600"/>
</linearGradient>
<linearGradient id="paint5_linear_1196_44489" x1="6.7367" y1="44.6885" x2="6.7367" y2="48.48" gradientUnits="userSpaceOnUse">
<stop stop-color="#FFDB79"/>
<stop offset="1" stop-color="#E4A600"/>
</linearGradient>
<linearGradient id="paint6_linear_1196_44489" x1="17.418" y1="54.6888" x2="17.418" y2="59.85" gradientUnits="userSpaceOnUse">
<stop stop-color="#FFDB79"/>
<stop offset="1" stop-color="#E4A600"/>
</linearGradient>
<linearGradient id="paint7_linear_1196_44489" x1="31.9998" y1="58.34" x2="31.9998" y2="64" gradientUnits="userSpaceOnUse">
<stop stop-color="#FFDB79"/>
<stop offset="1" stop-color="#E4A600"/>
</linearGradient>
<linearGradient id="paint8_linear_1196_44489" x1="46.5898" y1="54.6854" x2="46.5898" y2="59.83" gradientUnits="userSpaceOnUse">
<stop stop-color="#FFDB79"/>
<stop offset="1" stop-color="#E4A600"/>
</linearGradient>
<linearGradient id="paint9_linear_1196_44489" x1="57.2668" y1="44.6788" x2="57.2668" y2="48.48" gradientUnits="userSpaceOnUse">
<stop stop-color="#FFDB79"/>
<stop offset="1" stop-color="#E4A600"/>
</linearGradient>
<linearGradient id="paint10_linear_1196_44489" x1="61.1698" y1="31.03" x2="61.1698" y2="32.97" gradientUnits="userSpaceOnUse">
<stop stop-color="#FFDB79"/>
<stop offset="1" stop-color="#E4A600"/>
</linearGradient>
<linearGradient id="paint11_linear_1196_44489" x1="57.2601" y1="15.5155" x2="57.2601" y2="19.31" gradientUnits="userSpaceOnUse">
<stop stop-color="#FFDB79"/>
<stop offset="1" stop-color="#E4A600"/>
</linearGradient>
<linearGradient id="paint12_linear_1196_44489" x1="46.582" y1="4.15881" x2="46.582" y2="9.30995" gradientUnits="userSpaceOnUse">
<stop stop-color="#FFDB79"/>
<stop offset="1" stop-color="#E4A600"/>
</linearGradient>
<clipPath id="clip0_1196_44489">
<rect width="64" height="64" fill="white"/>
</clipPath>
</defs>
</svg>
