<svg width="62" height="64" viewBox="0 0 62 64" fill="none" xmlns="http://www.w3.org/2000/svg">
<path d="M46.667 0C48.8721 0.000264816 50.667 1.79483 50.667 4V5.33398H54.667C58.3441 5.33416 61.3329 8.32285 61.333 12V57.334C61.3327 61.011 58.344 63.9998 54.667 64H6.66699C2.98982 64 0.000263767 61.0111 0 57.334V12C8.83123e-05 8.32274 2.98971 5.33398 6.66699 5.33398H10.667V4C10.667 1.79467 12.4617 0 14.667 0C16.8721 0.000264816 18.667 1.79483 18.667 4V5.33398H42.667V4C42.667 1.79467 44.4617 0 46.667 0ZM2.66699 57.334C2.66726 59.5391 4.46182 61.334 6.66699 61.334H54.667C56.872 61.3338 58.6667 59.539 58.667 57.334V21.333H2.66699V57.334ZM30.667 53.334C31.4029 53.3341 32 53.931 32 54.667V57.334C31.9997 58.0697 31.4028 58.6669 30.667 58.667C29.9312 58.667 29.3342 58.0698 29.334 57.334V54.667C29.334 53.931 29.931 53.334 30.667 53.334ZM20.2959 49.8184C20.8159 49.2986 21.6617 49.2984 22.1816 49.8184C22.7015 50.3383 22.7014 51.1841 22.1816 51.7041L20.2959 53.5898C20.0373 53.8484 19.6957 53.9785 19.3545 53.9785C19.0132 53.9785 18.6715 53.8485 18.4102 53.5898C17.8902 53.0699 17.8904 52.2241 18.4102 51.7041L20.2959 49.8184ZM39.1396 49.8184C39.6596 49.2984 40.5054 49.2985 41.0254 49.8184L42.9111 51.7041C43.4309 52.2241 43.431 53.0699 42.9111 53.5898C42.6526 53.8484 42.3109 53.9784 41.9697 53.9785C41.6285 53.9785 41.2867 53.8483 41.0254 53.5898L39.1396 51.7041C38.6198 51.1841 38.6197 50.3383 39.1396 49.8184ZM30.667 32C35.8135 32.0001 39.9998 36.1865 40 41.333C40 46.4796 35.8136 50.6669 30.667 50.667C25.5203 50.667 21.334 46.4797 21.334 41.333C21.3342 36.1865 25.5204 32 30.667 32ZM30.667 34.667C26.9898 34.667 24.0002 37.6558 24 41.333C24 45.0103 26.9897 48 30.667 48C34.3442 47.9999 37.333 45.0103 37.333 41.333C37.3328 37.6559 34.3441 34.6671 30.667 34.667ZM17.334 40C18.0697 40.0003 18.6668 40.5973 18.667 41.333C18.667 42.0688 18.0698 42.6667 17.334 42.667H14.667C13.931 42.667 13.334 42.069 13.334 41.333C13.3342 40.5972 13.9311 40 14.667 40H17.334ZM46.667 40C47.4027 40.0003 47.9998 40.5973 48 41.333C48 42.0688 47.4028 42.6667 46.667 42.667H44C43.264 42.667 42.667 42.069 42.667 41.333C42.6672 40.5972 43.2641 40 44 40H46.667ZM18.4102 29.0801C18.9302 28.5601 19.7759 28.5601 20.2959 29.0801L22.1816 30.9648C22.7015 31.4848 22.7014 32.3306 22.1816 32.8506C21.9231 33.1092 21.5814 33.2401 21.2402 33.2402C20.8989 33.2402 20.5572 33.1092 20.2959 32.8506L18.4102 30.9648C17.8906 30.4449 17.8905 29.6 18.4102 29.0801ZM41.0254 29.0801C41.5454 28.5601 42.3911 28.5601 42.9111 29.0801C43.4307 29.6 43.4306 30.4449 42.9111 30.9648L41.0254 32.8506C40.7667 33.1093 40.4253 33.2402 40.084 33.2402C39.7427 33.2402 39.401 33.1092 39.1396 32.8506C38.6198 32.3306 38.6197 31.4848 39.1396 30.9648L41.0254 29.0801ZM30.667 24C31.4028 24.0001 31.9998 24.5972 32 25.333V28C32 28.7359 31.4029 29.3329 30.667 29.333C29.931 29.333 29.334 28.736 29.334 28V25.333C29.3342 24.5972 29.9311 24 30.667 24ZM6.66699 8C4.46171 8 2.66708 9.79474 2.66699 12V18.667H58.667V12C58.6669 9.79485 56.8721 8.00018 54.667 8H50.667V9.33301C50.667 11.5382 48.8721 13.3327 46.667 13.333C44.4617 13.333 42.667 11.5383 42.667 9.33301V8H18.667V9.33301C18.667 11.5382 16.8721 13.3327 14.667 13.333C12.4617 13.333 10.667 11.5383 10.667 9.33301V8H6.66699ZM14.667 2.66699C13.9337 2.66699 13.333 3.26667 13.333 4V9.33301C13.333 10.0663 13.9337 10.667 14.667 10.667C15.4001 10.6667 16 10.0662 16 9.33301V4C16 3.26683 15.4001 2.66726 14.667 2.66699ZM46.667 2.66699C45.9337 2.66699 45.333 3.26667 45.333 4V9.33301C45.333 10.0663 45.9337 10.667 46.667 10.667C47.4001 10.6667 48 10.0662 48 9.33301V4C48 3.26683 47.4001 2.66726 46.667 2.66699Z" fill="url(#paint0_linear_827_112)"/>
<defs>
<linearGradient id="paint0_linear_827_112" x1="30.6665" y1="0" x2="30.6665" y2="64" gradientUnits="userSpaceOnUse">
<stop stop-color="#FCCA5D"/>
<stop offset="1" stop-color="#C9A14A"/>
</linearGradient>
</defs>
</svg>
