<svg width="66" height="64" viewBox="0 0 66 64" fill="none" xmlns="http://www.w3.org/2000/svg">
<path d="M52.7554 43.9902C53.3478 44.0583 53.7732 44.5938 53.7056 45.1865C52.5326 55.4102 44.232 63.2376 34.1011 63.9473C34.0464 63.9511 33.9917 63.9536 33.937 63.957C33.494 63.9846 33.0476 64 32.5981 64C32.1482 64 31.7009 63.9847 31.2573 63.957C31.2026 63.9536 31.1479 63.9511 31.0933 63.9473C20.9635 63.2371 12.6626 55.4099 11.4888 45.1865C11.4213 44.5938 11.8467 44.0583 12.439 43.9902C13.0288 43.9185 13.5678 44.3471 13.6362 44.9404C14.0707 48.7253 15.5934 52.1437 17.8696 54.9004V54.459C17.8696 49.7837 21.6733 45.9805 26.3481 45.9805H38.8462C43.5209 45.9805 47.3247 49.7837 47.3247 54.459V54.9023C49.6016 52.1454 51.124 48.726 51.5581 44.9404C51.6255 44.3476 52.1612 43.9201 52.7554 43.9902ZM26.3481 48.1406C22.8644 48.1406 20.03 50.9743 20.0298 54.458V57.1191C21.1361 58.0872 22.34 58.9156 23.6157 59.5967V55.4229C23.6157 54.8261 24.1 54.3428 24.6968 54.3428C25.2933 54.3429 25.7769 54.8263 25.7769 55.4229V60.5811C27.933 61.4057 30.2395 61.8388 32.5972 61.8389C34.9551 61.8389 37.2622 61.4059 39.4185 60.5811V55.4229C39.4185 54.8262 39.9021 54.343 40.4985 54.3428C41.0951 54.3428 41.5796 54.8262 41.5796 55.4229V59.5967C42.855 58.9157 44.0584 58.087 45.1646 57.1191V54.458C45.1643 50.9743 42.33 48.1406 38.8462 48.1406H26.3481ZM32.5981 29.375C36.6431 29.3752 39.933 32.6655 39.9331 36.71C39.9331 40.755 36.6431 44.0457 32.5981 44.0459C28.553 44.0459 25.2622 40.7551 25.2622 36.71C25.2623 32.6653 28.553 29.375 32.5981 29.375ZM32.5981 31.5352C29.7447 31.5352 27.4225 33.8565 27.4224 36.71C27.4224 39.5635 29.7446 41.8857 32.5981 41.8857C35.4515 41.8855 37.7729 39.5632 37.7729 36.71C37.7729 33.8566 35.4513 31.5354 32.5981 31.5352ZM8.73389 23.7998C9.97514 23.8004 11.0237 24.5634 11.4067 25.7432L12.0259 27.6475C12.1137 27.9166 12.3625 28.0986 12.646 28.0986H14.6489C15.8903 28.0987 16.9397 28.8607 17.3237 30.041C17.7067 31.2208 17.3054 32.455 16.3013 33.1846L14.6812 34.3623C14.4525 34.5286 14.3581 34.821 14.4448 35.0898L15.063 36.9951C15.447 38.1754 15.0467 39.4103 14.0425 40.1396C13.038 40.8688 11.741 40.8688 10.7368 40.1396L9.1167 38.9619C8.88721 38.7957 8.57959 38.7957 8.3501 38.9619L6.72998 40.1396C6.22791 40.5039 5.65314 40.6855 5.07764 40.6855C4.50218 40.6855 3.92638 40.504 3.42432 40.1396C2.42088 39.4099 2.0189 38.1754 2.40283 36.9951L3.02197 35.0898C3.10897 34.8211 3.0134 34.528 2.78467 34.3623L1.16455 33.1846C0.160413 32.4549 -0.24011 31.2213 0.143066 30.041C0.527157 28.8608 1.57645 28.0987 2.81689 28.0986H4.8208C5.10344 28.0986 5.35198 27.9172 5.43994 27.6475L6.05908 25.7432C6.44316 24.5625 7.49329 23.7998 8.73389 23.7998ZM56.4614 23.7998C57.7028 23.7999 58.753 24.5629 59.1362 25.7432L59.7544 27.6475C59.8422 27.9166 60.0909 28.0976 60.3745 28.0977H62.3774C63.6189 28.0977 64.6682 28.8607 65.0522 30.041C65.4353 31.2208 65.034 32.455 64.0298 33.1846L62.4097 34.3623C62.1811 34.5286 62.0865 34.8211 62.1733 35.0898L62.7925 36.9951C63.1765 38.1753 62.775 39.4093 61.771 40.1387C60.7666 40.8678 59.4706 40.8678 58.4663 40.1387L56.8452 38.9619C56.6156 38.7958 56.3082 38.7958 56.0786 38.9619L54.4585 40.1387C53.9559 40.5031 53.3816 40.6855 52.8062 40.6855C52.2305 40.6855 51.655 40.5032 51.1528 40.1387C50.1493 39.4089 49.7474 38.1754 50.1313 36.9951L50.7505 35.0898C50.8374 34.8214 50.7418 34.529 50.5132 34.3623L48.8931 33.1846C47.8888 32.455 47.4886 31.2213 47.8716 30.041C48.2555 28.8608 49.3049 28.0978 50.5454 28.0977H52.5493C52.8319 28.0977 53.0806 27.9171 53.1685 27.6475L53.7876 25.7432C54.1708 24.5628 55.2208 23.7998 56.4614 23.7998ZM8.73389 25.96C8.59118 25.96 8.24633 26.0043 8.11377 26.4111L7.49463 28.3154C7.11644 29.4778 6.04192 30.2588 4.8208 30.2588H2.81787C2.39077 30.2588 2.24165 30.5734 2.19775 30.709C2.15372 30.8444 2.08939 31.1857 2.43408 31.4365L4.0542 32.6143C5.04229 33.3312 5.45378 34.5944 5.07764 35.7568L4.45752 37.6631C4.32596 38.0682 4.57807 38.3069 4.69385 38.3906C4.80943 38.4751 5.11374 38.6428 5.46045 38.3916L7.08154 37.2139C8.06901 36.4959 9.39884 36.4958 10.3862 37.2139L12.0063 38.3916C12.3529 38.6415 12.6569 38.4744 12.772 38.3916C12.8877 38.308 13.1408 38.0692 13.0093 37.6631L12.3901 35.7578C12.0122 34.5962 12.4226 33.3328 13.4116 32.6143L15.0317 31.4365C15.3765 31.1858 15.3128 30.8448 15.269 30.709C15.2251 30.5735 15.076 30.2588 14.6489 30.2588H12.646C11.4241 30.2587 10.3501 29.4774 9.97217 28.3154L9.35303 26.4102C9.22043 26.0043 8.87666 25.96 8.73389 25.96ZM56.4604 25.96C56.3184 25.96 55.9737 26.0045 55.8413 26.4102L55.2231 28.3154C54.845 29.4779 53.7704 30.2587 52.5493 30.2588H50.5454L50.3979 30.2725C50.0832 30.3346 49.9649 30.5903 49.9263 30.709C49.8824 30.844 49.8176 31.1855 50.1626 31.4365L51.7827 32.6143C52.7708 33.3319 53.1821 34.5953 52.8062 35.7568L52.1851 37.6631C52.0536 38.0683 52.3068 38.307 52.4224 38.3906C52.538 38.4751 52.8422 38.643 53.189 38.3916L54.8091 37.2139C55.7957 36.496 57.1248 36.4961 58.1147 37.2139L59.7349 38.3916C60.0816 38.6415 60.3858 38.4743 60.5005 38.3916C60.6163 38.308 60.8684 38.0692 60.7368 37.6631L60.1187 35.7578C59.7406 34.5961 60.1511 33.3328 61.1401 32.6143L62.7603 31.4365C63.1049 31.1857 63.0405 30.8447 62.9966 30.709C62.9527 30.5736 62.8043 30.2589 62.3774 30.2588H60.3745C59.1525 30.2588 58.0778 29.4775 57.6997 28.3154L57.0815 26.4102C56.9489 26.004 56.603 25.96 56.4604 25.96ZM17.9019 9.91797C19.3433 9.91804 20.5627 10.8042 21.0083 12.1748L21.7896 14.5791C21.938 15.0356 22.3602 15.3436 22.8403 15.3438H25.3696C26.811 15.3439 28.0306 16.2297 28.4761 17.6006C28.9205 18.9714 28.4549 20.4052 27.2886 21.252L25.2446 22.7373C24.8555 23.0197 24.6927 23.517 24.8413 23.9736L25.6235 26.3779C26.0691 27.7488 25.6031 29.1819 24.437 30.0293C23.8545 30.4531 23.1846 30.665 22.5161 30.665C21.8478 30.665 21.1803 30.4528 20.5972 30.0293L18.5513 28.5439C18.0694 28.1932 17.9619 27.5169 18.313 27.0342C18.6633 26.5523 19.3383 26.4456 19.8228 26.7959L21.8677 28.2822C22.4692 28.7196 23.0139 28.3928 23.1675 28.2822C23.3195 28.1712 23.7985 27.7543 23.5688 27.0459L22.7876 24.6416C22.3488 23.2921 22.8255 21.8244 23.9741 20.9902L26.0181 19.5039C26.6213 19.0658 26.4785 18.4468 26.4204 18.2676C26.362 18.0878 26.1135 17.5039 25.3687 17.5039H22.8403C21.4218 17.5039 20.1737 16.5972 19.7349 15.248L18.9536 12.8428C18.7234 12.1349 18.0915 12.0792 17.9019 12.0791C17.7138 12.0791 17.0806 12.1343 16.8501 12.8428L16.0688 15.2471C15.63 16.5969 14.382 17.5039 12.9634 17.5039H10.4351C9.68997 17.5039 9.44161 18.0881 9.3833 18.2676C9.32521 18.4469 9.18236 19.0659 9.78467 19.5039L10.728 20.1885C11.2107 20.5392 11.3173 21.2146 10.9673 21.6973C10.6162 22.1796 9.94196 22.288 9.4585 21.9365L8.51611 21.252C7.34979 20.4051 6.88403 18.9715 7.32861 17.6006C7.77426 16.2296 8.99352 15.3438 10.4351 15.3438H12.9634C13.4435 15.3438 13.8665 15.0362 14.0151 14.5791L14.7964 12.1748C15.2421 10.804 16.4613 9.91797 17.9019 9.91797ZM47.2935 9.91797C48.7346 9.91812 49.9541 10.804 50.3989 12.1748L51.1802 14.5791C51.3285 15.036 51.751 15.3437 52.2319 15.3438H54.7593C56.2008 15.3438 57.4212 16.2296 57.8667 17.6006C58.3112 18.9714 57.8455 20.4052 56.6792 21.252L55.7378 21.9355C55.2552 22.2862 54.5785 22.1804 54.229 21.6982C53.878 21.2155 53.9845 20.5401 54.4673 20.1895L55.4087 19.5039C56.0118 19.0656 55.8701 18.4471 55.812 18.2676C55.7538 18.0882 55.5052 17.5041 54.7603 17.5039H52.2319C50.8116 17.5038 49.5634 16.596 49.1255 15.2461L48.3452 12.8428C48.1149 12.1346 47.4819 12.0791 47.2935 12.0791C47.1053 12.0791 46.4721 12.1343 46.2417 12.8428L45.4595 15.2471C45.0206 16.5969 43.7726 17.5039 42.354 17.5039H39.8267C39.0805 17.5039 38.8331 18.0892 38.7749 18.2686C38.7166 18.4484 38.5741 19.0661 39.1763 19.5039L41.2212 20.9902C42.3697 21.8248 42.8464 23.2921 42.4077 24.6416L41.6265 27.0459C41.397 27.7547 41.877 28.1717 42.0288 28.2822C42.181 28.393 42.7264 28.7188 43.3286 28.2822L45.3745 26.7959C45.8555 26.445 46.5323 26.5522 46.8833 27.0342C47.2335 27.5169 47.1258 28.1932 46.6431 28.5439L44.5972 30.0293C44.0136 30.4527 43.3458 30.665 42.6782 30.665C42.0098 30.665 41.3414 30.4529 40.7583 30.0293C39.5929 29.1823 39.1263 27.7489 39.5718 26.3779L40.353 23.9736C40.5015 23.5167 40.3407 23.0195 39.9517 22.7373L37.9058 21.252C36.7395 20.405 36.2737 18.9715 36.7192 17.6006C37.1649 16.2295 38.3851 15.3438 39.8267 15.3438H42.354C42.8343 15.3438 43.2571 15.0362 43.4058 14.5791L44.187 12.1748C44.6318 10.8039 45.852 9.91797 47.2935 9.91797ZM30.2183 22.8418C31.6065 21.8316 33.5837 21.8298 34.9771 22.8418L37.7534 24.8594C38.2362 25.2101 38.343 25.8864 37.9927 26.3691C37.6416 26.8515 36.9665 26.9581 36.4839 26.6074L33.7075 24.5898C33.0567 24.1186 32.136 24.1195 31.4888 24.5898L28.7104 26.6074C28.5188 26.7466 28.2969 26.8135 28.0767 26.8135C27.7426 26.8135 27.4135 26.6596 27.2017 26.3691C26.8515 25.8864 26.9582 25.2101 27.4409 24.8594L30.2183 22.8418ZM32.5972 0C34.3837 0 35.8955 1.09783 36.4468 2.79688L37.5073 6.0625C37.7615 6.84264 38.4828 7.36621 39.3032 7.36621H42.7349C43.3315 7.36621 43.8157 7.85003 43.8159 8.44629C43.8161 9.04278 43.3324 9.52714 42.7358 9.52734H39.3032C37.5444 9.52734 35.9971 8.4027 35.4536 6.72949L34.3931 3.46484C34.0809 2.50314 33.2597 2.16016 32.5972 2.16016C31.934 2.16029 31.1143 2.50307 30.8013 3.46484L29.7407 6.72949C29.1982 8.4027 27.6508 9.52734 25.8911 9.52734H22.4585C21.8619 9.52711 21.3784 9.04276 21.3784 8.44629C21.3787 7.85003 21.8622 7.36645 22.4585 7.36621H25.8911C26.7114 7.36621 27.4338 6.84238 27.686 6.0625L28.7476 2.79688C29.3005 1.09795 30.8108 0.000103845 32.5972 0Z" fill="url(#paint0_linear_827_140)"/>
<defs>
<linearGradient id="paint0_linear_827_140" x1="32.5973" y1="0" x2="32.5973" y2="64" gradientUnits="userSpaceOnUse">
<stop stop-color="#FCCA5D"/>
<stop offset="1" stop-color="#C9A14A"/>
</linearGradient>
</defs>
</svg>
