<svg width="64" height="64" viewBox="0 0 64 64" fill="none" xmlns="http://www.w3.org/2000/svg">
<path fill-rule="evenodd" clip-rule="evenodd" d="M30.874 0.270283C31.5784 -0.0921139 32.4213 -0.0900061 33.127 0.276142L60.8623 14.7175H62.0488C63.1247 14.7175 63.9999 15.5929 64 16.6687V21.1414C64 22.2173 63.1247 23.0925 62.0488 23.0925H60.1816V25.5525C60.1815 26.6283 59.3063 27.5037 58.2305 27.5037H57.6641V51.2361H57.916C58.9919 51.2361 59.8672 52.1114 59.8672 53.1873V55.4138H62.0488C63.1247 55.4138 64 56.2891 64 57.365V61.8367C64 62.9126 63.1247 63.7879 62.0488 63.7879H49.083C48.5617 63.7878 48.1388 63.3658 48.1387 62.8445C48.1387 62.323 48.5616 61.9003 49.083 61.9002H62.0488C62.0829 61.9002 62.1113 61.8708 62.1113 61.8367V57.365C62.1113 57.3314 62.0824 57.3015 62.0488 57.3015H1.95117C1.91756 57.3015 1.88867 57.3314 1.88867 57.365V61.8367C1.88867 61.8708 1.91706 61.9002 1.95117 61.9002H44.6777C45.1991 61.9003 45.6211 62.3231 45.6211 62.8445C45.6209 63.3658 45.199 63.7877 44.6777 63.7879H1.95117C0.875274 63.7879 0 62.9126 0 61.8367V57.365C0 56.2891 0.875274 55.4138 1.95117 55.4138H3.81836V52.9549C3.81848 51.8791 4.6937 51.0037 5.76953 51.0037H6.33594V27.5037H5.76953C4.69373 27.5037 3.81852 26.6283 3.81836 25.5525V23.0925H1.95117C0.875277 23.0925 4.26678e-06 22.2173 0 21.1414V16.6687C6.81562e-05 15.5929 0.875316 14.7175 1.95117 14.7175H2.7002L30.874 0.270283ZM5.76953 52.8924C5.73486 52.8924 5.70617 52.9203 5.70605 52.9549V55.4138H15.7764V52.9549C15.7763 52.9204 15.7484 52.8925 15.7139 52.8924H5.76953ZM17.665 23.0925V25.5525C17.6649 26.6282 16.7896 27.5035 15.7139 27.5037H15.1475V51.0037H15.7139C16.7896 51.0038 17.665 51.8791 17.665 52.9549V55.4138H21.5234V37.6873C21.5234 31.9104 26.223 27.2097 32 27.2097C34.7972 27.2097 37.4282 28.2996 39.4082 30.2781C41.3874 32.2587 42.4766 34.8901 42.4766 37.6873V55.4138H46.6504V53.1873C46.6504 52.1114 47.5257 51.2351 48.6016 51.2351H48.8525V27.5037H48.2861C47.2104 27.5035 46.3351 26.6282 46.335 25.5525V23.0925H17.665ZM32 29.0984C27.2641 29.0984 23.4111 32.9514 23.4111 37.6873V55.4138H40.5889V37.6873C40.5889 35.3944 39.6954 33.2374 38.0732 31.614C36.4503 29.9923 34.2932 29.0984 32 29.0984ZM48.6016 53.1238C48.5669 53.1238 48.5381 53.1527 48.5381 53.1873V55.4138H57.9795V53.1873C57.9795 53.1525 57.9506 53.1238 57.916 53.1238H48.6016ZM50.7412 27.5037V51.2361H55.7764V27.5037H50.7412ZM8.22363 27.5037V51.0037H13.2588V27.5037H8.22363ZM5.70605 23.0925V25.5525C5.70622 25.5871 5.73489 25.615 5.76953 25.615H15.7139C15.7484 25.6149 15.7762 25.5869 15.7764 25.5525V23.0925H5.70605ZM48.2236 23.0925V25.5525C48.2238 25.5869 48.2517 25.6149 48.2861 25.615H58.2305C58.265 25.615 58.2938 25.587 58.2939 25.5525V23.0925H48.2236ZM32.2568 1.95095C32.0942 1.86648 31.8996 1.86639 31.7373 1.94997L6.83789 14.7175H13.1982C13.7196 14.7175 14.1426 15.1404 14.1426 15.6619C14.1425 16.1834 13.7196 16.6062 13.1982 16.6062H1.95117C1.9171 16.6062 1.88874 16.6347 1.88867 16.6687V21.1414C1.88868 21.1756 1.91706 21.2039 1.95117 21.2039H62.0488C62.0829 21.2039 62.1113 21.1755 62.1113 21.1414V16.6687C62.1113 16.6347 62.0829 16.6062 62.0488 16.6062H17.6045C17.0831 16.6062 16.6602 16.1834 16.6602 15.6619C16.6602 15.1404 17.0831 14.7175 17.6045 14.7175H56.7744L32.2568 1.95095ZM32 4.5613C34.0453 4.5613 35.709 6.22596 35.709 8.27126C35.7088 10.3164 34.0452 11.9802 32 11.9802C29.9548 11.9802 28.2912 10.3164 28.291 8.27126C28.291 6.22596 29.9547 4.5613 32 4.5613ZM32 6.44997C30.9959 6.44997 30.1787 7.26711 30.1787 8.27126C30.1789 9.27529 30.9959 10.0925 32 10.0925C33.0041 10.0925 33.8211 9.27529 33.8213 8.27126C33.8213 7.26711 33.0041 6.44997 32 6.44997Z" fill="url(#paint0_linear_1196_44570)"/>
<defs>
<linearGradient id="paint0_linear_1196_44570" x1="32" y1="0" x2="32" y2="63.7879" gradientUnits="userSpaceOnUse">
<stop stop-color="#FFDB79"/>
<stop offset="1" stop-color="#E4A600"/>
</linearGradient>
</defs>
</svg>
