<svg width="64" height="64" viewBox="0 0 64 64" fill="none" xmlns="http://www.w3.org/2000/svg">
<path fill-rule="evenodd" clip-rule="evenodd" d="M20.5576 36.8096C21.6921 36.8096 22.8463 37.0619 23.8838 37.5273L30.5254 40.5332C30.8163 40.669 31.1273 40.7373 31.4473 40.7373H39.2822C41.3961 40.7373 43.1123 42.4535 43.1123 44.5674C43.1123 44.7127 43.0926 44.8487 43.0732 44.9844L53.9541 40.3877C55.5733 39.6994 57.3475 39.7189 58.957 40.4072C60.5666 41.115 61.7883 42.4143 62.3799 44.0625L62.6611 44.8584L37.1104 58.3955C35.7141 59.1421 34.143 59.5195 32.5723 59.5195C31.5735 59.5195 30.584 59.3747 29.624 59.0645L18.0361 55.3408H15.1367V53.4014L18.4824 53.4492L30.2158 57.2217C32.1938 57.8518 34.3754 57.658 36.208 56.6885L60.1885 43.9658C59.723 43.1708 59.0251 42.5598 58.1719 42.1816C57.0567 41.6968 55.825 41.687 54.7002 42.1621L41.1152 47.9131V47.9033C40.5722 48.2039 39.9513 48.3877 39.2822 48.3877H29.1387V46.4482H39.292C40.3295 46.4482 41.1825 45.5951 41.1826 44.5576C41.1826 43.5201 40.3392 42.6671 39.292 42.667H31.457C30.8558 42.667 30.2735 42.5403 29.7305 42.2979L23.0879 39.292C22.2929 38.9333 21.4204 38.7491 20.5576 38.749H15.1465V36.8096H20.5576ZM11.1025 34.3369C12.1692 34.3369 13.042 35.2097 13.042 36.2764V56.8633C13.0418 57.9298 12.1691 58.8028 11.1025 58.8125H1.33789V56.873H11.1025V36.2764H1.33789V34.3369H11.1025ZM7.19531 52.4805C7.94198 52.4805 8.55273 53.0913 8.55273 53.8477C8.55251 54.5941 7.94184 55.2051 7.19531 55.2051C6.43912 55.205 5.82834 54.5941 5.82812 53.8477C5.82812 53.0913 6.43899 52.4805 7.19531 52.4805ZM18.2686 11.7432L20.7324 17.5615L22.6035 17.7842L22.3613 19.7139L20.0244 19.4229H19.4814L19.1807 18.8506L17.3184 14.458L15.2529 18.8994L14.8457 19.3066L14.3994 19.3164L9.78418 19.7236L13.5566 23.2344V23.8066L12.4697 28.5186L16.4941 26.2891L16.6885 26.0947L17.5127 26.1143L17.7158 26.3076L21.6533 28.6836L20.7412 23.8643V23.4766L21.0225 23.1465L22.8945 21.5273L24.165 22.9912L22.7588 24.2041L24.0771 30.9824L23.001 31.7676L22.3994 31.3896L17.0664 28.1895L11.0254 31.5352L9.92969 30.7295L10.123 30.0312L11.5293 23.9902L6.99121 19.7725L6.45801 19.4229L6.86523 18.0078L7.63086 17.9688L13.7988 17.4355L16.417 11.8018L16.6006 11.2295L17.9395 11.123L18.2686 11.7432ZM48.998 11.2002L49.2891 11.7334L51.7715 17.5713L58.5791 18.4043L58.8018 19.0928C58.9084 19.4807 58.7731 19.908 58.4531 20.1602L53.7891 24.2031L55.1074 30.9717L54.0508 31.7676L53.4492 31.3984L48.1064 28.1895L42.0264 31.5537L40.9697 30.6807L41.1631 30.0312L42.5596 23.9902L40.7852 22.332L42.1133 20.916L44.5957 23.2334L44.6055 23.8057L43.5098 28.5186L47.5146 26.2979L47.6895 26.1143L48.543 26.1045L48.7461 26.3076L52.6934 28.6738L51.7715 23.8643V23.4473L52.0918 23.1074L55.6895 19.9854L51.0635 19.4131H50.1523L50.1328 18.6279L48.3584 14.4482L46.293 18.8896L45.8857 19.2969L45.4492 19.3164L43.5781 19.4912L43.4033 17.5615L44.8291 17.4355L47.5439 11.6367L47.8447 11.1611L48.998 11.2002ZM33.5322 4.49902L33.8037 5.08105L36.7705 12.1016L44.9355 13.1104L45.3428 14.3125L44.8779 14.7588L39.1074 19.7627L40.6787 27.8496L39.6318 28.6064L39.0693 28.2764L32.543 24.3496L25.3281 28.3447L24.2812 27.5684L26.1523 19.5107L20.1309 13.8955L20.5186 12.6836L21.168 12.6064L28.7705 11.9658L32.252 4.49023H32.9111L33.5322 4.49902ZM30.0605 13.7695L29.4883 13.8379L23.457 14.3613L28.335 18.8896L28.1699 19.4912L26.8213 25.3096L32.5723 22.1191L33.0664 22.3809L38.2646 25.5127L37.0039 19.0156L37.459 18.6279L41.9971 14.6914L35.4424 13.8857L35.2002 13.3525L32.8438 7.79688L30.0605 13.7695Z" fill="url(#paint0_linear_1196_44504)"/>
<defs>
<linearGradient id="paint0_linear_1196_44504" x1="31.9995" y1="4.49023" x2="31.9995" y2="59.5195" gradientUnits="userSpaceOnUse">
<stop stop-color="#FFDB79"/>
<stop offset="1" stop-color="#E4A600"/>
</linearGradient>
</defs>
</svg>
