<svg width="92" height="63" viewBox="0 0 92 63" fill="none" xmlns="http://www.w3.org/2000/svg">
<g clip-path="url(#clip0_1261_2217)">
<path d="M30.7267 15.2676H39.8812L39.8001 61.6536H30.6455L30.7267 15.2676Z" fill="#333333"/>
<path d="M44.3281 38.5981C44.3281 25.6185 53.856 14.1152 68.1722 14.1152C82.4883 14.1152 92 25.6022 92 38.5981C92 51.594 82.5695 62.935 68.1722 62.935C53.7748 62.935 44.3281 51.3993 44.3281 38.5981ZM82.8454 38.5981C82.8454 29.3501 76.6775 22.5196 68.2371 22.5196C59.7967 22.5196 53.6288 29.3501 53.6288 38.5981C53.6288 47.8461 59.7156 54.5793 68.2371 54.5793C76.7586 54.5793 82.7805 47.765 82.7805 38.5981H82.8454Z" fill="#333333"/>
<path d="M26.1327 23.395V15.2827H15.4361L15.5173 0.972656H6.49259V15.2503H0V23.3626H6.49259V49.5003C6.49259 53.7187 7.45025 56.8825 9.3331 58.9917C11.2159 61.1009 14.4136 62.2366 18.8934 62.2366C20.0459 62.2366 21.2795 62.1068 22.6267 62.0095C23.9739 61.9121 24.7043 61.6525 24.7043 61.6525V53.9296H21.1009C20.2693 54.0322 19.4251 53.9389 18.636 53.6572C17.8469 53.3755 17.1346 52.9132 16.5561 52.3072C15.667 50.7407 15.271 48.9427 15.4199 47.1478V23.395H26.1327Z" fill="#333333"/>
<path d="M35.2545 11.1625C38.3383 11.1625 40.8382 8.66369 40.8382 5.58125C40.8382 2.49881 38.3383 0 35.2545 0C32.1708 0 29.6709 2.49881 29.6709 5.58125C29.6709 8.66369 32.1708 11.1625 35.2545 11.1625Z" fill="#333333"/>
</g>
<defs>
<clipPath id="clip0_1261_2217">
<rect width="92" height="63" fill="white"/>
</clipPath>
</defs>
</svg>
