<svg width="336" height="92" viewBox="0 0 336 92" fill="none" xmlns="http://www.w3.org/2000/svg">
<path d="M46.2898 92C20.7719 92 0 71.3671 0 46C0 20.6329 20.7629 0 46.2898 0C71.8166 0 92.5706 20.6329 92.5706 46C92.5706 71.3671 71.8077 92 46.2898 92ZM46.2898 2.04288C21.898 2.04288 2.05574 21.761 2.05574 46C2.05574 70.239 21.898 89.9571 46.2898 89.9571C70.6815 89.9571 90.5238 70.239 90.5238 46C90.5238 21.761 70.6815 2.04288 46.2898 2.04288Z" fill="#3D4D55"/>
<path d="M54.8967 26.6284V27.6854H51.6612V44.8455H62.7443V27.6854H59.4551V26.6284H76.8931V27.6854H73.6039V64.3326H76.8931V65.3807H59.4551V64.3326H62.7443V46.2843H51.6612V64.3326H54.8967V65.3807H37.5213V64.3326H40.8105V27.6854H37.5213V26.6284H54.8967ZM33.0434 26.6284V27.6854H29.8078V44.8455H40.8909V27.6854H37.6018V26.6284H55.0397V27.6854H51.7505V64.3326H55.0397V65.3807H37.6018V64.3326H40.8909V46.2843H29.8078V64.3326H33.0434V65.3807H15.668V64.3326H18.9571V27.6854H15.668V26.6284H33.0434Z" fill="#3D4D55"/>
<path d="M117.254 27.1333V27.6012H118.702V35.1405H113.825V27.6012H115.247V27.1333H107.606V27.6012H109.046V43.7126H107.606V44.1717H115.247V43.7126H113.825V35.7761H118.702V43.7126H117.254V44.1717H124.921V43.7126H123.473V27.6012H124.921V27.1333H117.254Z" fill="#3D4D55"/>
<path d="M144.661 38.6011V27.6011H143.071V27.1421H146.642V27.6011H145.301V38.4333C145.301 42.1853 144.048 44.4188 139.029 44.4188C135.031 44.4188 132.171 43.0063 132.171 38.1596V27.6011H130.82V27.1421H138.54V27.6011H136.941V38.9895C136.941 41.6644 137.581 43.6155 140.592 43.6155C143.062 43.6155 144.652 42.0794 144.652 38.6011" fill="#3D4D55"/>
<path d="M166.363 44.1717H162.934L154.53 28.431V43.7126H155.881V44.1717H152.522V43.7126H153.873V27.6012H152.522V27.1333H159.283L165.706 39.3603V27.6012H164.356V27.1333H167.714V27.6012H166.363V44.1717Z" fill="#3D4D55"/>
<path d="M189.018 33.2424H188.556C187.232 29.2785 186.468 27.6453 184.238 27.6453H183.945V43.6597H186.033V44.1717H177.087V43.6597H179.174V27.6453H178.855C176.634 27.6453 175.79 29.4728 174.546 33.2424H174.075L174.324 27.1333H188.778L189.018 33.2424Z" fill="#3D4D55"/>
<path d="M208.056 27.1335L208.296 31.9537H207.86C206.51 28.7667 205.355 27.672 202.397 27.672H201.535V35.1936H202.37C203.969 35.1936 204.991 33.8517 205.408 32.0066H205.773V39.2104H205.355C204.769 36.7827 203.836 35.8292 202.122 35.8292H201.535V43.6422H202.468C205.577 43.6422 207.736 41.5234 208.465 38.8661H208.953L208.758 44.1719H195.308V43.6334H196.747V27.6632H195.308V27.1246H208.047L208.056 27.1335Z" fill="#3D4D55"/>
<path d="M221.701 35.0963H222.482C224.295 35.0963 225.228 34.0987 225.228 31.4679V30.7617C225.228 28.0338 224.224 27.6012 222.509 27.6012H221.701V35.0963ZM221.701 35.5642V43.7126H223.291V44.1717H215.331V43.7126H216.921V27.6012H215.331V27.1333H222.722C227.839 27.1333 230.291 27.6718 230.291 31.2208C230.291 34.187 228.728 35.061 226.125 35.2817V35.3523C228.772 35.6966 229.678 36.7119 229.678 39.5369V40.8346C229.678 42.4149 229.749 42.9711 230.434 42.9711C230.878 42.9711 231.242 42.7769 231.562 40.8788L231.979 40.9229C231.615 43.695 230.931 44.4012 228.648 44.4012C225.565 44.4012 224.659 43.3772 224.659 39.943V38.1685C224.659 36.4382 224.321 35.5377 222.989 35.5377H221.692L221.701 35.5642Z" fill="#3D4D55"/>
<path d="M247.961 41.3555C247.961 39.3339 246.442 38.6806 243.43 37.8243C240.472 36.9944 238.216 35.8291 238.216 32.1566C238.216 29.4287 240.241 26.8773 244.017 26.8773C246.273 26.8773 247.544 27.6277 248.379 27.6277C248.796 27.6277 248.921 27.46 249.089 27.1422H249.356L249.534 32.0595H249.143C247.899 29.8171 246.229 27.3894 243.706 27.3894C241.938 27.3894 240.721 28.4134 240.721 29.8524C240.721 31.6534 242.391 32.2625 244.861 32.9158C247.579 33.6485 250.591 34.5755 250.591 38.61C250.591 42.1148 248.192 44.4278 244.585 44.4278C242.213 44.4278 240.152 43.7038 239.468 43.7038C239.077 43.7038 238.926 43.9687 238.731 44.4278H238.384L238.145 38.6365H238.562C239.788 41.0731 242.16 43.9157 244.852 43.9157C246.327 43.9157 247.961 43.1388 247.961 41.3644" fill="#3D4D55"/>
<path d="M273.92 27.1333V27.6012H272.499V35.1405H277.376V27.6012H275.919V27.1333H283.595V27.6012H282.147V43.7126H283.595V44.1717H275.919V43.7126H277.376V35.7761H272.499V43.7126H273.92V44.1717H266.271V43.7126H267.72V27.6012H266.271V27.1333H273.92Z" fill="#3D4D55"/>
<path d="M297.062 27.1333V27.6012H295.721V43.7126H297.062V44.1717H289.591V43.7126H290.941V27.6012H289.591V27.1333H297.062Z" fill="#3D4D55"/>
<path d="M311.889 27.1333V27.6718H309.295V43.642H310.174C313.204 43.642 314.554 41.4526 316.002 38.4863H316.517L316.055 44.1805H303.067V43.642H304.515V27.6718H303.067V27.1333H311.889Z" fill="#3D4D55"/>
<path d="M331.371 27.1333V27.6718H328.777V43.642H329.657C332.686 43.642 334.037 41.4526 335.485 38.4863H336L335.538 44.1805H322.55V43.642H323.998V27.6718H322.55V27.1333H331.371Z" fill="#3D4D55"/>
<path d="M153.864 61.4221H147.299V63.0994H153.864V61.4221Z" fill="#3D4D55"/>
<path d="M165.005 58.2084C163.343 58.2084 162.242 59.2678 162.242 60.8569C162.242 62.446 163.343 63.5054 165.005 63.5054C166.666 63.5054 167.759 62.446 167.759 60.8569C167.759 59.2678 166.657 58.2084 165.005 58.2084ZM165.005 65.3151C161.798 65.3151 159.994 63.0728 159.994 60.8569C159.994 58.7558 161.718 56.3987 165.005 56.3987C168.292 56.3987 170.006 58.7646 170.006 60.8569C170.006 63.0904 168.149 65.3151 165.005 65.3151Z" fill="#3D4D55"/>
<path d="M174.786 60.0889H175.941C176.545 60.0889 177.131 59.8329 177.131 59.0913C177.131 58.438 176.714 58.1114 175.887 58.1114H174.786V60.0889ZM176.518 56.5134C178.313 56.5134 179.379 57.7141 179.379 59.0118C179.379 59.9653 178.881 60.6804 177.877 61.1394C178.766 61.5809 179.041 62.6579 180.267 65.2004H177.877C176.936 63.3376 176.598 61.6691 175.417 61.6691H174.786V65.2004H172.609V56.5134H176.518Z" fill="#3D4D55"/>
<path d="M180.924 56.5134V58.1114H184.095V65.2092H186.263V58.1114H189.435V56.5134H180.924Z" fill="#3D4D55"/>
<path d="M198.328 56.5134V60.0094H193.974V56.5134H191.789V65.2092H193.974V61.6868H198.328V65.2092H200.513V56.5134H198.328Z" fill="#3D4D55"/>
<path d="M208.117 58.2084C206.456 58.2084 205.354 59.2678 205.354 60.8569C205.354 62.446 206.456 63.5054 208.117 63.5054C209.778 63.5054 210.871 62.446 210.871 60.8569C210.871 59.2678 209.769 58.2084 208.117 58.2084ZM208.117 65.3151C204.91 65.3151 203.106 63.0728 203.106 60.8569C203.106 58.7558 204.83 56.3987 208.117 56.3987C211.404 56.3987 213.118 58.7646 213.118 60.8569C213.118 63.0904 211.262 65.3151 208.117 65.3151Z" fill="#3D4D55"/>
<path d="M217.89 63.6113H219.312C221.506 63.6113 222.155 62.1282 222.155 60.8569C222.155 59.365 221.355 58.1114 219.285 58.1114H217.89V63.6113ZM219.57 56.5134C222.759 56.5134 224.402 58.4909 224.402 60.8746C224.402 63.2582 222.812 65.2004 219.321 65.2004H215.705V56.5134H219.57Z" fill="#3D4D55"/>
<path d="M231.66 58.2084C229.999 58.2084 228.897 59.2678 228.897 60.8569C228.897 62.446 229.999 63.5054 231.66 63.5054C233.321 63.5054 234.414 62.446 234.414 60.8569C234.414 59.2678 233.312 58.2084 231.66 58.2084ZM231.66 65.3151C228.453 65.3151 226.649 63.0728 226.649 60.8569C226.649 58.7558 228.373 56.3987 231.66 56.3987C234.947 56.3987 236.661 58.7646 236.661 60.8569C236.661 63.0904 234.805 65.3151 231.66 65.3151Z" fill="#3D4D55"/>
<path d="M245.944 56.5134V61.828L241.271 56.5134H239.272V65.2092H241.458V59.6386L246.291 65.2092H248.121V56.5134H245.944Z" fill="#3D4D55"/>
<path d="M250.493 56.5134V58.1114H253.656V65.2092H255.832V58.1114H259.004V56.5134H250.493Z" fill="#3D4D55"/>
<path d="M263.596 56.5134H261.42V65.2004H263.596V56.5134Z" fill="#3D4D55"/>
<path d="M274.791 64.45C273.574 65.068 272.65 65.3151 271.353 65.3151C267.951 65.3151 266.263 63.1257 266.263 60.8834C266.263 58.641 268.173 56.3987 271.513 56.3987C272.73 56.3987 273.823 56.6547 274.685 57.1667V59.1001C273.725 58.5616 272.748 58.2084 271.673 58.2084C269.816 58.2084 268.501 59.3031 268.501 60.8481C268.501 62.393 269.798 63.5054 271.62 63.5054C272.757 63.5054 273.521 63.1522 274.782 62.5519V64.45H274.791Z" fill="#3D4D55"/>
<path d="M283.417 58.7735C282.146 58.2173 281.391 57.9966 280.645 57.9966C279.899 57.9966 279.366 58.2791 279.366 58.7117C279.366 60.0271 283.816 59.6563 283.816 62.6843C283.816 64.3529 282.404 65.3151 280.458 65.3151C278.939 65.3151 278.175 64.9178 277.305 64.4764V62.6049C278.557 63.4347 279.33 63.7261 280.29 63.7261C281.125 63.7261 281.569 63.4347 281.569 62.9227C281.569 61.4925 277.127 62.0134 277.127 58.897C277.127 57.3962 278.433 56.3987 280.458 56.3987C281.427 56.3987 282.315 56.6017 283.417 57.0784V58.7735Z" fill="#3D4D55"/>
<path d="M296.414 61.4221H289.849V63.0994H296.414V61.4221Z" fill="#3D4D55"/>
</svg>
