<svg width="64" height="86" viewBox="0 0 64 86" fill="none" xmlns="http://www.w3.org/2000/svg">
<path d="M32 0C23.5165 0.0113414 15.3837 3.41274 9.38501 9.45832C3.38629 15.5039 0.0112535 23.7002 0 32.25C0 55.4028 29.8133 84.4008 31.08 85.6237C31.3264 85.865 31.6564 86 32 86C32.3436 86 32.6736 85.865 32.92 85.6237C34.1867 84.4008 64 55.4028 64 32.25C63.9887 23.7002 60.6137 15.5039 54.615 9.45832C48.6163 3.41274 40.4835 0.0113414 32 0ZM32 47.0312C29.0992 47.0312 26.2636 46.1643 23.8516 44.5401C21.4397 42.9159 19.5599 40.6074 18.4498 37.9065C17.3397 35.2056 17.0492 32.2336 17.6152 29.3663C18.1811 26.499 19.5779 23.8652 21.6291 21.7981C23.6803 19.7309 26.2936 18.3231 29.1387 17.7527C31.9837 17.1824 34.9327 17.4751 37.6127 18.5939C40.2927 19.7126 42.5833 21.6072 44.1949 24.038C45.8065 26.4687 46.6667 29.3265 46.6667 32.25C46.6643 36.1695 45.1184 39.9278 42.3683 42.6993C39.6183 45.4708 35.8891 47.0289 32 47.0312Z" fill="#334148"/>
</svg>
